<?xml version="1.0" encoding="UTF-8"?>
<svg id="Layer_1" data-name="Layer 1" xmlns="http://www.w3.org/2000/svg" viewBox="0 0 21.34 21.76">
  <defs>
    <style>
      .cls-1 {
        fill: #d13100;
        stroke-width: 0px;
      }
    </style>
  </defs>
  <path class="cls-1" d="M.73,13.6c-.45,0-.73-.38-.73-.89s.28-.87.73-.87h9.04v-5.29h-5.18c-.68,1.22-1.46,2.35-2.31,3.34-.19.21-.42.33-.66.33s-.47-.09-.68-.26c-.21-.17-.33-.4-.33-.66,0-.21.09-.45.24-.64,1.69-1.91,3.04-4.35,3.76-6.82.14-.38.42-.56.78-.56.14,0,.28.02.42.07.45.14.64.4.64.75,0,.12-.02.24-.07.35-.26.8-.56,1.58-.92,2.33h4.31V.71c0-.42.42-.71.96-.71s.92.28.92.71v4.07h7.53c.42,0,.71.38.71.89s-.28.87-.71.87h-7.53v5.29h8.96c.45,0,.73.35.73.87s-.28.89-.73.89h-8.96v7.44c0,.45-.4.73-.92.73s-.96-.28-.96-.73v-7.44H.73Z"/>
</svg>