<?xml version="1.0" encoding="UTF-8"?>
<svg id="Layer_1" data-name="Layer 1" xmlns="http://www.w3.org/2000/svg" viewBox="0 0 81.77 98.57">
  <defs>
    <style>
      .cls-1 {
        fill: #d13100;
        stroke-width: 0px;
      }
    </style>
  </defs>
  <path class="cls-1" d="M25.25,51.46c-.36-.62.16-2.86,1.89-3.62,1.68-.71,3.24-.32,4.2.92-1.19-.59-2.53-.65-3.84-.07-1.1.45-2.2,1.5-2.25,2.77ZM23.65,58.21c-.56-.36-.9-.85-1.1-1.38-.19-.53-.27-1.11-.19-1.65.06-.54.28-1.05.66-1.4.39-.36.97-.53,1.63-.61-.59-.28-1.37-.34-2.03.06-.67.38-1.04,1.14-1.13,1.85-.08.72.07,1.46.45,2.07.37.61,1.03,1.07,1.7,1.07ZM31.32,53.67c-.92.52-1.44,1.55-1.57,2.53-.11.99.08,2.01.61,2.84.5.83,1.4,1.48,2.33,1.48-.77-.5-1.23-1.18-1.5-1.91-.26-.73-.36-1.52-.25-2.27.09-.75.39-1.44.92-1.92.53-.49,1.34-.72,2.25-.83-.81-.38-1.88-.48-2.79.06ZM21.22,60.41c.16.72.73,1.28,1.36,1.56.64.28,1.35.36,2.01.18.66-.16,1.27-.63,1.47-1.24-.49.41-1.04.57-1.58.6-.54.02-1.09-.08-1.56-.3-.48-.21-.87-.56-1.09-1.01-.22-.46-.2-1.04-.08-1.66-.42.46-.7,1.15-.54,1.86ZM17.6,62.11c.39-.3.46-.86.16-1.25-.3-.39-.86-.46-1.25-.16-.39.3-.46.86-.16,1.25.3.39.86.46,1.25.16ZM59.41,50.11c.56.09,1.1.31,1.53.64.44.32.78.75.9,1.26.12.51-.01,1.1-.27,1.72.53-.38.97-1.02.94-1.79,0-.77-.48-1.46-1.06-1.89-.59-.42-1.31-.66-2.02-.62-.71.02-1.44.37-1.77.96.59-.32,1.18-.37,1.74-.28ZM63.44,39.39c-1.25-.71-2-1.81-2.24-3.12-.41,1.51.2,3,1.78,3.92,1.64.93,3.75,0,4.03-.65-1.05.72-2.55.47-3.57-.14ZM75.52,34.15c.34.42.59.92.69,1.43.12.51.08,1.03-.16,1.47-.24.45-.71.78-1.28,1.06.62.07,1.34-.12,1.81-.68.48-.56.58-1.35.44-2.02-.15-.68-.52-1.3-1.06-1.72-.52-.43-1.26-.65-1.87-.43.62.15,1.08.49,1.43.9ZM30.18,63.26c-.29-.63-.27-1.43-.1-2.29-.58.62-.98,1.57-.75,2.56.21.99,1,1.76,1.85,2.16.87.39,1.85.5,2.77.27.91-.21,1.76-.85,2.03-1.7-.67.56-1.43.78-2.17.82-.74.02-1.49-.11-2.14-.43-.66-.3-1.2-.77-1.49-1.39ZM70.2,39.94c-.52-.09-1-.46-1.46-.94.13.64.55,1.3,1.26,1.59.71.31,1.53.15,2.16-.2.63-.37,1.13-.93,1.38-1.6.27-.66.24-1.46-.16-2.01.05.66-.14,1.23-.45,1.71-.31.47-.73.88-1.21,1.14-.47.28-1,.4-1.52.31ZM38.06,47.47c1.81-.78,3.65-.69,5.28.13-1.32-1.7-3.46-2.26-5.77-1.3-2.38,1.04-3.11,4.11-2.62,4.97.08-1.75,1.6-3.19,3.11-3.8ZM51.97,47.95c.44-.31.94-.52,1.45-.59.51-.08,1.02-.01,1.44.25.43.26.73.75.97,1.33.1-.6-.04-1.33-.56-1.83-.52-.51-1.3-.66-1.97-.56-.68.11-1.31.43-1.77.93-.46.49-.72,1.21-.55,1.82.18-.6.55-1.03.98-1.35ZM52.64,67.01c-.5.2-1.04.29-1.55.24-.52-.04-1-.23-1.35-.58-.35-.35-.53-.9-.63-1.52-.24.56-.27,1.3.12,1.91.39.62,1.11.94,1.78,1,.69.05,1.38-.11,1.94-.5.56-.37.98-1.01.95-1.65-.32.54-.77.88-1.27,1.09ZM60.6,64.44c-.18.5-.46.97-.84,1.33-.37.36-.83.6-1.32.64-.5.03-1.03-.19-1.56-.52.27.55.8,1.06,1.52,1.17.72.12,1.44-.21,1.93-.68.49-.48.82-1.11.9-1.79.09-.66-.12-1.4-.61-1.8.2.6.15,1.16-.01,1.67ZM62.13,59.01l-3.32-.3,3.16,1.06-3.81-.34h0s3.63,1.22,3.63,1.22l-3.9-.35,2.16,4.2-2.51-3.18,1.85,3.6-2.17-2.74,1.6,3.11-2.51-3.18,1.85,3.6-2.68-3.39-.03,2.35-.52-2.31-.03,2.37-.51-2.26-1.99,4.35.98-4.3-1.83,4.01.85-3.71-1.58,3.46.98-4.3-1.83,4.01,1.09-4.77-4.86.74,4.13-1.53-4.36.67,3.57-1.33-3.76.58,4.13-1.53-4.36.67,4.69-1.74c0-.06.02-.11.02-.16l-3.77-3.09,3.91,2.04-3.41-2.79,3.37,1.76-2.95-2.41,3.91,2.04-3.41-2.79,4.2,2.2-.35-4.68,1.21,4.24-.33-4.4,1.05,3.66-.29-3.8,1.21,4.24-.33-4.4,1.22,4.27,3.4-2.43-2.44,2.94,3.11-2.22-2.11,2.54,2.69-1.92-2.44,2.94,3.11-2.22-2.77,3.34s.01.03.02.05l4.24,1.42-3.85-.35,3.66,1.23ZM57.75,58.18c0-1.91-1.55-3.46-3.46-3.46s-3.46,1.55-3.46,3.46,1.55,3.46,3.46,3.46,3.46-1.55,3.46-3.46ZM76.82,68.78c-2.32,3.98-6.85,16.55-.31,19.7,0,0,1.24,5.46,0,8.3-1.2.98-7.75.91-10.05,0-.1-3.97-1.24-7.11-1.24-7.11,0,0,5.21-4.03-1.13-13.05-5.72,4.34-11.96,3.04-13.92,1.91-1.86,5.92-3.61,9.49,2.37,12.01.93,5.93.11,7.06.11,7.06-1.75.79-7.16,1.58-10.31.26-.32-3.1-1.51-5.49-2.37-6.86-.46-.73-.35-1.66.26-2.26,1.78-1.77,4.63-6.11,1.75-14.19-8.3-2.06-8.77,9.75-4.54,13.15.41.98.1,3.51.1,3.51-.71.71-5.52.47-6.96-.16.45-2.52-.4-4.54-1.59-5.62-.33-.3-.43-.77-.21-1.16,4.61-8.33-1.44-13.11-1.44-13.11,0,0-7.53-2.66-15.47,3.66-7.84,6.24-2.38,12.74-2.38,12.74,0,0,.31,1.95-.21,3.45-3.71.87-7.78.16-9.28-.56-.05-4.12,1.19-6.29,1.19-6.29,0,0,1.96-2.99,1.96-4.9,0-1.18.16-4.02.28-6.03.08-1.26.77-2.39,1.83-3.07,1.24-.79,2.74-2.06,2.89-3.63.26-2.74-2.63-4.8-.46-9.96,2.1-4.99,6.37-8.64,6.63-8.86-.54.12-11.76,2.57-12.67-6.19-.92-8.97,11.96-10.98,15.88-10.1,3.7.83,17.69.78,12.62-7.77-.33-.56.27-1.24.84-.93,3.17,1.71,2.61,5.83,1.91,6.54,1.06-.96,1.76-2.1,2.2-3.14.22-.51,1-.34.97.21-.18,4.03-2.79,7.63-7.3,8.8.57.42,1.76.88,2.83,1.19.52.15.49.89-.05,1-3.04.62-6.25-.48-8.76-2.13.89,1.21.5,2.68.07,3.62-.14.3-.58.25-.65-.07-.36-1.66-1.85-4.73-7.98-4.73-8.41,0-10.1,6.19-9.43,8.09.67,1.91,5.62,5.67,12.42,1.91s14.02,3.98,22.37-3.35c3.08-2.7,5.74-4.28,8.03-5.19-1.26-1.43-2.83-2.93-3.5-3.47.87-1.29,1.09-1.91-.31-4.22-1.39-2.33,2.99-4.23,4.64-5.26-1.91-.41-4.95-1.75-6.49-5.62-1.38-3.44.59-8.73,5.85-10.9.37-.15.66.35.35.6-4.24,3.52-3.49,7.03-1.1,9.1,2.69,2.32,5.42.87,5.42.87,3.46-3.51,7.58-2.37,9.28-2.42.77-.03,1.86-.4,2.82-.81,1.35-.57,2.89-.49,4.18.22.31.17.55.3.63.32,3.59-1.31,9.89-4.3,6.42-13.35-.16-.43.41-.74.68-.36,7.87,11.3-1.12,16.6-1.12,16.6,0,0,.46-.01,1.15.04,1.19.09,1.75,1.56.91,2.41-2.34,2.38-5.7,4.33-6.59,4.61,8.2,3.25,11.03,16.86,10.93,25.78-.11,8.92-2.63,15.2-4.95,19.17ZM77.28,41.12c-1.24,2.96-5.64,3.85-9.72,2.7-1.17,2.99,3.16,6.02,4.94,2.77.39,2.21,4.51,1.65,4.33-.61,2.56,1.04,3.75-3.42.45-4.87ZM60.71,35.27c-1.72,4.38,4.64,8.83,7.24,4.07.57,3.24,6.61,2.41,6.35-.89,3.75,1.53,5.53-5.85-.83-6.1.38,5.53-7.75,5.91-12.77,2.92ZM78.55,8.43c-.02,1.35-.48,2.6-1.16,3.68-.69,1.08-1.58,2.04-2.57,2.88-.98.85-2.07,1.59-3.19,2.27-1.13.67-2.3,1.29-3.53,1.82,1.33-.22,2.62-.66,3.84-1.25,1.22-.59,2.37-1.33,3.42-2.21,1.03-.89,1.96-1.95,2.59-3.19.64-1.23.91-2.68.6-4ZM66.35,16.85c2.93-.5,5.82-1.61,8.2-3.53,1.17-.97,2.2-2.18,2.79-3.62.61-1.42.68-3.03.32-4.47.04,1.49-.25,2.94-.91,4.2-.65,1.26-1.62,2.34-2.73,3.25-1.1.92-2.35,1.67-3.64,2.35-1.3.67-2.65,1.26-4.03,1.82ZM63.92,32.47c-1.14.1-2.31.18-3.5.43,1.13.43,2.28.7,3.47.85,1.18.14,2.41.18,3.67-.1.62-.13,1.25-.37,1.83-.73.29-.18.55-.43.81-.65.21-.28.46-.54.6-.85.64-1.25.51-2.6.09-3.71-.25,1.18-.56,2.28-1.17,3.01-.59.75-1.52,1.09-2.53,1.33-1.02.23-2.13.33-3.27.43ZM59.68,23.18c2.54-.27,4.33-1.99,4.06-3.71-1.86.07-3.3.82-4.06,3.71ZM52.64,34.62c-.3-.05-.6-.03-.89-.02l-.88.05c-.58.1-1.14.23-1.7.35.58.04,1.15.08,1.71.1.55.12,1.12.12,1.63.31,1.07.23,1.92.83,2.49,1.62,1.14,1.61,1.3,4.15,3.05,6.16.42.5.97.88,1.5,1.24.58.28,1.18.58,1.64.76,1,.4,1.92.94,2.74,1.61,1.63,1.34,2.82,3.31,3.11,5.6.42-2.29-.52-4.82-2.24-6.54-.84-.9-1.89-1.55-2.97-2.09-.59-.27-1-.49-1.45-.72-.4-.29-.8-.56-1.1-.95-.67-.72-1.11-1.67-1.54-2.71-.46-1.02-.87-2.19-1.74-3.16-.85-.99-2.15-1.56-3.35-1.61ZM49.58,28.75c1.44.62,3.23-.62,3.09-2.2-1.03-.55-3.02-.21-3.09,2.2ZM44.58,15.99c.85,1.09,2.04,1.88,3.33,2.27,1.29.41,2.66.41,3.93.14-1.31-.05-2.57-.27-3.72-.75-1.14-.48-2.17-1.21-2.9-2.17-.74-.95-1.19-2.13-1.22-3.35-.02-1.22.35-2.46.99-3.6-.89.94-1.54,2.21-1.63,3.58-.11,1.37.37,2.78,1.21,3.87ZM50.61,20.33c-1.06-.16-2.04-.49-2.97-.91-.92-.44-1.78-.99-2.52-1.67-.75-.66-1.38-1.46-1.79-2.36-.41-.9-.59-1.93-.45-2.99-.45.97-.51,2.16-.15,3.22.34,1.07,1.03,2,1.84,2.75,1.64,1.46,3.9,2.3,6.04,1.97ZM34.38,52.47c-4.03-2.06-8.12,5.25-4.29,7.71-3.52,2.1-.31,7.31,3.21,6.67,1.25-.23,3.08-1.27,3.49-3.34-.41.27-1.36.73-2.11.49l.32-1.63-1.19.85.85-1.95s-1.58,1.44-1.72,1.54c-.14.11,1.46-2.49,1.46-2.49l-1.31.83,1.33-1.85-.99.32,1.03-1.38-1.91.87,2.2-2.18-1.96.7,2.66-2.11s-1.79.58-2.19.78c-.4.21,2.94-2.02,2.94-2.02,0,0-2.25.51-2.36.52-.11.02,3.37-1.78,3.46-1.83.09-.05-1.87.42-2.12.4s2.92-1.39,2.92-1.39l-1.95.12,2.85-.93-1.82-.14,2.72-.94-1.31-.29,3.29-.81-2.76-.7s2.56-.51,5.23,0c-2.68-7.05-13.05-2.62-9.98,4.18ZM21.76,57.97c-3.46,2.09,1.38,7.93,5.38,2.98-4.66-3-.1-9.75,5.29-11.99-2.49-4-9.85-1.56-7.59,3.38-2.94-1.48-5.89,3.85-3.09,5.63ZM12.56,59.1c.44-2.25,1.49-4.34,2.86-6.21.67-.95,1.43-1.84,2.22-2.71.76-.89,1.59-1.73,2.39-2.6-1.83,1.49-3.6,3.07-5.1,4.93-.76.92-1.43,1.93-1.98,3-.54,1.08-.93,2.24-1.19,3.42-.25,1.18-.36,2.39-.36,3.58l-.02,1.74c-.06.57-.1,1.14-.23,1.69-.44,2.22-1.79,4.34-3.91,5.41,1.13-.36,2.11-1.13,2.9-2.04.76-.94,1.3-2.06,1.62-3.23.18-.58.26-1.19.33-1.79l.08-1.79c.02-1.16.13-2.31.38-3.43ZM18.62,55.77c.74-.04.54-.99-.21-.8.35-.7-.61-.95-.67-.37-.39-.75-1.06-.09-.68.46-.77-.38-.99.52-.25.78-.88.42.19,1.23.59.45-.08.16-.12.7.32.74s.48-.33.39-.83c.05.24.47.72.73.23.27-.48-.22-.66-.22-.66ZM15.88,62.14c-.43.13-1.22.96-.3,1.37.92.4,1.17-.51,1.17-.51.2,1.34,1.89.81,1.42-.5,1.33.52,1.63-1.27.57-1.28,1.29-.83,0-1.93-.94-1.16.56-1.46-1.1-1.71-1.45-.32-.91-1.53-2.2.55-.72,1.15-.31-.12-1.29-.1-1.3.7,0,.81.67.81,1.56.57ZM38.99,71.5c-1.06.22-2.1.22-3.08-.03-.98-.22-1.9-.68-2.8-1.17-1.8-1.01-3.57-2.23-5.59-3.15-1.02-.44-2.09-.82-3.2-1.02-1.12-.19-2.27-.25-3.39-.07-2.25.33-4.27,1.37-5.92,2.75,2-.8,4.02-1.41,6.03-1.47,2.01-.06,3.96.46,5.81,1.31,1.88.81,3.67,1.97,5.71,2.8,1.02.42,2.11.76,3.25.81,1.13.04,2.27-.21,3.19-.77ZM45.49,77.7c-.25-2.2-1.01-4.3-1.93-6.27-.94-1.97-2.04-3.84-3.08-5.72-.52-.94-1-1.9-1.35-2.9-.38-.99-.57-2.06-.41-3.14-.34,1.04-.24,2.19.03,3.25.28,1.07.71,2.08,1.17,3.07.92,1.98,2,3.84,2.9,5.78.92,1.93,1.66,3.93,2.04,6.01.39,2.09.27,4.25-.23,6.35.42-1,.69-2.07.85-3.15.14-1.09.13-2.2,0-3.29ZM59.07,71.85c-.11-.59-.3-1.19-.69-1.74-.38-.54-1.03-.99-1.76-1.08-.73-.09-1.41.08-2.04.45-.32.2-.64.49-.83.9-.22.4-.21.88-.11,1.27.13.38.32.72.59.96.12.14.28.23.42.33.16.09.32.16.49.21.34.09.71.12,1.04,0,.17-.03.3-.16.44-.24.12-.1.22-.24.31-.35.03-.03.03-.09,0-.12-.03-.02-.06-.03-.09-.01h-.01c-.52.26-.99.15-1.33-.08-.34-.25-.57-.66-.6-.97.02-.15.01-.27.1-.35.05-.1.18-.19.34-.28.34-.17.79-.3,1.18-.33.39-.04.81.06,1.2.34.38.27.69.72.83,1.22.14.5.12,1.05-.08,1.51-.1.23-.24.42-.42.59-.18.17-.4.32-.62.43-.89.45-1.87.42-2.56.01-.35-.21-.65-.52-.88-.9-.08-.14-.31-.5-.53-.77-.12-.13-.25-.25-.38-.38-.14-.11-.28-.22-.42-.32-.59-.38-1.27-.61-1.98-.64-.7-.03-1.44.13-2.04.57-.6.43-.95,1.11-1.05,1.74-.13.64,0,1.25.16,1.8.01.04.06.07.1.06.03,0,.05-.03.06-.06h0c.12-.57.22-1.11.48-1.53.24-.43.55-.74.92-.89.74-.3,1.67-.07,2.34.42.08.07.17.12.24.19.07.07.14.15.22.22.13.16.22.27.45.59.41.54.95,1.02,1.61,1.3.65.29,1.39.37,2.06.23.67-.14,1.26-.49,1.73-.92.24-.21.44-.46.62-.71.18-.26.33-.56.42-.86.18-.6.17-1.21.07-1.81ZM60.71,55.34c6.08-3.66.82-9.24-4.3-5.22,1.01-8.05-9.42-4.16-5.81,2.1-.78-1.28-4.35-3.98-6.63-1.1-2.29,2.88.14,4.8,4.03,6.4-1.92-.73-7.09.05-4.89,4.07,2.2,4.03,5.63,1.42,5.63,1.42-3.02,5.35,4.53,8.19,6.5,2.15,3.34,5.58,9.38,0,5.63-3.02,6.95.64,5.4-6.95-.14-6.82ZM73.17,58.03c-.26-2.06-1.05-4.04-2.28-5.64.63,1.92.99,3.83,1.01,5.73,0,1.9-.28,3.79-.81,5.62-.51,1.84-1.27,3.61-2.13,5.35-.88,1.73-1.9,3.41-3.01,5.09,1.61-1.21,2.98-2.75,4.12-4.44,1.14-1.69,2.03-3.57,2.61-5.55.55-1.99.79-4.1.51-6.16ZM75.87,51.86c.23,1.33,2.71.99,2.61-.37,1.54.63,2.26-2.06.27-2.93-.74,1.78-3.39,2.32-5.85,1.63-.7,1.8,1.9,3.63,2.97,1.67ZM77.01,57.44c.44.04.48-.33.39-.83.05.24.47.72.73.23.27-.48-.22-.66-.22-.66.74-.04.54-.99-.21-.8.35-.7-.61-.95-.67-.37-.39-.75-1.06-.09-.68.46-.77-.38-.99.52-.25.78-.88.42.19,1.23.59.45-.08.16-.12.7.32.74ZM63.11,56.88c-.54-.4-1.28-.58-1.87-.34.62.12,1.09.43,1.45.82.36.4.62.88.75,1.38.14.5.13,1.02-.09,1.46-.21.45-.66.81-1.22,1.11.61.03,1.32-.18,1.76-.76.45-.57.51-1.36.34-2.02-.18-.66-.57-1.26-1.13-1.65ZM44.51,60.91c-.2-.48-.26-.99-.11-1.46.15-.48.55-.89,1.06-1.26-.61.05-1.28.36-1.64.99-.37.63-.32,1.42-.06,2.05.27.63.74,1.17,1.34,1.49.59.33,1.34.4,1.9.08-.63-.03-1.14-.28-1.55-.62-.41-.35-.74-.78-.93-1.27ZM48.03,51.35c-.4-.47-1.04-.83-1.76-.75-.73.07-1.34.56-1.7,1.14-.35.59-.52,1.28-.43,1.95.08.67.46,1.33,1.04,1.59-.34-.53-.44-1.09-.4-1.62.04-.53.21-1.06.49-1.49.27-.44.65-.79,1.12-.94.47-.16,1.04-.07,1.64.12Z"/>
</svg>