<?xml version="1.0" encoding="UTF-8"?>
<svg id="Layer_1" data-name="Layer 1" xmlns="http://www.w3.org/2000/svg" viewBox="0 0 121.6 83.11">
  <defs>
    <style>
      .cls-1 {
        fill: #d13100;
        stroke-width: 0px;
      }
    </style>
  </defs>
  <path class="cls-1" d="M59.49,44.39c.43.2.71.7.76,1.2.06.5-.07,1.02-.33,1.45-.27.43-.74.79-1.28.84-.54.05-1.02-.22-1.31-.58.45.15.87.22,1.22.1.35-.11.64-.37.84-.69.21-.32.34-.71.38-1.11.03-.4-.03-.81-.28-1.21ZM60.81,41.5l-3.17.62,1.55.83-1.71-.45,1.56.84-1.67-.44,2.2,2.81-2.51-2.13,2.03,2.59-2.17-1.84,1.75,2.24-2.51-2.13,2.02,2.59-2.78-2.36-1.17,3.47.4-3.26-1.05,3.11.35-2.82-.91,2.69.4-3.26-1.05,3.11.46-3.7s-.07-.05-.1-.07l-3.34,1.44,2.69-1.89-3.02,1.3,2.33-1.63-2.61,1.12,2.69-1.89-3.02,1.3,2.9-2.03-3.22-1.37,3.22.65-3.02-1.29,2.78.56-2.61-1.11,3.22.65-3.02-1.29,3.25.66-.44-3.08,1.11,2.63-.4-2.82.96,2.27-.35-2.44,1.11,2.63-.4-2.82,1.26,2.98s.02,0,.04,0l2.39-2.32-1.55,2.43,2.07-2.01-1.34,2.1,1.79-1.73-1.53,2.41h0l2.05-1.99-1.57,2.47h3.53l-2.97.58h3.02l-2.56.5h2.61l-2.97.58h3.02ZM55.68,39.19c-1.27-.66-2.83-.16-3.48,1.1-.66,1.27-.16,2.83,1.1,3.48,1.27.66,2.83.16,3.48-1.1.66-1.27.16-2.83-1.1-3.48ZM71.63,36.69c.56-.36.72-1.1.36-1.66-.36-.56-1.1-.72-1.66-.36-.56.36-.72,1.1-.36,1.66.36.56,1.1.72,1.66.36ZM61.1,39.08c-.41-.29-.97-.4-1.4-.21.46.07.82.3,1.1.58.27.29.48.64.59,1.01.11.37.12.76-.03,1.09-.15.34-.48.62-.88.85.46.01.98-.17,1.3-.61.32-.44.35-1.03.21-1.51-.15-.49-.46-.92-.88-1.21ZM48.23,46.23c-.34-.21-.63-.5-.82-.83-.2-.33-.3-.7-.24-1.07.06-.37.31-.71.64-1.05-.45.1-.91.4-1.1.91-.21.5-.09,1.08.17,1.52.27.44.67.78,1.15.95.47.18,1.04.15,1.41-.14-.47.04-.87-.08-1.21-.29ZM50.9,35.31c.25-.34.58-.62.95-.79.36-.18.77-.26,1.14-.16.38.09.73.39,1.05.77-.07-.48-.35-.99-.86-1.24-.51-.26-1.13-.18-1.61.05-.48.25-.88.64-1.1,1.13-.23.48-.25,1.08.03,1.5,0-.5.16-.91.41-1.25ZM56.83,35.64c.39-.1.8-.11,1.17-.02.38.08.72.27.94.56.23.3.31.72.32,1.19.23-.39.33-.94.1-1.43-.22-.5-.73-.81-1.22-.92-.5-.1-1.03-.05-1.48.18-.45.22-.82.65-.87,1.12.29-.37.66-.57,1.04-.68ZM54.09,48.7c-.37.15-.77.22-1.16.18-.39-.03-.75-.17-1.01-.43-.26-.26-.4-.67-.47-1.13-.18.42-.2.97.1,1.43.29.46.83.7,1.33.74.51.04,1.03-.09,1.44-.38.42-.28.73-.75.71-1.23-.24.41-.57.66-.94.81ZM79.01,45.94l-1.95-.17,1.85.62-1.68-.15,1.6.54-1.93-.17h0l1.84.62-1.97-.18,1.09,2.13-1.27-1.61.94,1.82-1.1-1.39.81,1.57-1.27-1.61.94,1.82-1.36-1.72-.02,1.19-.26-1.17-.02,1.2-.26-1.15-1.01,2.2.5-2.17-.93,2.03.43-1.88-.8,1.75.5-2.17-.93,2.03.55-2.41-2.46.38,2.09-.78-2.21.34,1.81-.67-1.9.29,2.09-.78-2.21.34,2.37-.88s0-.06.01-.08l-1.91-1.56,1.98,1.03-1.73-1.41,1.71.89-1.49-1.22,1.98,1.03-1.73-1.41,2.13,1.11-.18-2.37.61,2.14-.17-2.22.53,1.85-.15-1.92.61,2.14-.17-2.22.62,2.16,1.72-1.23-1.24,1.49,1.58-1.13-1.07,1.29,1.36-.97-1.24,1.49,1.58-1.13-1.4,1.69s0,.02,0,.02l2.14.72ZM76.7,45.96c0-.97-.78-1.75-1.75-1.75s-1.75.78-1.75,1.75.78,1.75,1.75,1.75,1.75-.78,1.75-1.75ZM47.68,37.46c.32-.19.75-.22,1.21-.18-.37-.28-.89-.43-1.41-.26-.52.17-.88.63-1.05,1.11-.16.49-.17,1.02.01,1.49.17.47.55.89,1.02.99-.34-.33-.5-.72-.56-1.11-.05-.39-.02-.8.11-1.17.12-.37.34-.68.66-.87ZM94.18,39.41c-.76.44-1.54.53-2.28.44-.74-.1-1.45-.36-2.04-.78-.6-.4-1.05-.96-1.23-1.62-.18-.67-.03-1.45.28-2.27-.68.52-1.23,1.38-1.17,2.39.04,1.01.69,1.9,1.46,2.44.79.53,1.74.81,2.68.73.93-.06,1.87-.54,2.28-1.33ZM98.79,38.26c.18.82.04,1.55-.26,2.2-.3.64-.75,1.22-1.3,1.63-.54.43-1.18.68-1.83.65-.66-.03-1.33-.4-1.99-.92.27.77.91,1.52,1.84,1.76.93.26,1.93-.08,2.65-.63.72-.57,1.24-1.35,1.44-2.23.22-.86.05-1.86-.55-2.47ZM85.45,29.13c.13-1.88,1.01-3.4,2.42-4.43-2.03.37-3.44,1.95-3.63,4.33-.16,2.47,2.13,4.45,3.07,4.41-1.45-.84-2-2.76-1.86-4.31ZM119.16,29.86c-2.82.89-6.26.86-6.43-2.47-.26-4.93-6.44-1.64-9.39-8.8-5.65,17.01,3.68,20.17-1.31,26.08,0,0,6.47,2.71,11.29,1.38.83-.23,1.71.14,2.14.88.65,1.11,1.03,2.11,1.25,2.92.3,1.11-.09,2.28-.95,3.04-1.14,1-2.66,3.13-2.7,7.34-.07,6.77-4.47,9.46-5.39,10.25,2.02,2.07,4.33,4.4,6.87,4.19.71-.06,1.39.31,1.71.95,1.56,3.09,1.67,4.45,1.67,4.45,0,0-4.4,1.71-7.69,1.38,0,0-4.53-2.36-5.85-5.91-1.31-3.55-9.26-20.17-17.41-22.47-11.82,3.88-20.3,1.71-23.06.26,1.79,3.22.2,7.56-1,10.01-.63,1.28-.54,2.78.23,3.98,1.9,2.92,5.65,7.95,9.49,8.87,1.79.43,3.14,1.92,3.58,3.7.31,1.25.38,2.21.38,2.21,0,0-6.9,2.56-12.35-.53-1.13-4.95-5.24-11.5-8.09-14.43-.66-.68-.91-1.67-.65-2.57,1.35-4.59-2.6-11.36-5.38-13.02-.93,5-8.28,9.79-13.97,11.65-1.5.49-2.63,1.72-2.97,3.26-.98,4.38.07,8.13,1.44,9.01,1.64,1.05,2.23,4.73,1.64,6.31-3.48.99-7.75-.39-8.28-.85-.61-1.53-1.8-2.82-2.41-3.94-.4-.72-.22-1.59.38-2.15,2.86-2.67,5.52-10.05,5.63-14.95.02-.94.48-1.82,1.21-2.42,5.08-4.09,5.31-5.51,5.31-5.51,0,0-2.43-8.08,2.63-14.52-7.62,7.75-23.91,3.09-23.71,19.12-1.58-5.32-.39-10.05,4.66-13.73-6.04,1.71-10.71,8.01-11.43,13.79-1.31-4.4,2.3-12.48,6.7-15.31-7.23,3.61-10.31,8.67-11.63,13.73-.99-3.94,2.43-10.25,5.19-12.02-6.7,1.9-9.72,6.44-10.51,8.15,3.81-11.56,14.71-15.44,19.18-15.5,4.47-.07,6.77,1.97,12.42-2.43,5.65-4.4,12.15-2.63,13.01-2.1,5.06-3.88,11.04-5.32,19.44-2.5,8.41,2.82,15.37-2.56,15.37-2.56,0,0-6.9-1.18-.72-5.45,6.17-4.27-2.53-3.31,3.02-6.77,7.49-4.66-1.51-5.12,3.42-7.16s11.17-1.51,9.2-3.81,6.5-3.55,14.71-.79c1.51.39,4.07-.79,4.66-2.1.39,1.25-.85,3.02-.85,3.02,0,0,1.31-.85,3.28-1.12-1.45,1.51-3.02,4.01-3.02,4.01,0,0,3.28,3.48,4.07,8.8.53,3.61,2.7,7.46,4.06,10.28.93,1.92-.06,4.22-2.1,4.86ZM43.71,36.71c-.95,1.42-1.73,2.97-2.2,4.62-.46,1.63-.7,3.43-.12,5.05-.12-.84-.12-1.66.05-2.48.05-.41.18-.81.26-1.21.11-.4.26-.78.38-1.17.58-1.54,1.35-3.01,2.28-4.37.92-1.36,2.01-2.61,3.24-3.69.61-.56,1.29-1.03,1.99-1.46.36-.2.71-.43,1.09-.61.38-.16.77-.33,1.15-.51-.41.1-.82.2-1.23.31-.4.13-.79.31-1.19.46-.76.38-1.51.81-2.19,1.33-1.38,1.02-2.54,2.32-3.51,3.72ZM32.04,40.45c-1.61.2-3.19.32-4.78.71-.79.21-1.58.46-2.31.85-.73.38-1.42.9-1.88,1.59,1.36-.89,2.85-1.29,4.38-1.67.76-.2,1.54-.37,2.32-.59.77-.22,1.56-.47,2.27-.89ZM39.26,35.36l-.05-.06c-1.84,1.08-3.73,1.88-5.71,2.57-.98.36-1.97.73-3,.98-1.03.25-2.07.39-3.13.51-2.1.23-4.22.56-6.27,1.24-2.03.71-3.99,1.84-5.35,3.51l.05.06c1.69-1.29,3.58-2.16,5.56-2.77,1.97-.66,4.03-1.09,6.08-1.62,1.03-.26,2.06-.5,3.1-.69.52-.11,1.05-.17,1.57-.27.52-.11,1.05-.2,1.57-.33,2.06-.58,4.05-1.61,5.56-3.13ZM42.52,33.1l.02-.08c-1.53-.6-3.21-.93-4.9-.73-1.69.19-3.28.93-4.64,1.88-1.37.95-2.54,2.1-3.94,2.93-.36.18-.7.41-1.09.53l-.57.21c-.19.05-.39.08-.59.12-.78.18-1.59.07-2.4,0-1.62-.19-3.26-.4-4.92-.4-1.66-.01-3.35.16-4.96.63-3.23.96-6.04,2.91-8.39,5.19l.05.06c2.67-1.89,5.48-3.6,8.57-4.44,1.54-.43,3.13-.66,4.74-.7,1.61-.04,3.24.05,4.89.09.81.02,1.67.04,2.49-.15.2-.05.41-.09.61-.15l.58-.23c.4-.13.75-.35,1.12-.53,1.45-.79,2.79-1.78,4.17-2.6,1.37-.85,2.8-1.56,4.37-1.83,1.56-.29,3.18-.12,4.79.2ZM46.38,50.25c-.14.94-.61,1.72-1.14,2.45-.54.72-1.17,1.38-1.85,1.98-.67.62-1.4,1.17-2.13,1.73-.75.54-1.52,1.05-2.3,1.6,1.83-.51,3.53-1.46,4.96-2.74.71-.65,1.36-1.38,1.84-2.23.48-.83.82-1.83.62-2.78ZM62.04,57.16c-.17-1.04-.47-2.07-.99-3-.5-.93-1.19-1.75-1.99-2.4.58.86,1.06,1.74,1.44,2.66.38.92.62,1.88.77,2.86.16.98.2,1.97.18,2.97-.04,1-.11,2.01-.35,3.01.53-.9.82-1.92.96-2.96.15-1.04.14-2.1-.02-3.14ZM59.37,38.5c2.81-4.38-2.75-5.96-4.56-2.25-.34-5.28-5.84-3.72-4.93,1.06-4.99-3.43-5.99,4.81-.6,4.57-1.12.08-4.13,1.51-3,4.02,1.12,2.5,3.23,1.56,5.62-.47-1.14,1.02-2.4,4.71,1.02,4.64,3.42-.07,2.87-3.24,2.87-3.24,2.51,3.84,6.98-.19,3.65-3.56,4.84-.3,3.22-6.21-.07-4.76ZM96.63,3.02c1.65.03,3.25-.06,4.84-.04,1.6,0,3.16.07,4.75.5-.65-.52-1.46-.82-2.27-1.01-.81-.2-1.65-.26-2.47-.28-.83,0-1.65.06-2.46.2-.81.13-1.62.32-2.38.63ZM87.73,7.4c1.23-.2,2.45-.37,3.66-.54,1.22-.16,2.43-.31,3.65-.41,1.22-.11,2.43-.15,3.65-.16,1.22.02,2.44.08,3.67.23-1.16-.44-2.4-.72-3.64-.84-1.25-.11-2.5-.11-3.75-.01-2.48.23-4.95.75-7.24,1.73ZM98.48,25.29c.05-1.35.22-2.69.58-3.98.37-1.29.9-2.55,1.57-3.76-.92,1.04-1.67,2.25-2.15,3.58-.51,1.32-.72,2.74-.79,4.14-.05,1.41.07,2.81.3,4.18.2,1.38.61,2.69.73,4.07.18-1.39-.03-2.78-.12-4.14-.11-1.37-.19-2.72-.13-4.07ZM86.05,11.18c1.02-.33,2.04-.63,3.05-.94,1.02-.29,2.03-.57,3.05-.8,1.02-.24,2.05-.41,3.09-.56,1.04-.12,2.09-.18,3.17-.18-1.03-.3-2.12-.45-3.21-.43-1.09.02-2.17.17-3.22.4-2.1.5-4.15,1.29-5.93,2.5ZM96.23,35.8c.61-.7.85-1.69.86-2.62.02-.94-.15-1.85-.33-2.74-.39-1.78-.85-3.45-.99-5.28-.25.89-.28,1.83-.2,2.74.07.92.25,1.82.43,2.7.19.88.38,1.74.48,2.61.09.86.07,1.73-.24,2.6ZM81.89,15.27c2.21-.8,4.38-1.61,6.58-2.31,1.1-.35,2.21-.66,3.33-.95,1.12-.26,2.26-.49,3.42-.67-1.17-.13-2.36-.1-3.54.07-1.17.17-2.32.45-3.45.8-2.24.73-4.41,1.7-6.34,3.06ZM81.85,19.06c.94-.53,1.87-1.03,2.8-1.53.94-.49,1.87-.96,2.83-1.39.95-.44,1.93-.81,2.92-1.16,1-.32,2.01-.6,3.07-.81-1.07-.09-2.17-.01-3.23.22-1.06.24-2.09.6-3.08,1.04-1.96.91-3.8,2.1-5.31,3.64ZM84.58,20.32c1.01-.57,2.04-1.09,3.07-1.59,1.05-.48,2.11-.94,3.22-1.34-1.17.11-2.34.38-3.45.78-1.11.4-2.19.91-3.22,1.47-2.05,1.17-3.98,2.55-5.6,4.27,2.01-1.22,3.97-2.45,5.99-3.58ZM78.8,33.96c-1.88.71-.7,4.25,1.26,3.72-.49,2.43,3.65,2.74,4.37-.42-2.81-.6-4.94-5.4-3.17-7.7-2.83-.53-5.62,3.37-2.46,4.4ZM67.33,40.53c-.21-.84-.36-1.7-.76-2.47-.29-.81-.8-1.51-1.27-2.21-.5-.68-1.12-1.26-1.71-1.82.32.78.76,1.46,1.05,2.21.28.75.61,1.46.78,2.23.24.74.32,1.51.44,2.26.02.76.09,1.52,0,2.28-.12,1.52-.48,3.03-1.04,4.5-.57,1.47-1.28,2.9-2.13,4.33,1.35-.99,2.42-2.33,3.25-3.8.82-1.48,1.37-3.16,1.5-4.89.1-.87,0-1.74-.09-2.6ZM70.09,37.55c-.19.4-.3,1.72.79,1.83,1.08.11,1.17-.8.95-2.02.12.59,1.14,1.76,1.79.57.65-1.19-.55-1.63-.55-1.63,1.81-.1,1.31-2.43-.5-1.96.85-1.72-1.5-2.33-1.65-.92-.95-1.83-2.59-.23-1.67,1.12-1.88-.93-2.43,1.27-.61,1.9-2.16,1.04.47,3.01,1.45,1.11ZM78.2,44.52c3.08-1.85.42-4.68-2.18-2.64.51-4.07-4.77-2.11-2.94,1.07-.39-.65-2.2-2.01-3.36-.56-1.16,1.46.07,2.43,2.04,3.24-.97-.37-3.59.02-2.48,2.06,1.11,2.04,2.85.72,2.85.72-1.53,2.71,2.29,4.14,3.29,1.09,1.69,2.82,4.75,0,2.85-1.53,3.52.32,2.73-3.52-.07-3.45ZM84.75,47.72c.56-1.12-.97-1.52-1.07-.6-.62-1.19-1.69-.15-1.09.73-1.22-.6-1.58.83-.4,1.24-1.41.67.31,1.96.94.72-.13.26-.19,1.12.51,1.19.7.07.76-.52.62-1.32.08.39.74,1.14,1.17.37.42-.77-.36-1.06-.36-1.06,1.18-.07.85-1.58-.33-1.27ZM91.71,44.09c-1.91,1.06-5.52-.64-5.65-2.85-1.89,1.1-1.55,4.73.77,3.75-.73,1.35,1.71,2.79,2.57,1.51.93,1.64,3.45-.24,2.3-2.41ZM99.82,41.67c.36-1.16.27-3.18-1.31-4.43.05.47.02,1.48-.51,2.01l-1.25-.99.2,1.38-1.28-1.58s.53,1.97.56,2.14c.03.16-1.48-2.33-1.48-2.33l.13,1.48-.99-1.94-.16.99-.72-1.48-.1,2-.89-2.82-.26,1.97-.62-3.19s-.3,1.77-.3,2.2-.43-3.38-.43-3.38c0,0-.56,2.13-.59,2.23-.03.1-.03-3.65-.03-3.74s-.46,1.77-.59,1.97c-.13.2.1-3.09.1-3.09l-.76,1.71.46-2.82-.92,1.48.39-2.73-.82.99.76-3.15-1.81,2.04s.69-2.4,2.3-4.43c-7.16-.82-7.95,9.93-.83,10.31-3.51,2.52.9,9.2,4.67,7.02.24,3.91,6.07,3.47,7.07.2ZM96.76,49.27c.95-.19,1.78-.67,2.51-1.26.36-.31.7-.64.97-1.04.27-.39.52-.82.59-1.31-.71.63-1.38,1.17-2.07,1.75-.33.29-.68.57-1.02.88-.34.3-.68.61-.99.99ZM98.4,52.35s1.64,7.29,5.52,11.96c.79-.92,6.17-7.88,6.57-12.42-2.36,1.12-7.49,1.58-12.09.46ZM107.07,9.16c-.98-.31-2.09-.31-3.14.13-1.04.44-1.9,1.37-2.31,2.42-.43,1.05-.49,2.19-.27,3.25.23,1.04.73,2.07,1.58,2.68-.3-.99-.38-1.9-.35-2.8.03-.9.19-1.76.5-2.53.31-.77.78-1.43,1.46-1.94.68-.52,1.55-.85,2.53-1.2ZM110.42,10.84c-.39,1.77.07,2.96,1.77,3.61.59-.79.59-3.55-1.77-3.61ZM119.82,25.98c0-.6-.49-1.08-1.08-1.08s-1.08.49-1.08,1.08.49,1.08,1.08,1.08,1.08-.49,1.08-1.08Z"/>
</svg>