<?xml version="1.0" encoding="UTF-8"?>
<svg id="Layer_1" data-name="Layer 1" xmlns="http://www.w3.org/2000/svg" viewBox="0 0 20.64 20.71">
  <metadata><?xpacket begin="﻿" id="W5M0MpCehiHzreSzNTczkc9d"?>
<x:xmpmeta xmlns:x="adobe:ns:meta/" x:xmptk="Adobe XMP Core 9.1-c001 79.a8d4753, 2023/03/23-08:56:37        ">
   <rdf:RDF xmlns:rdf="http://www.w3.org/1999/02/22-rdf-syntax-ns#">
      <rdf:Description rdf:about=""
            xmlns:xmp="http://ns.adobe.com/xap/1.0/"
            xmlns:xmpMM="http://ns.adobe.com/xap/1.0/mm/"
            xmlns:stEvt="http://ns.adobe.com/xap/1.0/sType/ResourceEvent#">
         <xmp:MetadataDate>2024-11-30T18:37:14-03:00</xmp:MetadataDate>
         <xmp:Rating>5</xmp:Rating>
         <xmpMM:InstanceID>xmp.iid:ae637b7c-105c-d642-9a5c-1f95d57825a9</xmpMM:InstanceID>
         <xmpMM:DocumentID>xmp.did:41197ea4-5c19-2c4a-a009-9a058f1d02f5</xmpMM:DocumentID>
         <xmpMM:OriginalDocumentID>xmp.did:41197ea4-5c19-2c4a-a009-9a058f1d02f5</xmpMM:OriginalDocumentID>
         <xmpMM:History>
            <rdf:Seq>
               <rdf:li>
                  <rdf:Description>
                     <stEvt:action>saved</stEvt:action>
                     <stEvt:instanceID>xmp.iid:41197ea4-5c19-2c4a-a009-9a058f1d02f5</stEvt:instanceID>
                     <stEvt:when>2024-11-30T18:34:38-03:00</stEvt:when>
                     <stEvt:softwareAgent>Adobe Bridge 2024</stEvt:softwareAgent>
                     <stEvt:changed>/metadata</stEvt:changed>
                  </rdf:Description>
               </rdf:li>
               <rdf:li>
                  <rdf:Description>
                     <stEvt:action>saved</stEvt:action>
                     <stEvt:instanceID>xmp.iid:ae637b7c-105c-d642-9a5c-1f95d57825a9</stEvt:instanceID>
                     <stEvt:when>2024-11-30T18:37:14-03:00</stEvt:when>
                     <stEvt:softwareAgent>Adobe Bridge 2024</stEvt:softwareAgent>
                     <stEvt:changed>/metadata</stEvt:changed>
                  </rdf:Description>
               </rdf:li>
            </rdf:Seq>
         </xmpMM:History>
      </rdf:Description>
   </rdf:RDF>
</x:xmpmeta>
                                                                                                    
                                                                                                    
                                                                                                    
                                                                                                    
                                                                                                    
                                                                                                    
                                                                                                    
                                                                                                    
                                                                                                    
                                                                                                    
                                                                                                    
                                                                                                    
                                                                                                    
                                                                                                    
                                                                                                    
                                   
<?xpacket end="w"?></metadata>
<defs>
    <style>
      .cls-1 {
        fill: #d13100;
        stroke-width: 0px;
      }
    </style>
  </defs>
  <path class="cls-1" d="M4.14,14.82c0,.07,0,.17-.02.24-.49,1.62-1.51,3.53-2.38,4.71-.19.26-.47.4-.75.4-.19,0-.38-.05-.54-.16-.28-.19-.45-.47-.45-.75,0-.17.07-.35.19-.52.82-1.03,1.76-2.85,2.21-4.14.14-.38.42-.56.78-.56.14,0,.28.02.45.09.33.14.52.4.52.71ZM18.54,11.41c1.46,0,2.09.68,2.09,1.98v.21c-.09,1.88-.4,3.93-.87,5.22-.45,1.29-1.29,1.88-2.71,1.88-.8,0-1.69-.07-2.42-.24-.31-.07-.52-.38-.52-.75,0-.09,0-.19.02-.28.09-.47.38-.68.68-.68.05,0,.09,0,.14.02.54.14,1.18.24,1.79.24.8,0,1.18-.31,1.41-.94.38-1.06.64-2.8.68-4.21v-.12c0-.56-.19-.75-.85-.75H4.52c-1.27,0-1.95-.57-1.95-1.81V1.81c0-1.25.68-1.81,1.95-1.81h14.61c.42,0,.64.33.64.8s-.21.82-.64.82h-7.15v2.24h6.07c.42.09.61.33.61.8,0,.4-.19.78-.61.78h-6.07v2.09h6.05c.42,0,.61.33.61.8,0,.4-.19.78-.61.78h-6.05v2.31h6.56ZM10.28,3.86V1.62h-5.32c-.45,0-.66.12-.66.59v1.65h5.98ZM4.31,7.53h5.98v-2.09h-5.98v2.09ZM4.31,10.85c0,.45.21.56.66.56h5.32v-2.31h-5.98v1.74ZM6.96,14.26c.38,0,.64.21.73.59.28,1.06.56,2.71.64,3.98v.07c0,.45-.21.7-.8.78h-.19c-.52,0-.78-.26-.82-.75-.07-1.11-.28-2.57-.52-3.76-.02-.07-.02-.12-.02-.17,0-.4.28-.61.71-.71.09-.02.19-.02.28-.02ZM10.82,14.12c.31,0,.52.14.68.45.49.99,1.01,2.33,1.27,3.36v.14c0,.35-.19.66-.61.78-.12.02-.21.05-.33.05-.33,0-.64-.17-.73-.52-.28-1.06-.73-2.35-1.13-3.29-.02-.09-.05-.19-.05-.26,0-.33.26-.56.56-.66.12-.02.24-.05.33-.05ZM14.71,13.88c.24,0,.45.12.61.35.54.78,1.06,1.74,1.37,2.54.02.09.05.19.05.28,0,.31-.21.57-.49.68-.14.07-.28.09-.45.09-.26,0-.54-.12-.66-.42-.31-.75-.78-1.69-1.2-2.49-.07-.09-.09-.21-.09-.31,0-.26.19-.47.45-.61.14-.07.28-.12.42-.12Z"/>
</svg>