<?xml version="1.0" encoding="UTF-8"?>
<svg id="Layer_1" data-name="Layer 1" xmlns="http://www.w3.org/2000/svg" viewBox="0 0 99.49 76.98">
  <defs>
    <style>
      .cls-1 {
        fill: #d13100;
        stroke-width: 0px;
      }
    </style>
  </defs>
  <path class="cls-1" d="M38.32,31.9s0-.02,0-.03l2.37-.95-2.24.28,2.09-.84-1.93.24,1.81-.73-2.24.28,2.09-.84-2.44.3.57-2.56-1.06,2.37.56-2.54-.92,2.05.49-2.19-1.06,2.37.56-2.54-1.13,2.53-1.56-2.32.98,2.41-1.45-2.16.85,2.08-1.25-1.86.98,2.41-1.45-2.16,1.09,2.66s-.04.05-.06.08l-2.92-.42,2.45.88-2.57-.37,2.11.76-2.22-.32,2.45.88-2.57-.37,2.73.98-1.91,2.16,2.08-1.56-1.72,1.95,1.79-1.35-1.48,1.68,2.08-1.56-1.72,1.95,2.25-1.7-.37,1.32.68-1.22-.38,1.35.68-1.21.44,2.51.05-2.39.41,2.35.05-2.06.35,2.03.05-2.39.41,2.35.06-2.79,1.92,1.28-1.54-1.65h0l1.88,1.25-1.34-1.44,1.64,1.09-1.55-1.67,1.9,1.26-1.8-1.92ZM37.63,32.5c-.5.92-1.65,1.26-2.57.76s-1.26-1.65-.76-2.57c.5-.92,1.65-1.26,2.57-.76s1.26,1.65.76,2.57ZM69.26,35.11l1.89-3.2-2.48,2.73,1.88-3.18-2.14,2.36,1.62-2.74-2.48,2.73,1.88-3.18-2.64,2.91-1.08-3.82.27,3.68-1.01-3.55.23,3.18-.87-3.07.27,3.68-1.01-3.55.3,4.07s-.08.05-.11.08l-3.76-1.85,2.91,2.26-3.31-1.63,2.52,1.96-2.86-1.41,2.91,2.26-3.31-1.63,3.25,2.52-3.53,2.08,3.49-1.19-3.18,1.88,3.02-1.03-2.75,1.62,3.49-1.19-3.18,1.88,3.79-1.3-1.08,1.61,1.46-1.35-1.11,1.65,1.45-1.33-.52,3.58,1.12-3.2-.49,3.36.97-2.76-.42,2.9,1.12-3.2-.49,3.36,1.31-3.73,2.03,2.57-1.35-2.91h0l1.99,2.51-1.18-2.53,1.73,2.19-1.37-2.93,2.01,2.54-1.58-3.39s.01-.02.02-.04l3.63-.24-3.14-.61,3.2-.21-2.72-.53,2.76-.18-3.14-.61,3.2-.21-3.43-.67ZM67.7,38.93c-1.08,1.02-2.79.98-3.81-.1-1.02-1.08-.98-2.79.1-3.81,1.08-1.02,2.79-.98,3.81.1,1.02,1.08.98,2.79-.1,3.81ZM54.83,30.36l-2.05.99,1.8-1.38-2.37,1.14,2.09-1.6-2.52,1.22.31-2.81-.81,2.5.28-2.61-.7,2.16.25-2.26-.81,2.5.28-2.61-.89,2.77s-.06.01-.1.02l-1.99-2.23,1.32,2.27-1.75-1.96,1.14,1.96-1.51-1.69,1.32,2.27-1.75-1.96,1.47,2.53-2.89.43,2.62.15-2.6.39,2.27.13-2.25.34,2.62.15-2.6.39,2.85.16-1.15.78,1.32-.5-1.17.79,1.31-.49-1.3,2.23,1.6-1.81-1.22,2.09,1.38-1.56-1.05,1.8,1.6-1.81-1.22,2.09,1.86-2.11.65,2.24-.11-2.28h0l.64,2.19-.1-1.99.56,1.91-.12-2.3.65,2.21-.14-2.66s.02-.01.02-.02l2.46.81-1.91-1.24,2.17.71-1.65-1.07,1.87.62-1.91-1.24,2.17.71-2.09-1.36,2.11-1.61-2.37,1.14,2.09-1.6ZM50.95,34.52c-.99.39-2.1-.1-2.49-1.09s.1-2.1,1.09-2.49c.99-.39,2.1.1,2.49,1.09.39.99-.1,2.1-1.09,2.49ZM99.49,53.84c-1.76.13-6.18-2.6-6.11-7.74.07-5.14,4.62-8.32,4.42-13.07-.2-4.75-3.32-3.58-6.5-5.01-3.19-1.43-7.02-5.85-19.83-4.16-12.81,1.69-16.43-2.49-20.72-3.07,1.22-1.22,2.19-3.17,2.84-5.25,1.69-.19,5.01-.98,5.79-3.71-1.95,1.69-3.56,1.35-5.56,1.01-1.3-15.21-18.36-14.79-25.77-8.03-3.06-5.95-10.76-6.47-12.09-1.14-1.33,5.33,2.57,10.21.29,13.42-3.48-3.19-7.7-3.22-9.36-2.11-1.66,1.11-5.07-.29-6.89-1.43,1.82,2.6,4.97,3.77,8.91,3.15,3.93-.62,4.71,3.02,6.5,3.61,1.79.58,1.79.16,2.44-1.56.65,1.4-1.14,2.47-.49,4.36.37,1.08,3.35,2.7,7.25,1.2,3.19,2.67.19,8.26,1.82,10.92,1.63,2.67,5.27,2.21,6.63,6.7,1.37,4.49,5.53,5.33,5.53,5.33,0,0,2.02,4.36,1.43,6.7-.59,2.34-.91,3.77.45,8.32.84,5.98-4.16,9.43-5.53,9.88-1.37.45-1.11,1.76-1.04,2.99.07,1.24,3.58.98,5.14.65,1.56-.32.52-3.77,1.76-3.71,1.24.07,2.02-.19,2.47-2.02.46-1.82,1.37-3.25,1.76-11.05,2.41,10.14-.78,13.65-2.08,14.17-1.3.52-.78.98-.78,3.77,6.7.13,5.79-1.69,6.05-3.45s1.24-1.04,2.15-1.24c.91-.19.78-4.81-.78-13.46,3.97-3.58,3.71-8.45,3.84-10.08s4.94-2.54,4.94-2.54c0,0,2.47.71,9.56,2.6,7.09,1.89,9.43-.78,9.43-.78,0,0,1.37,5.4,6.83,7.41,1.3,5.98-2.73,11.83-5.72,13.65-2.99,1.82-2.73,2.15-2.67,5.66,6.5.26,5.46-4.49,5.46-4.49,0,0,1.43.78,3.38-.2,2.8-2.8,2.99-9.43,6.44-14.56.13,2.41,2.73,3.84,2.73,3.84,0,0,.85,4.75.91,6.83.06,2.08-1.82,5.01-3.06,5.79-1.23.78-.78,1.04-.71,3.38,2.6.2,5.27-.58,5.79-2.08.52-1.5.78-1.95,2.08-2.6,1.69-3.51-.2-7.8-.78-10.6-.59-2.8,1.5-2.02,1.5-6.24ZM87.55,35.27c-.59-.87.46-1.9,1.08-.72.1-.91,1.61-.52,1.06.59,1.17-.31,1.49,1.19.32,1.26,0,0,.77.28.35,1.05-.42.77-1.07.02-1.16-.36.14.79.09,1.37-.61,1.3-.7-.07-.63-.92-.51-1.18-.63,1.22-2.33-.05-.93-.71-1.17-.41-.82-1.82.39-1.22ZM74.16,27.08c-.59-.87.46-1.9,1.08-.72.1-.91,1.61-.52,1.06.59,1.17-.31,1.49,1.19.32,1.26,0,0,.77.28.35,1.05-.42.77-1.07.02-1.16-.36.14.79.09,1.37-.61,1.3-.7-.07-.63-.92-.51-1.18-.63,1.22-2.33-.05-.93-.71-1.17-.41-.82-1.82.39-1.22ZM32.87,3.46c1.22-.65,2.56-1.11,3.95-1.24,1.4-.12,2.78.1,4.11.31,1.34.22,2.66.5,3.98.93,1.32.42,2.58,1.11,3.63,2.06,1.07.93,1.98,2.08,2.59,3.38,1.22,2.62,1.1,5.76-.18,8.17l-.15-.04c.14-1.34.14-2.64-.05-3.89-.2-1.24-.56-2.43-1.13-3.52-.54-1.1-1.24-2.12-2.1-3.02-.87-.89-1.86-1.69-2.97-2.36-1.11-.66-2.38-1.1-3.69-1.21-1.31-.12-2.61.17-3.84.47-1.24.29-2.46.61-3.67,1.06-1.21.44-2.39.98-3.63,1.53l-.09-.12c.9-1.03,2.02-1.86,3.24-2.51ZM42.22,9.88c4.73,1.37,5.66,6,2.63,9.85-1.51-.68-2.24-2.29-2.19-2.44.05-.15,1.27-1.51,3.22-1.8.3-1.36-.55-2.5-.78-2.97-2.34.19-3.61,2.24-5.02,2.44-1.02-.68-1.8-1.12-1.8-1.12,0,0,4.68-.93,3.95-3.95ZM39.16,16.34c.12-.18.41-.04.33.17-.5,1.41-.97,3.66,2.02,6.37,1.89,1.71,4.92,1.75,7.1.67.17-.09.34.15.2.28-1.24,1.19-3.98,3.06-7.23,1.09-3.92-2.37-3.99-6.26-2.42-8.59ZM46.96,9.53c-1.16-1.13-2.66-1.86-4.25-2.2-1.59-.36-3.26-.36-4.88-.1-.81.13-1.61.35-2.38.67-.77.3-1.49.73-2.08,1.35.45-.73,1.17-1.27,1.91-1.69.76-.41,1.58-.7,2.42-.91,1.68-.41,3.46-.44,5.17-.07,1.7.38,3.36,1.21,4.52,2.55.57.66,1.04,1.42,1.34,2.23.28.82.46,1.66.5,2.51-.41-1.64-1.1-3.2-2.28-4.33ZM27.6,6.32c.13,5.01,7.51,6.14,7.51,6.14,0,0,.19-2.67,3.8-2.02-1.95.23-2.99,2.6-2.31,3.35-4.13.29-11.31-3.38-9-7.48ZM20.19,2.01c.92-.21,1.89-.07,2.75.27.86.35,1.63.92,2.2,1.64.58.71.96,1.58,1.02,2.47-.37-.8-.87-1.49-1.47-2.06-.6-.56-1.29-1.02-2.05-1.32-.75-.31-1.56-.45-2.36-.39-.81.06-1.6.38-2.31.91.47-.75,1.29-1.32,2.21-1.51ZM22.2,8.92c-.19-1.07-.53-1.97-1.14-2.69-.3-.36-.66-.66-1.07-.88-.41-.22-.88-.34-1.43-.32.44-.33,1.08-.41,1.65-.25.57.15,1.07.51,1.45.95.75.89.99,2.19.54,3.19ZM21.47,21.13c-.52.24-.96.46-1.3.65-.74.4-1.68-.12-1.67-.96,0-.21.03-.44.09-.7,1.02-.58,1.95-.51,2.91-.04.44.22.43.85-.02,1.06ZM18.28,14.31c.73-1.46,1.85-.73,2.1,1.51-1.22.44-1.95-.1-2.1-1.51ZM20.25,11.84c0-1.5-.78-3.51-2.6-4.62,1.95.29,3.45,2.5,3.58,3.19,1.27-.03,3.8-.78,4.58-1.89,0,0,.16.91.52,1.3-1.89,1.69-5.43,1.95-6.08,2.02ZM24.67,16.21c.15-2,2.1-2.15,2.97-1.12-.15,1.17-2.15,1.76-2.97,1.12ZM26.67,23.53c.62-.22,1.22-.36,1.8-.56.58-.2,1.14-.4,1.63-.7.5-.29.91-.66,1.19-1.14.27-.49.39-1.09.44-1.74.27.59.34,1.3.12,1.98-.23.68-.77,1.22-1.35,1.57-1.21.67-2.56.79-3.83.59ZM38.01,35.35c1.02,2.43-3.35,3.54-3.5-.02-2.52,2.39-5.42-.94-2.57-2.73,0,0-2.33.36-2.34-2.15,0-2.51,2.69-1.54,3.42-.68-1.45-1.79-2.12-3.34-.27-4.13,1.85-.79,2.87,1.44,2.91,2.26-.1-3.96,5.93-3.11,3.35.5,3.52-.6,4.59,3.46.71,3.63,2.7,1.38,1.47,5.44-1.71,3.32ZM42.68,48.86c-.17-1.07-.3-2.17-.17-3.28.11-1.1.59-2.23,1.47-2.89-.64.88-.84,1.91-.86,2.93,0,1.03.15,2.07.33,3.1.36,2.08.85,4.18.92,6.35-.67-2.05-1.3-4.08-1.69-6.21ZM44.6,39.92c-.42.77-1.08.02-1.16-.36.14.79.09,1.37-.61,1.3-.7-.07-.63-.92-.51-1.18-.63,1.22-2.33-.05-.93-.71-1.17-.41-.82-1.82.39-1.23-.59-.87.46-1.9,1.08-.72.1-.91,1.61-.52,1.06.59,1.17-.31,1.49,1.19.32,1.26,0,0,.77.28.35,1.05ZM51.12,50.39c-.24.62-.76,1.11-1.32,1.32-.56.23-1.13.28-1.67.25-.54-.04-1.08-.16-1.58-.44-.24-.14-.48-.33-.67-.55-.18-.21-.36-.43-.49-.69-.28-.5-.47-1.09-.45-1.71.02-.62.24-1.25.63-1.76.39-.52.92-.9,1.48-1.14.33-.14.44-.2.61-.28.08-.05.15-.1.23-.15.07-.05.14-.12.22-.18.56-.49.96-1.26.85-1.97-.06-.36-.26-.7-.59-.99-.32-.31-.77-.51-1.24-.73-.02-.01-.05-.04-.05-.07,0-.04.03-.08.07-.08.52-.03,1.08-.02,1.62.23.53.22,1.06.66,1.32,1.28.26.61.26,1.3.08,1.91-.17.61-.51,1.17-.97,1.61-.12.11-.24.21-.37.31-.14.09-.27.17-.41.25-.28.14-.64.27-.78.31-.38.13-.71.33-.97.59-.51.52-.73,1.38-.52,2.25.05.22.13.43.25.63.11.2.25.35.43.49.36.27.84.4,1.31.38.47-.02.92-.2,1.24-.48.32-.28.49-.63.54-.98.05-.35.02-.77-.05-1.1-.05-.16-.1-.29-.18-.35-.06-.1-.16-.12-.29-.16-.28-.04-.69.07-.98.32-.28.25-.47.64-.35,1.15h0s0,.07-.03.09c-.03.02-.08.02-.1-.02-.08-.11-.18-.22-.25-.35-.04-.14-.13-.28-.12-.44-.04-.32.06-.64.21-.92.08-.14.18-.26.29-.38.12-.11.23-.22.38-.3.27-.19.61-.29.97-.32.36,0,.79.09,1.1.36.32.25.51.59.62.91.2.63.2,1.26-.03,1.89ZM55.56,42.12s.77.28.35,1.05c-.42.77-1.07.02-1.16-.36.14.79.09,1.37-.61,1.3-.7-.07-.63-.92-.51-1.17-.63,1.22-2.33-.05-.93-.71-1.17-.41-.82-1.82.39-1.22-.59-.87.46-1.9,1.08-.72.1-.91,1.61-.52,1.06.59,1.17-.31,1.49,1.19.32,1.26ZM52.88,35.53c1.19,2.83-2.41,5.16-3.49,1.45-.8,2.54-4.9.56-2.69-2.29-3.51.21-3.57-4.26-.2-3.78,0,0-2.04-1.24-.41-3.19,1.63-1.95,3.08.56,3.09,1.7.04-2.33.54-3.97,2.49-3.37,1.95.6,1.28,2.98.77,3.64,2.5-3.13,6.62,1.46,2.26,2.57,3.11,1.83,1.3,5.67-1.82,3.27ZM57.25,27.79c-1.17-.41-.82-1.82.39-1.22-.59-.87.46-1.9,1.08-.72.1-.91,1.61-.52,1.06.59,1.17-.31,1.49,1.19.32,1.26,0,0,.77.28.35,1.05-.42.77-1.07.02-1.16-.36.14.79.09,1.37-.61,1.3-.7-.07-.63-.92-.51-1.17-.63,1.22-2.33-.05-.93-.71ZM70.73,39.22c3.04,3.05-.42,7.99-3.78,3.72.3,3.73-6.08,3.31-4.71-1.56-4.46,2.12-6.9-3.66-2.26-4.82,0,0-3.31-.54-2.21-3.94s4.3-.89,4.92.59c-1.18-3.05-1.39-5.45,1.46-5.7,2.85-.25,3.23,3.21,2.93,4.33,1.61-5.39,9.38-1.58,4.3,2.16,5.01.74,4.68,6.7-.64,5.22ZM78.18,42.12s.77.28.35,1.05c-.42.77-1.07.02-1.16-.36.14.79.09,1.37-.61,1.3-.7-.07-.63-.92-.51-1.17-.63,1.22-2.33-.05-.93-.71-1.17-.41-.82-1.82.39-1.22-.59-.87.46-1.9,1.08-.72.1-.91,1.61-.52,1.06.59,1.17-.31,1.49,1.19.32,1.26ZM79.5,36.79c-1.96,1.86-4.21-.73-1.99-2.12,0,0-1.81.28-1.82-1.67,0-1.95,2.09-1.19,2.66-.53-1.13-1.39-1.65-2.6-.21-3.21s2.23,1.12,2.26,1.76c-.08-3.08,4.61-2.42,2.6.39,2.73-.47,3.57,2.69.55,2.82,2.1,1.07,1.14,4.23-1.33,2.58.79,1.89-2.6,2.75-2.72-.01ZM82,42.96c-1.8-.62-1.26-2.8.6-1.88-.91-1.34.71-2.92,1.66-1.11.15-1.4,2.48-.8,1.63.91,1.8-.47,2.29,1.84.5,1.94,0,0,1.18.43.54,1.61-.64,1.18-1.65.03-1.78-.56.22,1.21.13,2.11-.94,2-1.07-.11-.97-1.41-.78-1.81-.97,1.88-3.58-.07-1.44-1.1ZM87.27,53.71c-.9-.39-1.68-1.01-2.34-1.72-1.31-1.44-2.15-3.24-2.43-5.11.87,1.67,1.78,3.26,3,4.58,1.21,1.32,2.72,2.36,4.6,2.63-.93.19-1.94.02-2.83-.38ZM91.78,50.16c-.26.54-.77.93-1.28,1.09-.52.17-1.03.16-1.51.1-.48-.07-.96-.22-1.38-.51-.2-.14-.4-.33-.56-.54-.15-.2-.29-.42-.39-.65-.21-.47-.34-1.01-.28-1.56.06-.55.31-1.1.7-1.53.38-.44.89-.74,1.41-.92.31-.1.41-.14.57-.2.07-.04.15-.08.22-.11.07-.04.13-.1.21-.14.54-.4.95-1.05.91-1.7-.03-.32-.18-.64-.46-.93-.26-.3-.65-.51-1.06-.75-.02-.01-.04-.04-.04-.06,0-.04.03-.07.07-.07.47.01.97.06,1.43.32.46.23.9.67,1.08,1.24.19.57.13,1.19-.07,1.72-.2.54-.55,1.01-.99,1.37-.11.09-.23.17-.35.25-.13.07-.26.14-.39.2-.26.1-.6.19-.73.22-.35.09-.66.24-.91.46-.49.43-.76,1.18-.63,1.98.03.2.09.4.18.58.08.19.19.33.35.47.3.27.72.42,1.14.44.42.02.84-.11,1.15-.33.31-.23.49-.53.56-.84.07-.31.08-.69.04-.99-.03-.14-.07-.26-.13-.33-.04-.09-.14-.12-.25-.17-.25-.06-.62.01-.9.22-.27.2-.47.54-.4,1h0s0,.06-.03.08c-.03.02-.07,0-.09-.02-.06-.1-.15-.21-.19-.33-.03-.12-.09-.26-.07-.4-.01-.29.1-.57.26-.81.08-.12.18-.22.29-.32.11-.09.23-.18.36-.24.25-.15.56-.22.89-.22.33.03.7.14.96.41.27.25.41.57.49.86.13.58.09,1.14-.16,1.69ZM81.2,37.72l.04-1.85.32,1.83.05-2.17,1.49.99-1.2-1.28h0l1.46.97-1.04-1.12,1.27.85-1.21-1.29,1.47.98-1.4-1.5v-.02s1.85-.74,1.85-.74l-1.74.22,1.63-.65-1.5.19,1.41-.56-1.74.22,1.63-.65-1.9.24.44-1.99-.83,1.84.44-1.97-.71,1.59.38-1.7-.83,1.84.44-1.97-.88,1.96-1.21-1.8.76,1.87-1.13-1.68.66,1.61-.97-1.45.76,1.87-1.13-1.68.85,2.07s-.03.04-.05.06l-2.27-.32,1.9.68-2-.28,1.64.59-1.73-.25,1.9.68-2-.28,2.12.76-1.48,1.68,1.61-1.21-1.34,1.52,1.39-1.05-1.15,1.31,1.61-1.21-1.34,1.52,1.75-1.32-.29,1.02.53-.95-.3,1.05.53-.94.34,1.95.04-1.86.32,1.83.04-1.6.27,1.58ZM79.93,35.18c-.72-.39-.98-1.28-.59-2,.39-.72,1.28-.98,2-.59.72.39.98,1.28.59,2-.39.72-1.28.98-2,.59ZM83.32,42.85c-.35-.55-.19-1.29.36-1.64.55-.35,1.29-.19,1.64.36.35.55.19,1.29-.36,1.64-.55.35-1.29.19-1.64-.36Z"/>
</svg>