<?xml version="1.0" encoding="UTF-8"?>
<svg id="Layer_1" data-name="Layer 1" xmlns="http://www.w3.org/2000/svg" viewBox="0 0 21.44 22.07">
  <defs>
    <style>
      .cls-1 {
        fill: #d13100;
        stroke-width: 0px;
      }
    </style>
  </defs>
  <path class="cls-1" d="M1.58,5.93c-.45,0-.71-.33-.71-.82,0-.52.26-.82.71-.82h10.71c1.11-1.32,1.95-2.71,2.52-3.79.16-.33.42-.49.75-.49.14,0,.28.02.45.07.4.09.64.38.64.71,0,.12-.02.24-.09.38-.54.96-1.34,2.07-2.26,3.13h5.62c.45,0,.68.31.68.82s-.24.82-.68.82h-8.49v3.29h7.48c.42,0,.66.33.66.8s-.23.85-.66.85h-7.48v3.39h9.34c.42,0,.68.31.68.85,0,.49-.26.87-.68.87h-9.34v5.39c0,.45-.38.71-.94.71s-.89-.26-.89-.71v-5.39H.68c-.42,0-.68-.38-.68-.87,0-.52.26-.85.68-.85h8.89v-3.39H2.61c-.42,0-.68-.35-.68-.85s.26-.8.68-.8h6.96v-3.29H1.58ZM5.6.02c.28,0,.52.12.73.35.61.66,1.29,1.55,1.72,2.28.09.14.14.31.14.45,0,.28-.16.54-.47.71-.16.07-.33.12-.49.12-.31,0-.59-.14-.75-.4-.42-.7-1.06-1.58-1.58-2.16-.17-.21-.26-.42-.26-.61,0-.24.14-.47.47-.61.16-.07.33-.12.49-.12Z"/>
</svg>