<?xml version="1.0" encoding="UTF-8"?>
<svg id="Layer_1" data-name="Layer 1" xmlns="http://www.w3.org/2000/svg" viewBox="0 0 112.17 69.42">
  <defs>
    <style>
      .cls-1 {
        fill: #d13100;
        stroke-width: 0px;
      }
    </style>
  </defs>
  <path class="cls-1" d="M78.49,38.1l3.21-2.72,1.35,4-.46-3.76,1.22,3.59-.4-3.25,1.05,3.1-.46-3.76,1.22,3.59-.53-4.27s.08-.06.12-.08l3.85,1.66-3.11-2.18,3.48,1.5-2.68-1.88,3.01,1.3-3.11-2.17,3.48,1.5-3.34-2.34,3.72-1.58-3.72.75,3.49-1.49-3.21.65,3.01-1.28-3.72.75,3.49-1.49-3.75.76.51-3.56-1.28,3.03.47-3.26-1.11,2.62.4-2.81-1.28,3.03.47-3.26-1.46,3.44s-.03,0-.04,0l-2.76-2.67,1.79,2.8-2.39-2.31,1.54,2.42-2.06-2,1.77,2.78h0l-2.37-2.29,1.81,2.84h-4.07l3.42.67h-3.48l2.95.58h-3.01l3.42.67h-3.48l3.65.71-1.78.95,1.97-.52-1.8.96,1.93-.51-2.54,3.24,2.89-2.45-2.34,2.99,2.5-2.12-2.02,2.58,2.89-2.45-2.34,2.99ZM80.1,33.08c-.76-1.46-.19-3.26,1.27-4.02,1.46-.76,3.26-.19,4.02,1.27.76,1.46.19,3.26-1.27,4.02-1.46.76-3.26.19-4.02-1.27ZM83.21,40.04c.43.17.89.25,1.33.21.44-.03.86-.19,1.16-.49.31-.3.46-.77.55-1.31.21.49.23,1.12-.11,1.65-.33.53-.96.81-1.54.86-.59.04-1.18-.1-1.66-.44-.48-.32-.84-.87-.82-1.42.27.47.66.76,1.09.94ZM76.11,36.44c.06-.57.38-1.15.88-1.38-.29.46-.36.94-.33,1.4.04.46.19.91.43,1.28.23.38.57.67.97.8.41.13.9.05,1.41-.12-.34.41-.89.73-1.51.66-.63-.05-1.16-.47-1.47-.97-.31-.5-.46-1.1-.39-1.68ZM61.84,19.81c2.73-.7,5.39.44,7,3.3,1.63,2.98-.09,6.75-1.28,7.24,1.32-1.87.9-4.58-.17-6.43-1.24-2.26-3.21-3.64-5.56-4.11ZM74.58,41.99c.52.33.67,1.02.33,1.54s-1.02.67-1.54.33c-.52-.33-.67-1.02-.33-1.54.33-.52,1.02-.67,1.54-.33ZM62.45,41.72c1.19.11,2.22-.23,3.08-.76.86-.55,1.59-1.29,2.08-2.14.51-.84.75-1.8.6-2.72-.16-.94-.8-1.82-1.66-2.66,1.14.25,2.32,1.01,2.83,2.3.53,1.28.24,2.76-.42,3.87-.68,1.12-1.7,2.01-2.91,2.45-1.19.46-2.64.4-3.61-.34ZM74.79,30.53c-.13.43-.13.87.04,1.26.17.39.55.71,1.02.99-.53.01-1.13-.19-1.49-.7-.37-.5-.41-1.18-.24-1.75.18-.56.53-1.07,1.01-1.39.47-.33,1.11-.47,1.62-.24-.54.08-.95.34-1.27.67-.32.33-.56.74-.68,1.17ZM80.05,24.97c-.45-.11-.92-.13-1.35-.03-.44.09-.83.31-1.08.64-.26.34-.35.83-.37,1.37-.27-.45-.38-1.08-.11-1.65.26-.57.84-.93,1.41-1.06.58-.12,1.19-.06,1.71.21.52.25.95.75,1,1.3-.33-.43-.76-.66-1.2-.78ZM89.97,37.18c.39-.25.72-.58.95-.96.23-.38.35-.81.28-1.23-.07-.42-.36-.82-.74-1.21.51.12,1.05.47,1.27,1.05.24.58.1,1.25-.2,1.75-.31.5-.77.9-1.32,1.1-.54.2-1.19.17-1.63-.16.54.05,1-.1,1.4-.34ZM86.89,24.59c-.29-.39-.67-.71-1.1-.92-.42-.21-.88-.29-1.32-.19-.44.11-.84.45-1.21.89.08-.55.4-1.14,1-1.43.59-.3,1.31-.21,1.86.06.56.28,1.02.74,1.27,1.3.26.55.29,1.24-.03,1.73,0-.57-.19-1.05-.47-1.44ZM90.6,27.07c-.37-.22-.86-.26-1.4-.21.42-.32,1.03-.5,1.62-.3.6.19,1.02.73,1.21,1.28.18.56.19,1.17-.01,1.72-.19.54-.64,1.03-1.18,1.14.39-.38.57-.83.64-1.28.06-.46.03-.93-.12-1.35-.14-.42-.4-.79-.76-1ZM57.65,45.54c.75.62,1.63,1.08,2.56,1.28.92.22,1.86.16,2.65-.25.81-.42,1.42-1.26,1.94-2.28.1,1.11-.25,2.41-1.28,3.25-1.01.86-2.45,1.02-3.65.74-1.22-.29-2.32-.97-3.08-1.94-.76-.95-1.13-2.29-.73-3.38.25,1.12.85,1.95,1.59,2.59ZM30.72,35.95c.88.5,1.77.61,2.63.51.85-.12,1.67-.42,2.35-.9.69-.46,1.21-1.11,1.42-1.87.21-.77.03-1.67-.33-2.62.78.6,1.42,1.6,1.35,2.76-.05,1.17-.79,2.19-1.69,2.81-.91.61-2.01.93-3.09.84-1.07-.07-2.16-.63-2.64-1.53ZM25.7,37.17c.35.74.87,1.4,1.5,1.88.62.49,1.36.78,2.12.75.77-.03,1.53-.46,2.29-1.06-.32.89-1.05,1.75-2.13,2.03-1.08.3-2.23-.09-3.05-.72-.82-.66-1.43-1.56-1.66-2.57-.25-1-.06-2.15.63-2.85-.21.94-.04,1.79.3,2.54ZM42.45,42.11c.54.62,1.21,1.12,1.96,1.4.73.31,1.52.38,2.24.15.73-.24,1.35-.86,1.92-1.64-.06.94-.53,1.97-1.5,2.53-.96.58-2.17.52-3.14.13-.97-.41-1.8-1.11-2.3-2.03-.51-.89-.64-2.05-.16-2.91.06.96.45,1.74.98,2.36ZM1.21,14.51c1.25,4.55,2.73,11.82,13.75,17.73,6.14,3.41,7.05,4.89,7.05,4.89,0,0,1.59,6.82,6.14,7.84.57,3.75,4.66,9.09,7.05,11.71,2.24,2.45,3.55,7.58.06,9.89-.3.2-.22.66.13.74,1.2.29,2.46.05,2.46.05,0,0-.79.76-1.57,1.29-.34.23-.17.76.24.76,1.39,0,3.29-.32,4.97-.69l.07-.02c1.42-.31,2.27-1.79,1.79-3.16-.2-.56-.35-1.22-.42-1.97-.3-3.33,2.88-7.96,3.18-10.16.24-1.72-.82-3.72-1.3-4.5.71.94,3.48,3.48,12.66,3.67,11.29.23,18.49-2.35,21.98-1.89-1.44,3.71,2.12,6.82.23,10.61-1.3,2.61-2.86,3.56-4.04,3.78-.46.08-.55.69-.12.88.85.37,1.82.56,1.82.56,0,0-.76.49-1.71.7-.39.08-.46.62-.1.78,2.11.94,4.38.05,6.18-.36,1.08-.25,1.86-1.16,1.96-2.27.21-2.34.77-5.96,2.31-7.34,2.35-2.12,3.79-3.18,3.03-6.14-.76-2.96,2.35-5.38,2.35-5.38,0,0,7.43-6.37,7.65-14.1.08-2.58-.56-4.98-1.45-7.03-.63-1.45-1.44-2.79-2.38-4.04,1.41-1.03,3-1.64,4.56-1.61-.21.3-.41.62-.57.94-.32.62-.6,1.27-.75,2.03-.15.74-.16,1.62.17,2.46.31.85.96,1.55,1.66,1.99.7.46,1.46.7,2.2.83,1.49.24,2.98.14,4.5-.67.38-.21.76-.5,1.11-.92.33-.4.63-1.01.66-1.59.07-1.1-.23-1.84-.54-2.55-.66-1.37-1.63-2.44-2.75-3.34-.22-.17-.45-.33-.69-.49.42-.09.85-.16,1.29-.15,1.11.02,2.24.32,3.26.88,1.02.57,1.91,1.4,2.62,2.39.04.06.13.08.19.04.06-.04.07-.11.05-.17-1.02-2.31-3.29-4.17-6.01-4.54-1.16-.16-2.39,0-3.52.48-.36-.12-.73-.22-1.11-.29-1.45-.3-2.98-.18-4.35.25-1.37.44-2.59,1.17-3.64,2.02,0,0-.02.01-.02.02-1.92-1.97-4.21-3.59-6.75-4.77-9.45-4.39-19.73-3.61-27.23-1.48-9.21,2.61-20.8.57-25.35-1.59-1.34-.64-3.01-.93-4.77-1-2.58-5.15.25-7.94-2.21-10.18-2.34-2.13-7.68,5.32-6.2,11.28-1.1.32-2.06.68-2.74,1.03-3.07,1.59-11.03.91-12.85-3.64,0,0,3.3-2.27-1.82-1.82C-1.52,7.69-.04,9.96,1.21,14.51ZM101.11,21.61c.21-.5.48-.97.81-1.39.6.25,1.18.59,1.71,1,.8.64,1.5,1.48,1.93,2.33.21.4.33.87.32,1.02,0,.04.01.02-.03.1-.05.06-.15.17-.31.26-.64.4-1.75.58-2.69.46-.96-.11-1.76-.53-2.01-1.13-.32-.59-.18-1.67.27-2.65ZM89.48,19.21l-.11.14c-4.13-2.2-8.58-3.56-13.07-3.87-2.25-.17-4.48-.08-6.75.27-2.33.4-4.69.59-7.05.7-2.36.12-4.7.21-7.04.42-2.34.17-4.68.57-7.05.63-1.18.04-2.37,0-3.55-.09l-1.77-.17-1.77-.29c-1.17-.23-2.34-.51-3.47-.95-1.13-.4-2.22-1-3.14-1.76l.1-.15c2.15.92,4.42,1.22,6.71,1.47,2.29.25,4.6.28,6.92.44,2.32.16,4.66.36,7,.3,2.34-.08,4.66-.39,6.96-.82l6.85-1.39c1.16-.2,2.37-.48,3.58-.54l.91-.07c.3-.01.61,0,.91,0,.61.01,1.22,0,1.82.08,2.42.24,4.8.86,7,1.82,2.21.96,4.28,2.21,6.02,3.84ZM73.23,20.36c-1.36-.08-.99-1.83.38-1.47-.64-1.29,1.12-1.75,1.24-.69.71-1.37,1.95-.17,1.26.84,1.41-.7,1.82.95.46,1.43,1.62.78-.35,2.26-1.09.83.15.3.22,1.29-.59,1.37-.81.08-.88-.6-.71-1.52-.09.45-.86,1.32-1.35.43-.49-.89.41-1.22.41-1.22ZM81.65,50.82c.24-.71.58-1.36,1.02-1.95.45-.58.96-1.11,1.64-1.51-.03.79-.19,1.47-.36,2.14-.17.66-.37,1.28-.57,1.89l-.62,1.82c-.22.62-.41,1.26-.72,1.99-.88-1.31-.85-2.99-.38-4.39ZM77.04,33.76c-5.59-.34-3.71-7.16.08-5.49-3.24-5.06,3.17-6.88,5.26-2.59.39-6.1,6.73-4.29,5.69,1.22,5.75-3.96,6.91,5.55.69,5.27,1.29.09,4.76,1.74,3.46,4.63-1.3,2.89-3.72,1.8-6.49-.54,1.32,1.18,2.77,5.43-1.17,5.35-3.94-.08-3.31-3.74-3.31-3.74-2.89,4.43-8.05-.22-4.21-4.11ZM72.51,41.68c-.79-1.59,1.39-2.16,1.53-.85.88-1.69,2.4-.21,1.55,1.04,1.74-.86,2.25,1.18.56,1.76,2,.96-.43,2.78-1.34,1.03.18.37.27,1.59-.73,1.69-1,.1-1.08-.74-.88-1.87-.12.55-1.06,1.62-1.66.52-.6-1.1.51-1.5.51-1.5-1.68-.1-1.21-2.25.47-1.81ZM55.81,41.51c.21.61.82,1.85,1.79,2.21l.98-1.94.55,1.83.69-2.7s.48,2.75.53,2.98c.05.22.5-3.75.5-3.75l.69,1.91.11-2.98.77,1.13.05-2.25,1.27,2.43-.52-4.02,1.46,2.3-1.06-4.32s1.39,2.03,1.63,2.57c.25.53-1.41-4.45-1.41-4.45,0,0,1.92,2.33,2.02,2.44.1.1-2.06-4.55-2.11-4.67s1.59,1.94,1.87,2.11c.28.17-1.9-3.78-1.9-3.78l1.92,1.69-2.2-3.25,1.99,1.31-2.06-3.16,1.59.75-2.75-3.49,3.42,1.49s-2.24-2.58-5.41-4.19c8.43-5.14,15.6,7.77,6.96,12.34,5.82,1.11,4.18,11.96-1.76,11.41,1.95,5-5.55,7.8-8.68,4.32-1.12-1.24-2.16-3.79-.93-6.26ZM41.46,38.52c.09.54.43,1.65,1.19,2.08l1.08-1.48.21,1.59.93-2.15s.03,2.35.05,2.55c.01.19.91-3.05.91-3.05l.32,1.68.49-2.46.49,1.04.34-1.87.74,2.19.1-3.41.91,2.11-.3-3.73s.88,1.88,1.02,2.35c.13.47-.58-3.89-.58-3.89,0,0,1.29,2.2,1.35,2.3.07.1-1.1-4.06-1.13-4.17-.03-.11,1.06,1.83,1.27,2,.21.18-1.07-3.4-1.07-3.4l1.37,1.66-1.39-2.99,1.48,1.35-1.29-2.9,1.22.84-1.82-3.27,2.64,1.7s-1.52-2.45-3.94-4.21c7.7-3.15,11.94,8.55,4.14,11.19,4.69,1.7,1.88,10.5-2.99,9.26.96,4.42-5.65,5.75-7.79,2.43-.76-1.18-1.29-3.44.06-5.33ZM32.69,42.81c.42,1.44.89,2.74,1.52,3.96.63,1.22,1.4,2.35,2.22,3.5.81,1.15,1.67,2.34,2.36,3.69.69,1.33,1.15,2.93.83,4.42-.45-1.43-1.2-2.56-2.04-3.67-.84-1.1-1.8-2.18-2.64-3.39-.85-1.2-1.61-2.56-2.04-4.03-.44-1.46-.54-3.03-.2-4.49ZM25.72,33.44c-.06.54-.03,1.71.59,2.32l1.44-1.14-.23,1.59,1.48-1.82s-.61,2.27-.64,2.46c-.04.19,1.71-2.69,1.71-2.69l-.15,1.71,1.14-2.24.19,1.14.83-1.71.11,2.31,1.02-3.26.3,2.27.72-3.68s.34,2.05.34,2.54.49-3.9.49-3.9c0,0,.64,2.46.68,2.58.04.11.04-4.21.04-4.32s.53,2.05.68,2.27c.15.23-.11-3.56-.11-3.56l.87,1.97-.53-3.26,1.06,1.71-.45-3.15.95,1.14-.87-3.64,2.08,2.35s-.8-2.77-2.65-5.12c8.26-.95,9.18,11.46.95,11.89,4.05,2.91-1.04,10.62-5.38,8.1-.28,4.52-7,4-8.16.23-.41-1.34-.31-3.67,1.51-5.12ZM18.64,18.11c0-1,.81-1.82,1.82-1.82s1.82.81,1.82,1.82-.81,1.82-1.82,1.82-1.82-.81-1.82-1.82ZM40.8,24.09c-.15-2.17-1.17-3.92-2.8-5.11,2.34.43,3.97,2.25,4.19,5,.19,2.85-2.45,5.13-3.54,5.08,1.67-.96,2.31-3.18,2.14-4.97ZM49.36,21.27c2.37-.22,4.43,1.09,5.39,3.67.96,2.7-.97,5.6-2.03,5.85,1.35-1.38,1.36-3.69.72-5.37-.73-2.05-2.19-3.46-4.07-4.16ZM49.61,39.36c.79-.34,1.5-.86,2.02-1.5.54-.63.87-1.39.86-2.19,0-.8-.43-1.62-1.03-2.43.91.36,1.8,1.15,2.05,2.29.27,1.14-.17,2.33-.86,3.17-.71.84-1.68,1.44-2.75,1.65-1.05.22-2.25-.02-2.95-.76.98.25,1.87.11,2.67-.22Z"/>
</svg>