<?xml version="1.0" encoding="UTF-8"?>
<svg id="Layer_1" data-name="Layer 1" xmlns="http://www.w3.org/2000/svg" viewBox="0 0 21.88 21.41">
  <defs>
    <style>
      .cls-1 {
        fill: #d13100;
        stroke-width: 0px;
      }
    </style>
  </defs>
  <path class="cls-1" d="M6.52,2.54c-.47.78-1.01,1.53-1.65,2.21.71,1.06,1.18,2.21,1.55,3.41.75-.85,1.32-1.81,1.81-2.87.12-.26.35-.4.61-.4.14,0,.31.05.47.14.26.16.4.42.4.66,0,.14-.05.28-.12.4-.64,1.22-1.53,2.49-2.71,3.72,1.22,2.99,2.4,4.64,3.55,5.86.14.19.24.38.24.59s-.09.42-.26.61c-.16.19-.4.28-.59.28s-.35-.07-.45-.24c-.85-.89-1.51-2.09-2.16-3.6.02.85.05,1.69.05,2.56,0,4.24-.68,5.53-2.89,5.53-.59,0-1.41-.09-1.95-.28-.35-.12-.57-.4-.57-.78,0-.09.02-.19.05-.31.09-.33.38-.54.71-.54.12,0,.21.02.33.05.33.12.89.21,1.37.21.92,0,1.39-.45,1.39-3.98,0-.66,0-1.34-.02-2-1.11,1.51-2.71,2.99-4.38,4.05-.14.09-.31.14-.45.14-.28,0-.54-.17-.73-.47-.07-.16-.12-.31-.12-.47,0-.26.14-.49.38-.63,1.83-1.11,3.67-2.71,5.15-4.68-.09-.87-.21-1.74-.45-2.59-1.03,1.34-2.35,2.57-3.74,3.39-.19.12-.38.17-.52.17-.26,0-.47-.12-.61-.35-.12-.14-.17-.33-.17-.49,0-.24.12-.47.38-.63,1.46-.82,3.01-2.16,4.19-3.6-.24-.61-.49-1.22-.82-1.77-.75.64-1.55,1.22-2.4,1.72-.16.07-.31.12-.45.12-.26,0-.49-.14-.66-.45-.07-.14-.12-.28-.12-.42,0-.26.14-.47.4-.61,1.86-.99,3.27-2.24,4.19-3.65H.8c-.47,0-.71-.33-.71-.8s.24-.78.71-.78h8.68c.45,0,.68.28.68.78,0,.45-.24.8-.68.8h-2.96ZM16,6.61c1.37-1.55,2.54-3.32,3.48-5.25.12-.26.33-.4.59-.4.14,0,.31.05.47.12.31.16.47.4.47.63,0,.12-.02.26-.09.38-.87,1.58-1.88,3.11-3.04,4.52h3.34c.42,0,.66.28.66.75,0,.45-.24.73-.66.73h-4.64c-.96,1.08-2.07,2.09-3.22,2.99.31-.02.64-.05.92-.05h4.19c1.18,0,1.93.61,1.93,1.72v6.73c0,1.25-.63,1.76-1.88,1.76h-5.06c-1.29,0-1.93-.52-1.93-1.76v-5.43c0-.54.02-1.15.14-1.69-.4.26-.8.52-1.2.78-.14.07-.28.12-.45.12-.26,0-.52-.14-.68-.42-.09-.16-.14-.33-.14-.47,0-.28.14-.54.47-.71,1.72-.92,3.39-2.12,4.89-3.55h-4.38c-.45,0-.66-.28-.66-.73,0-.47.21-.75.66-.75h3.48v-2.75h-2.66c-.42,0-.66-.33-.66-.75,0-.47.24-.75.66-.75h2.66V.61c0-.4.28-.61.8-.61s.8.21.8.61v1.74h2.16c.42,0,.63.28.63.75s-.26.75-.68.75h-2.12v2.75h.73ZM18.78,15.29v-2.26c0-.45-.21-.56-.66-.56h-4.35c-.42,0-.64.12-.64.56v2.26h5.65ZM13.13,19.18c0,.45.21.56.64.56h4.35c.45,0,.66-.12.66-.56v-2.42h-5.65v2.42ZM20.38,10.09c.14.17.21.33.21.49s-.07.33-.21.47c-.17.19-.33.26-.52.26s-.38-.07-.54-.23c-.54-.52-1.37-1.15-2.02-1.62-.16-.12-.23-.26-.23-.45,0-.17.07-.33.23-.47.19-.16.35-.24.52-.24s.31.05.42.14c.68.4,1.58,1.06,2.14,1.65Z"/>
</svg>