<?xml version="1.0" encoding="UTF-8"?>
<svg id="Layer_1" data-name="Layer 1" xmlns="http://www.w3.org/2000/svg" viewBox="0 0 80.57 109.15">
  <metadata><?xpacket begin="﻿" id="W5M0MpCehiHzreSzNTczkc9d"?>
<x:xmpmeta xmlns:x="adobe:ns:meta/" x:xmptk="Adobe XMP Core 9.1-c001 79.a8d4753, 2023/03/23-08:56:37        ">
   <rdf:RDF xmlns:rdf="http://www.w3.org/1999/02/22-rdf-syntax-ns#">
      <rdf:Description rdf:about=""
            xmlns:xmp="http://ns.adobe.com/xap/1.0/"
            xmlns:xmpMM="http://ns.adobe.com/xap/1.0/mm/"
            xmlns:stEvt="http://ns.adobe.com/xap/1.0/sType/ResourceEvent#">
         <xmp:Rating>3</xmp:Rating>
         <xmp:MetadataDate>2024-11-30T18:26:35-03:00</xmp:MetadataDate>
         <xmpMM:InstanceID>xmp.iid:325925b1-f710-5148-a7b3-4a6923cf557c</xmpMM:InstanceID>
         <xmpMM:DocumentID>xmp.did:325925b1-f710-5148-a7b3-4a6923cf557c</xmpMM:DocumentID>
         <xmpMM:OriginalDocumentID>xmp.did:325925b1-f710-5148-a7b3-4a6923cf557c</xmpMM:OriginalDocumentID>
         <xmpMM:History>
            <rdf:Seq>
               <rdf:li>
                  <rdf:Description>
                     <stEvt:action>saved</stEvt:action>
                     <stEvt:instanceID>xmp.iid:325925b1-f710-5148-a7b3-4a6923cf557c</stEvt:instanceID>
                     <stEvt:when>2024-11-30T18:26:35-03:00</stEvt:when>
                     <stEvt:softwareAgent>Adobe Bridge 2024</stEvt:softwareAgent>
                     <stEvt:changed>/metadata</stEvt:changed>
                  </rdf:Description>
               </rdf:li>
            </rdf:Seq>
         </xmpMM:History>
      </rdf:Description>
   </rdf:RDF>
</x:xmpmeta>
                                                                                                    
                                                                                                    
                                                                                                    
                                                                                                    
                                                                                                    
                                                                                                    
                                                                                                    
                                                                                                    
                                                                                                    
                                                                                                    
                                                                                                    
                                                                                                    
                                                                                                    
                                                                                                    
                                                                                                    
                                                                                                    
                                                                                                    
                                                                                                    
                                                                                                    
                                                                                                    
                           
<?xpacket end="w"?></metadata>
<defs>
    <style>
      .cls-1 {
        fill: #d13100;
        stroke-width: 0px;
      }
    </style>
  </defs>
  <path class="cls-1" d="M36.01,41.58c-.45-.37-.81-.98-.75-1.67.05-.69.52-1.29,1.06-1.64.56-.35,1.21-.51,1.86-.44.64.06,1.27.42,1.54.97-.51-.32-1.04-.4-1.55-.36-.51.05-1,.21-1.42.49-.42.26-.74.63-.88,1.08-.14.46-.05.99.14,1.56ZM37.02,44.64c-.14-.5-.15-1.04-.04-1.57.12-.52.37-1.03.85-1.43-.63.09-1.19.61-1.45,1.22-.28.62-.32,1.32-.15,1.99.18.65.62,1.31,1.3,1.58.67.28,1.39.12,1.9-.21-.63.01-1.2-.07-1.6-.35-.4-.28-.67-.72-.8-1.22ZM16.26,73.79h0l1.72.58-1.85-.17,1.03,2-1.19-1.51.88,1.71-1.03-1.3.76,1.48-1.19-1.51.88,1.71-1.27-1.61-.02,1.12-.25-1.1-.02,1.13-.24-1.07-.94,2.06.47-2.04-.87,1.9.4-1.76-.75,1.64.47-2.04-.87,1.9.52-2.26-2.3.35,1.96-.73-2.07.32,1.69-.63-1.79.27,1.96-.73-2.07.32,2.23-.83s0-.05.01-.08l-1.79-1.46,1.85.97-1.62-1.32,1.6.84-1.4-1.14,1.85.97-1.62-1.32,1.99,1.04-.17-2.22.58,2.01-.16-2.09.5,1.74-.14-1.8.58,2.01-.16-2.09.58,2.03,1.61-1.15-1.16,1.4,1.48-1.06-1,1.21,1.28-.91-1.16,1.4,1.48-1.06-1.31,1.59s0,.02,0,.02l2.01.67-1.83-.16,1.74.58-1.58-.14,1.5.5-1.81-.16ZM16.07,73.2c0-.91-.74-1.64-1.64-1.64s-1.64.74-1.64,1.64.74,1.64,1.64,1.64,1.64-.74,1.64-1.64ZM30.36,52.87c.44.07.87.25,1.22.51.35.25.62.6.72,1.01.1.41-.01.88-.21,1.37.42-.3.77-.82.75-1.43,0-.61-.38-1.17-.84-1.51-.47-.34-1.04-.52-1.61-.49-.56.02-1.15.29-1.41.77.47-.25.94-.29,1.39-.23ZM80.56,52.78c-.12,2.03-3.82,2.89-7.27,2.65-3.45-.25-7.14-.8-10.41.8-3.26,1.6-14.1,4.37-17.92,4.87-3.82.49-16.81,7.51-17.49,16.26-.42-3.87-3.08-6.64-5.54-7.85-.07-.04-.16-.01-.21.06-.04.07-.03.16.03.21,3.99,3.25,5.79,8.85,4.42,13.13-1.36,4.26-5.92,5.69-11.3,5.12-.84-.09-1.5.68-1.28,1.5.71,2.63,3.38,6.06,1.66,11.3-.59,1.8-3.13,1.83-3.75.04-1.39-4.04-1.84-7.91-1.84-7.91,0,0-2.16,6.65-.49,9.42,1.66,2.77,3.45,2.22,3.39,4.56-.06,2.34-5.67,2.83-6.71,1.48-.84-1.09-1.65-9.83-1.86-13.79-.06-1.08.35-2.13,1.1-2.91,2.06-2.17,3.79-5.35,3.79-5.35,0,0-.92-4.07-.12-4.8.8-.74,5.79,1.23,7.7-1.29-2.89,1.05-7.02-.68-7.7-2.59-2.45,3.21.8,9.47-6.42,11.21-1.59.38-2.86-1.24-2.11-2.69.33-.63.89-1.39,1.81-2.3,4.25-4.19,3.2-12.93,3.14-15.83-.06-2.89,2.34-12.44,18.35-20.14,15.64-8.68,8.19-17.74,10.66-22.85,0,0-5.05,2.16-8.93-.92s-9.73-10.16-13.8-10.66c10.29-1.05,10.9-2.77,17.68.06,6.78,2.83,8.5,7.02,8.5,7.02,0,0,2.4-1.72,4.13-1.66-1.23-6.16-1.17-10.53,5.24-13.92,6.41-3.39,6.9-3.7,7.45-4.99,1.6,7.88-1.05,16.08-7.58,20.26,4.87,2.03,6.59,9.85,2.83,9.42-1.69,1.1-3.48,1.35-4.72.87-.08-.03-.16,0-.2.08-.04.07-.02.16.05.21,1.47,1.01,3.74.59,4.62-.29.86.62,1.91-.12,1.91-.12,0,0-.55,2.16-4.13,2.77,2.98,2.57,3.9,7.53,4.8,9.79.25.64-.04,1.37-.68,1.61-2.41.89-4.67-.15-7.31-2.68-.06-.06-.16-.06-.22,0-.06.06-.07.15-.02.22,2.18,2.81,4.61,4.49,7.31,3.5,3.2-1.17,5.85-5.11,9.61-6.28,3.76-1.17,8.38-1.42,9.3.74.92,2.16-3.14,4.43-8.01,5.54s-10.59,5.79-12.87,9.49c5.73-5.24,16.01-4.19,19.28-4,3.26.18,7.64,0,9.05-.37,1.42-.37,3.2,0,3.08,2.03ZM48.06,28.16c.62.21,1.26.18,1.39.18.15,0,.5-.04,1.03-.72.26-.33.11-.83-.3-.93-.55-.14-1.34-.08-2.25.6-.31.23-.24.75.13.87ZM45.27,16.88c.68-3.33,8.13-5.73,7.14-12.26,0,2.03-9.18,4.8-7.14,12.26ZM33.38,20.39c-6.04-7.33-10.22-4.25-14.97-5.54,5.54,2.65,7.76,7.76,14.97,5.54ZM38.31,25.28c0,.66.54,1.2,1.2,1.2s1.2-.54,1.2-1.2-.54-1.2-1.2-1.2-1.2.54-1.2,1.2ZM35.14,31.93c.21.71.79,1.3,1.42,1.64.64.35,1.35.47,2.03.46.34,0,.68-.06,1.01-.12l.49-.14c.14-.04.26-.08.38-.12.5-.17,1.04-.25,1.59-.33,1.1-.13,2.25-.12,3.46-.06-1.03-.66-2.23-1.01-3.48-1.1-.63-.05-1.27.01-1.9.13l-.83.19c-.25.04-.49.08-.74.07-.98.02-1.93-.29-2.36-1.06-.22-.38-.33-.9-.29-1.44,0-.55.14-1.12.24-1.72-.4.46-.74.97-.95,1.58-.22.6-.3,1.32-.06,2.02ZM36.09,42.11c-2.38,2.02,1.07,6.62,3.62,4.85-1.46,4.91,5.74,6.21,7.53,2.15-5.33-1.38-10.48-7.08-6.52-10.5-4.39-4.09-8.15,2-4.64,3.5ZM11.78,60.5c-1.32.63.29,1.84.89.68-.12.24-.18,1.05.48,1.11.66.07.72-.49.58-1.23.08.36.7,1.07,1.09.35.4-.73-.33-.99-.33-.99,1.11-.06.8-1.49-.31-1.2.52-1.05-.91-1.42-1.01-.56-.58-1.12-1.58-.14-1.02.69-1.15-.57-1.48.78-.37,1.16ZM11.03,65.37c1.14-.42,2.36-.63,3.57-.58,1.21.04,2.4.33,3.46.91,1.06.58,1.96,1.46,2.64,2.54-.42-1.2-1.23-2.3-2.34-3.03-1.1-.74-2.42-1.11-3.73-1.16-1.32-.04-2.64.22-3.82.79-1.17.55-2.24,1.47-2.73,2.66.75-1.04,1.83-1.69,2.96-2.13ZM17.54,75.08c3.3.3,2.56-3.3-.07-3.23,2.89-1.74.39-4.39-2.04-2.47.48-3.82-4.47-1.98-2.76,1-.37-.61-2.06-1.89-3.15-.52-1.09,1.37.07,2.28,1.91,3.04-.91-.35-3.36.02-2.32,1.93,1.04,1.91,2.67.67,2.67.67-1.43,2.54,2.15,3.89,3.08,1.02,1.58,2.65,4.45,0,2.67-1.43ZM20.51,84.82c-.57.41-1.22.74-1.91,1.04.75,0,1.52-.19,2.21-.54.7-.35,1.3-.89,1.76-1.54.45-.65.74-1.41.84-2.18.11-.77.04-1.55-.19-2.27-.12,1.49-.45,2.89-1.26,4.02-.39.57-.89,1.06-1.45,1.47ZM31.39,57.05c4.85-2.92.66-7.37-3.43-4.16.8-6.42-7.52-3.32-4.63,1.68-.62-1.02-3.47-3.17-5.29-.88-1.82,2.3.11,3.83,3.21,5.11-1.53-.58-5.65.04-3.9,3.25,1.75,3.21,4.49,1.13,4.49,1.13-2.41,4.27,3.61,6.53,5.18,1.71,2.66,4.45,7.48,0,4.49-2.41,5.55.51,4.3-5.55-.11-5.44ZM47.67,56.11c-.8.49-1.62.89-2.47,1.01-.84.14-1.68,0-2.43-.33-1.5-.68-2.68-2.03-3.46-3.54-.11-.18-.2-.38-.29-.57l-.29-.62c-.21-.46-.47-.9-.76-1.31-.61-.81-1.38-1.5-2.25-1.98-.86-.49-1.81-.79-2.77-.93-.95-.12-1.95-.09-2.82.27.93-.03,1.82.14,2.66.44.84.28,1.62.69,2.31,1.19.68.52,1.29,1.11,1.73,1.81.22.35.43.71.59,1.09l.28.63c.1.23.19.45.32.67.93,1.72,2.39,3.3,4.38,3.93.98.31,2.07.29,3-.05.94-.36,1.7-.98,2.29-1.71ZM42.45,50.87c1.66.44,3.06-.13,3.8-1.41-1.03.71-2.28.94-3.58.57-1.08-.27-2.25-1.11-2.47-2.29-.25.63.53,2.65,2.24,3.14ZM29.6,59l2.92.98-2.65-.24,2.52.84-3.04-.27h0l2.89.97-3.11-.28,1.72,3.35-2-2.53,1.48,2.87-1.73-2.19,1.27,2.48-2-2.53,1.48,2.87-2.14-2.71-.03,1.87-.42-1.85-.03,1.89-.41-1.81-1.59,3.47.79-3.43-1.46,3.2.68-2.96-1.26,2.76.79-3.43-1.46,3.2.87-3.8-3.87.59,3.3-1.22-3.47.53,2.85-1.06-3,.46,3.3-1.22-3.47.53,3.74-1.39s.01-.09.02-.13l-3.01-2.46,3.11,1.63-2.72-2.23,2.69,1.41-2.35-1.92,3.11,1.63-2.72-2.23,3.35,1.75-.28-3.73.97,3.38-.26-3.5.84,2.92-.23-3.03.97,3.38-.26-3.5.98,3.41,2.71-1.94-1.95,2.35,2.48-1.77-1.68,2.03,2.14-1.53-1.95,2.35,2.48-1.77-2.21,2.66s0,.03.01.04l3.38,1.13-3.07-.28ZM29.04,59.31c0-1.53-1.24-2.76-2.76-2.76s-2.76,1.24-2.76,2.76,1.24,2.76,2.76,2.76,2.76-1.24,2.76-2.76ZM24.96,66.35c-.4.16-.83.23-1.24.19-.41-.03-.8-.18-1.07-.46-.28-.28-.43-.72-.5-1.21-.19.45-.22,1.04.1,1.53.31.49.88.75,1.42.8.55.04,1.1-.09,1.54-.4.45-.29.78-.8.76-1.31-.25.43-.62.7-1.01.87ZM31.31,64.3c-.14.4-.37.78-.67,1.06-.29.29-.66.48-1.05.51-.4.03-.82-.15-1.25-.42.21.44.64.85,1.21.93.57.09,1.15-.17,1.54-.55.39-.39.65-.89.72-1.43.07-.53-.09-1.11-.49-1.44.16.48.12.93-.01,1.33ZM18.48,61.48c-.16-.38-.21-.79-.09-1.16.12-.38.44-.71.84-1.01-.49.04-1.02.29-1.31.79-.29.5-.26,1.13-.05,1.63.22.5.59.93,1.07,1.18.47.26,1.07.32,1.52.07-.5-.02-.91-.22-1.24-.49-.32-.28-.59-.63-.74-1.01ZM33.3,58.27c-.43-.32-1.02-.46-1.49-.27.49.09.87.34,1.16.66.28.32.5.7.6,1.1.11.4.1.81-.07,1.17-.17.36-.53.64-.97.89.49.03,1.05-.15,1.4-.61.36-.46.41-1.09.27-1.61-.15-.53-.46-1-.9-1.32ZM21.28,53.86c-.32-.37-.83-.66-1.41-.6-.58.05-1.07.45-1.36.91-.28.47-.41,1.02-.34,1.56.06.53.37,1.06.83,1.27-.27-.42-.35-.87-.32-1.29.04-.42.17-.84.39-1.19.21-.35.52-.63.89-.75.38-.12.83-.06,1.31.1ZM24.42,51.15c.35-.25.75-.42,1.16-.47.41-.07.82,0,1.15.2.34.21.58.6.77,1.06.08-.48-.03-1.06-.45-1.46-.41-.41-1.03-.53-1.57-.45-.54.09-1.05.34-1.41.75-.37.39-.57.96-.44,1.45.15-.48.44-.82.78-1.08Z"/>
</svg>