<?xml version="1.0" encoding="UTF-8"?>
<svg id="Layer_1" data-name="Layer 1" xmlns="http://www.w3.org/2000/svg" viewBox="0 0 21.34 21.76">
  <defs>
    <style>
      .cls-1 {
        fill: #d13100;
        stroke-width: 0px;
      }
    </style>
  </defs>
  <path class="cls-1" d="M2.21,8.87c0-.33.02-.71.09-1.06-.31.24-.59.45-.89.66-.19.14-.4.21-.59.21-.26,0-.49-.14-.68-.42-.09-.16-.14-.33-.14-.49,0-.26.14-.52.42-.71C2.75,5.62,5.11,3.25,6.56.49c.19-.33.45-.49.78-.49.14,0,.28.02.45.07.35.14.56.35.56.66,0,.14-.05.31-.14.49-.09.17-.19.35-.31.52h5.67c1.06,0,1.6.52,1.6,1.15,0,.28-.09.56-.33.87-.59.82-1.41,1.67-2.26,2.4h4.47c1.32,0,1.93.52,1.93,1.81v3.81c0,1.32-.61,1.84-1.93,1.84h-6.73c-1.46,4.24-4.45,6.68-8.99,8.07-.14.05-.28.07-.42.07-.42,0-.73-.21-.87-.61-.02-.12-.05-.24-.05-.35,0-.35.21-.64.64-.78,3.76-1.08,6.42-2.99,7.79-6.4h-4.31c-1.29,0-1.91-.52-1.91-1.84v-2.92ZM4.68,7.74c-.49,0-.71.14-.71.61v3.08c0,.47.21.61.71.61h4.26c.38-1.41.47-2.87.54-4.31h-4.8ZM6.87,3.27c-.82,1.08-1.76,2.07-2.75,2.99.56-.07,1.13-.09,1.67-.09h4.68c.94-.85,1.79-1.74,2.24-2.33.12-.14.16-.26.16-.35,0-.14-.14-.21-.45-.21h-5.55ZM10.54,15.11c0-.42.35-.71.89-.71s.89.28.89.71v3.48c0,1.2.26,1.39,3.46,1.39,2.64,0,3.15-.17,3.46-.64.26-.38.33-.99.38-1.81.02-.47.28-.68.8-.68h.16c.49.05.75.28.75.82v.07c-.05,1.13-.21,2.12-.71,2.87-.54.75-1.36,1.03-4.96,1.03-4.61,0-5.13-.33-5.13-2.45v-4.09ZM16.49,12.05c.47,0,.68-.14.68-.61v-3.08c0-.47-.21-.61-.68-.61h-5.2c-.07,1.46-.19,2.87-.52,4.31h5.72ZM18.19,16.99c.14.14.21.33.21.54s-.09.45-.31.64c-.19.16-.4.26-.61.26s-.42-.09-.61-.28c-.71-.73-1.74-1.76-2.66-2.45-.19-.14-.28-.33-.28-.52s.09-.38.24-.56c.19-.19.4-.31.64-.31.19,0,.4.07.59.21.87.66,2.02,1.62,2.8,2.47Z"/>
</svg>