<?xml version="1.0" encoding="UTF-8"?>
<svg id="Layer_1" data-name="Layer 1" xmlns="http://www.w3.org/2000/svg" viewBox="0 0 22 21.84">
  <defs>
    <style>
      .cls-1 {
        fill: #d13100;
        stroke-width: 0px;
      }
    </style>
  </defs>
  <path class="cls-1" d="M10.23,1.81c.35,0,.54.33.54.73s-.19.78-.54.78h-1.06c-.24.92-.52,1.86-.89,2.73h2.16c.35,0,.54.35.54.78,0,.38-.19.75-.54.75H.54c-.35,0-.54-.38-.54-.75,0-.42.19-.78.54-.78h2.47c-.19-.92-.4-1.84-.73-2.73h-1.22c-.35,0-.54-.38-.54-.78s.19-.73.54-.73h3.88V.64c0-.42.33-.64.87-.64s.92.21.92.64v1.18h3.51ZM3.01,21.13c0,.49-.31.71-.85.71s-.85-.21-.85-.71v-10.64c0-1.13.64-1.58,1.86-1.58h4.82c1.22,0,1.81.45,1.81,1.58v9.2c0,1.34-.68,1.91-2.12,1.91-.61,0-1.2-.07-1.69-.16-.31-.07-.49-.33-.49-.71,0-.07,0-.12.02-.19.05-.35.28-.59.59-.59.05,0,.09,0,.17.02.31.07.8.12,1.18.12.54,0,.71-.14.71-.75v-2.21H3.01v4ZM8.16,10.87c0-.38-.24-.49-.68-.49h-3.81c-.42,0-.66.12-.66.49v1.48h5.15v-1.48ZM3.01,15.74h5.15v-2H3.01v2ZM3.88,3.32c.31.89.56,1.81.73,2.73h2.12c.35-.89.66-1.79.87-2.73h-3.72ZM13.51,4.4c0,.38.21.49.66.49h5.34c1.04,0,1.51.4,1.51,1.34v1.53c0,.92-.47,1.34-1.51,1.34h-5.46c-.45,0-.61.12-.61.49v1.01h7.01c.33,0,.52.28.52.64s-.19.71-.52.71h-7.01v1.51h7.01c.33,0,.52.28.52.64s-.19.71-.52.71h-7.01v1.51h6.99c.33,0,.52.28.52.61s-.24.73-.59.73h-6.92v1.22c0,.78.16.96.96,1.01.52.02,1.15.05,1.79.05,1.01,0,2.02-.02,2.8-.09.61-.05.94-.19,1.11-.47.17-.28.24-.68.28-1.03.05-.35.33-.54.75-.54h.14c.45.05.73.31.73.68v.09c-.07.71-.28,1.48-.57,1.88-.35.49-1.08.78-2.21.89-.75.07-1.67.12-2.59.12s-1.91-.05-2.71-.09c-1.51-.12-2.16-.73-2.16-2.16v-9.86c0-1.06.47-1.58,1.76-1.58h5.29c.38,0,.52-.12.52-.42v-.71c0-.28-.14-.4-.52-.4h-5.27c-1.29,0-1.77-.47-1.77-1.46V.68c0-.49.31-.68.85-.68s.87.19.87.68v1.13h7.25c.35,0,.54.31.54.71,0,.38-.19.73-.54.73h-7.25v1.15Z"/>
</svg>