<?xml version="1.0" encoding="UTF-8"?>
<svg id="Layer_1" data-name="Layer 1" xmlns="http://www.w3.org/2000/svg" viewBox="0 0 22.09 21.48">
  <defs>
    <style>
      .cls-1 {
        fill: #d13100;
        stroke-width: 0px;
      }
    </style>
  </defs>
  <path class="cls-1" d="M9.62,0c.33,0,.59.16.73.49.07.12.09.24.09.35,0,.31-.21.56-.59.68-1.74.54-4.35.96-6.14,1.11-.42.05-.64.17-.78.59-.31.89-.78,1.95-1.36,2.75-.19.26-.42.4-.71.4-.16,0-.33-.05-.49-.17-.24-.16-.38-.4-.38-.64,0-.19.07-.35.19-.54.56-.73,1.08-1.76,1.34-2.56.21-.75.78-1.22,1.76-1.29,2-.14,4.35-.54,5.98-1.11.12-.05.24-.07.35-.07ZM1.6,8.07c-.21-.14-.35-.38-.35-.61,0-.14.05-.28.16-.42.19-.24.42-.35.66-.35.17,0,.31.05.42.14.16.12.35.24.54.35.42-.52.82-1.06,1.08-1.55.12-.21.35-.33.61-.33.12,0,.26.02.4.09.28.14.4.4.4.66,0,.14-.05.28-.12.38-.35.52-.8,1.08-1.22,1.55.4.31.8.61,1.18.92.8-.82,1.46-1.65,2.02-2.49.14-.19.35-.28.56-.28.16,0,.33.05.49.12.26.14.42.35.42.61,0,.17-.07.33-.21.5-.96,1.22-2.28,2.63-3.74,3.88,1.25-.05,2.52-.14,3.76-.28-.19-.35-.38-.66-.56-.89-.09-.14-.14-.26-.14-.38,0-.24.16-.4.42-.54.14-.07.28-.09.42-.09.24,0,.45.14.59.35.56.8,1.2,1.95,1.62,2.89.05.12.07.21.07.31,0,.31-.19.52-.47.66-.14.07-.31.12-.42.12-.28,0-.49-.14-.59-.42-.09-.24-.21-.52-.33-.8-2.75.38-5.81.61-8.16.68-.54,0-.8-.19-.85-.71v-.14c0-.4.26-.64.73-.64.56,0,1.18,0,1.76-.02.52-.42,1.01-.87,1.51-1.32-.94-.75-1.91-1.44-2.68-1.93ZM7.11,16.16c.8,1.44,2.16,2.4,3.53,3.01.28.14.42.38.42.66,0,.14-.05.31-.14.47-.21.31-.45.45-.71.45-.16,0-.33-.05-.54-.16-1.44-.75-2.8-1.91-3.72-3.6-.19.49-.42.94-.71,1.36-.8,1.27-2.31,2.42-3.55,3.01-.17.07-.33.12-.49.12-.28,0-.56-.12-.73-.42-.07-.16-.12-.31-.12-.47,0-.28.16-.54.49-.68,1.18-.49,2.49-1.41,3.11-2.35.26-.4.49-.87.68-1.39H1.06c-.45,0-.66-.24-.66-.73,0-.45.21-.73.66-.73h3.93c.05-.38.09-.8.09-1.22.02-.42.31-.61.82-.61s.78.17.78.61v.05c-.02.4-.07.8-.12,1.18h4.07c.45,0,.66.28.66.73,0,.47-.21.73-.66.73h-3.53ZM5.65,2.68c.31,0,.56.12.68.42.21.47.4,1.06.54,1.65.02.05.02.12.02.16,0,.33-.23.61-.64.71-.07.02-.14.02-.19.02-.35,0-.64-.23-.66-.49-.12-.56-.31-1.22-.47-1.67-.02-.07-.05-.17-.05-.24,0-.26.14-.5.49-.54.09-.02.17-.02.26-.02ZM8.92,2.21c.26,0,.49.12.68.35.47.61.96,1.44,1.29,2.12.05.14.07.26.07.35,0,.28-.16.5-.49.66-.12.07-.24.09-.35.09-.28,0-.54-.19-.68-.52-.26-.63-.73-1.46-1.15-2.05-.09-.14-.14-.28-.14-.4,0-.24.14-.42.4-.54.14-.05.26-.07.38-.07ZM21.48,19.58c.38,0,.61.31.61.78s-.24.8-.61.8h-7.27c-1.39,0-2.02-.52-2.02-1.91v-9.91c0-.66.05-1.79.19-2.66-.4.7-.87,1.46-1.34,2.02-.17.21-.38.31-.61.31-.16,0-.33-.07-.49-.19-.19-.17-.33-.4-.33-.63,0-.14.05-.26.14-.4,1.88-2.31,3.15-4.92,3.81-7.25.09-.38.35-.54.68-.54.09,0,.21.02.33.05.4.09.61.33.61.66,0,.09-.02.21-.05.33-.31.89-.73,1.91-1.18,2.85.38-.05.82-.09,1.29-.09h1.53c.54-1.11.89-2.07,1.15-3.01.09-.42.35-.61.71-.61.12,0,.21.02.33.05.35.09.64.33.64.66,0,.09-.02.19-.05.28-.31.85-.68,1.76-1.11,2.64h2.87c.38,0,.61.31.61.78s-.24.8-.61.8h-2.99v3.51h2.52c.38,0,.64.28.64.73s-.26.73-.64.73h-2.52v3.51h2.52c.38,0,.64.28.64.73s-.26.73-.64.73h-2.52v4.28h3.15ZM14.54,5.36c-.42,0-.68.12-.68.59v2.92h2.85v-3.51h-2.16ZM13.86,10.33v3.51h2.85v-3.51h-2.85ZM16.71,15.29h-2.85v3.69c0,.47.23.59.68.59h2.16v-4.28Z"/>
</svg>