<?xml version="1.0" encoding="UTF-8"?>
<svg id="Layer_1" data-name="Layer 1" xmlns="http://www.w3.org/2000/svg" viewBox="0 0 86.71 90.64">
  <defs>
    <style>
      .cls-1 {
        fill: #d13100;
        stroke-width: 0px;
      }
    </style>
  </defs>
  <path class="cls-1" d="M18.59,56.77c-.5.39-1.25.42-1.86.19-.63-.22-1.16-.68-1.51-1.26-.34-.57-.5-1.34-.23-2,.26-.67.87-1.07,1.46-1.2-.44.44-.77.89-.85,1.38-.08.48.05.97.32,1.41.26.44.64.82,1.08,1.1.45.27.98.44,1.6.38ZM16.27,44.84c.42-.25.98-.3,1.6-.24-.48-.36-1.18-.57-1.86-.34-.68.22-1.16.83-1.38,1.46-.21.64-.22,1.34.02,1.97.22.62.73,1.17,1.34,1.3-.44-.43-.65-.95-.74-1.47-.07-.52-.03-1.06.14-1.54.16-.48.45-.9.87-1.15ZM24.72,59.66c-.49.2-1.02.29-1.53.24-.51-.04-.98-.22-1.33-.56-.35-.35-.53-.88-.63-1.49-.23.56-.27,1.28.13,1.88.38.61,1.09.92,1.76.98.67.05,1.35-.12,1.9-.5.55-.36.96-.99.93-1.62-.31.54-.76.87-1.24,1.07ZM20.51,42c.33-.44.77-.82,1.25-1.05.48-.24,1.01-.34,1.51-.21.5.12.96.51,1.38,1.01-.09-.63-.46-1.31-1.14-1.64-.68-.34-1.49-.24-2.13.07-.64.32-1.16.84-1.45,1.49-.3.63-.33,1.42.04,1.98,0-.66.22-1.2.54-1.65ZM20.98,26.88c-.2-2.5-1.69-4.16-3.81-4.55,1.48,1.08,2.41,2.68,2.54,4.65.15,1.63-.43,3.65-1.95,4.52.99.04,3.39-2.03,3.22-4.63ZM11.45,30.16c.52-.03.97-.36,1.24-.76.27-.41.4-.89.36-1.37-.04-.47-.29-.95-.69-1.16.23.38.28.78.24,1.16-.05.38-.18.74-.39,1.04-.2.31-.48.54-.82.64-.34.1-.74.02-1.16-.13.27.34.71.62,1.23.58ZM7.34,40.6c-.58-.43-1.05-1.04-1.37-1.71-.31-.68-.46-1.45-.27-2.31-.63.63-.8,1.68-.58,2.59.21.92.76,1.75,1.51,2.34.75.58,1.8.93,2.78.66.98-.25,1.65-1.04,1.94-1.85-.69.55-1.39.93-2.09.96-.69.03-1.36-.23-1.93-.68ZM28.32,42.43c.51-.13,1.05-.15,1.54-.03.5.1.94.35,1.24.74.3.39.4.94.42,1.56.31-.52.44-1.23.13-1.88-.3-.65-.96-1.06-1.61-1.21-.66-.14-1.36-.07-1.95.24-.59.29-1.08.85-1.14,1.48.38-.49.87-.76,1.38-.89ZM16.06,33.34c.32.86.49,1.68.3,2.38-.19.69-.66,1.28-1.29,1.7-.62.44-1.37.71-2.14.82-.78.09-1.59,0-2.39-.46.43.83,1.42,1.33,2.4,1.4.99.08,1.98-.21,2.81-.77.81-.56,1.49-1.5,1.54-2.56.06-1.06-.52-1.97-1.23-2.51ZM12.87,24.64c.33.15.63.38.84.66.22.27.35.6.34.93,0,.34-.2.68-.46,1.02.39-.14.77-.47.89-.95.13-.48-.05-.99-.33-1.35-.29-.36-.7-.63-1.15-.72-.44-.11-.95-.01-1.26.29.42-.1.79-.03,1.13.12ZM33.57,50.16l-4.18.81,2.04,1.09-2.26-.59,2.06,1.1-2.21-.58,2.9,3.71-3.31-2.8,2.67,3.41-2.85-2.42,2.31,2.95-3.31-2.8,2.67,3.41-3.67-3.11-1.55,4.58.53-4.3-1.39,4.11.46-3.71-1.2,3.55.53-4.3-1.39,4.11.6-4.88s-.09-.06-.13-.1l-4.4,1.9,3.55-2.49-3.98,1.72,3.07-2.15-3.44,1.48,3.55-2.49-3.98,1.72,3.82-2.67-4.25-1.81,4.25.86-3.99-1.7,3.67.74-3.44-1.47,4.25.86-3.99-1.7,4.28.86-.58-4.06,1.47,3.46-.53-3.72,1.27,2.99-.46-3.22,1.47,3.46-.53-3.72,1.66,3.93s.03,0,.05,0l3.15-3.06-2.04,3.2,2.73-2.64-1.76,2.77,2.36-2.28-2.02,3.18h0l2.71-2.62-2.07,3.25h4.65l-3.91.77h3.98l-3.38.66h3.44l-3.91.77h3.98ZM26.81,47.11c-1.67-.87-3.73-.21-4.59,1.46-.87,1.67-.21,3.73,1.46,4.59,1.67.87,3.73.21,4.59-1.46.87-1.67.21-3.73-1.46-4.59ZM81.04,54.74c2.8-8.18,3.5-31.66-10.05-35.52,7.13,3.86,10.87,17.99,7.13,25.47.93-10.63-7.48-22.55-16.01-22.32,9.11,2.57,23.51,28.47-5.26,49.54,0,0,20.1-20.68,4.67-36.45,5.49,8.76,3.39,22.9-4.79,29.21,4.67-6.43,4.67-16.24.12-20.1,2.22,4.44,2.1,18.81-7.94,24.42,6.19-9.81,1.64-13.79,1.64-13.79,0,0,.93,8.3-7.71,13.32,3.27-5.02,2.34-9.23,2.34-9.23,0,0-2.8,10.16-11.22,8.3-3.27,2.8-3.86,8.7-3.97,10.57.13,1.03,1.16,2.12,2.25,3.01.31.25.03.75-.35.6l-1.75-.71c-.68-.28-1.46-.16-2.03.31-.72.59-1.74,1.47-2.69,2.4-.38.37-1,0-.85-.52.13-.42.26-.82.38-1.15.13-.37-.23-.73-.6-.59-.52.19-1.22.44-1.99.69-.19.06-.4-.03-.48-.21-.08-.18-.02-.4.15-.5,3.37-2.08,6.93-5.53,6.44-12.39-2.28,1.58-4.15,5.96-4.15,5.96,0,0-5.61,8.06-5.61,9.11,0,.49,1.68.33,3.67-.08.24-.05.48.1.54.34.06.24-.07.49-.31.56-3.28,1.06-7.1,2.47-9.09,5.47-.11.16-.31.22-.49.14-.18-.08-.27-.27-.23-.45.27-1.11.63-2.07.92-2.76.23-.54-.19-1.13-.77-1.1-1.23.06-3.16.16-5.08.35-.21.02-.39-.12-.43-.32-.04-.2.09-.4.29-.45,3.19-.8,6.42-1.32,6.99-1.81.88-.76,3.27-3.15,3.97-4.44s4.79-6.95,1.58-13.9C.71,54.27-2.26,34.17,4.04,23.89c-2.14,1.21-4.75-2.22-.97-4.63,3.38-2.16,2.27-5.67-2.52-4.71-.49.1-.76-.55-.33-.81,1.52-.91,3.48-1.41,3.48-1.41,0,0-2.1-3.86.99-7.89-.12,1.17,1.34,2.98,1.34,2.98,0,0-.7-3.74,2.92-6.66-.06,1.58.47,4.5.99,4.91.23-2.98,3.68-5.2,5.55-5.67,0,0-1.75,2.45-1.64,3.97,1.87-1.99,5.08-2.22,6.25-2.16-2.16,1.05-3.1,3.39-3.1,3.39,0,0,4.03.35,5.9-2.28,3.1,6.48-2.57,8-5.14,7.3-2.57-.7-5.73.93-5.73.93,0,0,13.96,9.17,14.25,23.43,5.37,2.4,8.82,4.44,8.82,4.44,0,0-3.51-29.85,26.05-30.55,29.56-.7,29.33,35.75,19.86,46.27ZM7.11,22.65c-.09.05-.13.17-.1.27.04.1.15.16.25.13,3.1-.71,4.18-4.3,2.12-6.41-.07-.07-.18-.09-.27-.03-.09.05-.12.16-.09.26.92,2.57-.17,4.8-1.91,5.78ZM6.15,12.03c0,.66.53,1.19,1.19,1.19s1.19-.53,1.19-1.19-.53-1.19-1.19-1.19-1.19.53-1.19,1.19ZM4.29,29.72c.27,3.15,5.41,3.94,5.57.3,1.31,1.78,4.69-.51,3.56-2.42,2.71-.2,1.59-5.16-2.31-3.42,1.87,3.21-2.91,5.86-6.82,5.55ZM16.95,32.57c7.48-.4,6.65-11.68-.87-10.82,1.69,2.14,2.41,4.66,2.41,4.66l-1.9-2.14.79,3.31-.86-1.03.41,2.86-.97-1.55.48,2.97-.79-1.79s.24,3.45.1,3.24c-.14-.21-.62-2.17-.62-2.07s0,4.03-.03,3.93c-.03-.1-.62-2.34-.62-2.34,0,0-.45,4-.45,3.55s-.31-2.31-.31-2.31l-.66,3.34-.28-2.07-.93,2.97-.1-2.1-.76,1.55-.17-1.03-1.03,2.03.14-1.55s-1.59,2.62-1.55,2.45c.03-.17.59-2.24.59-2.24l-1.34,1.66.21-1.45-1.31,1.03c-.56-.56-.59-1.62-.53-2.11-1.66,1.32-1.75,3.43-1.37,4.65,1.06,3.43,7.17,3.9,7.43-.21,3.96,2.29,8.59-4.73,4.9-7.37ZM31.68,46.21c3.71-5.78-3.63-7.86-6.01-2.96-.44-6.97-7.69-4.9-6.5,1.39-6.57-4.52-7.9,6.34-.79,6.02-1.47.1-5.44,1.99-3.96,5.29,1.48,3.3,4.26,2.05,7.41-.62-1.51,1.35-3.17,6.21,1.34,6.12,4.51-.1,3.78-4.27,3.78-4.27,3.31,5.06,9.2-.25,4.82-4.7,6.38-.39,4.24-8.19-.09-6.28ZM41.92,52.86c2.48-1.92-1.23-5.63-4.52-3.21,2.2,2.9.57,7.72-2.88,11.08,2.27,2.85,7.71.32,5.53-3.27,2.39.87,4.18-3.48,1.87-4.6ZM49.62,54.87c-.1-1.01-.43-2.02-1.01-2.88-.58-.85-1.42-1.54-2.39-1.8.49.88.84,1.65,1.07,2.46.24.79.38,1.59.46,2.42.08.82.11,1.67.1,2.54,0,.88-.04,1.75-.12,2.75.78-.64,1.26-1.56,1.57-2.5.3-.95.41-1.96.31-2.98ZM54.99,48.58c-.75-1.29-1.94-2.38-3.36-2.92-1.41-.56-3.07-.47-4.24.32,2.82-.06,4.79,1.51,5.99,3.55.6,1.03,1.01,2.17,1.22,3.4.21,1.23.23,2.51.15,3.92,1.62-2.27,1.77-5.66.24-8.26ZM60.1,39.56c-1.26-1.29-2.97-2.08-4.74-2.32-1.76-.25-3.63.06-5.18.97-1.56.89-2.68,2.48-2.91,4.14.97-1.36,2.18-2.32,3.55-2.83,1.36-.52,2.85-.62,4.29-.43,1.44.21,2.84.7,4.02,1.56,1.18.86,2.1,2.1,2.63,3.68.27-1.65-.39-3.51-1.66-4.78ZM59.57,25.39c-1.42-.39-2.95-.32-4.33.03-1.4.32-2.66,1.02-3.7,1.9-1.05.88-1.97,1.78-2.96,2.63-.97.85-2.14,1.63-2.99,2.72-.84,1.09-1.29,2.43-1.52,3.77-.2,1.35-.14,2.75.37,4.03h.28c.55-1.24.97-2.36,1.45-3.44.45-1.09,1-2.09,1.43-3.18.42-1.09.8-2.33,1.61-3.26.79-.94,1.9-1.59,3.06-1.93,1.17-.33,2.31-.52,3.4-.64,1.1-.09,2.16.07,3.19.27,2.09.36,4.07,1.44,6.28,2.91l.23-.17c-.75-2.57-2.94-4.86-5.81-5.66ZM71.4,16.06c-3.15-2.54-7.4-3.79-11.59-3.52-2.1.14-4.15.75-6.04,1.6-1.91.83-3.63,2.06-5.07,3.52-1.45,1.45-2.73,2.96-4,4.51-1.26,1.54-2.64,3.1-3.57,4.96-.92,1.86-1.31,3.94-1.4,5.98-.05,2.05.21,4.11.98,6l.28-.03c.3-2,.52-3.88.92-5.71.36-1.84.9-3.59,1.41-5.38.5-1.78,1.03-3.68,2.11-5.27,1.07-1.59,2.56-2.89,4.21-3.83,1.66-.93,3.37-1.67,5.11-2.27,1.75-.57,3.54-.88,5.34-1.09,3.62-.46,7.31-.08,11.2.79l.12-.25ZM35.11,48.55c-.2-.65-.6-1.22-1.15-1.59-.54-.38-1.27-.53-1.85-.28.61.1,1.08.39,1.45.77.36.38.64.84.78,1.33.15.49.15,1-.04,1.44-.2.45-.63.81-1.16,1.13.6.02,1.29-.22,1.71-.8.43-.58.46-1.35.28-1.99ZM7.11,32.01c1.26.07,2.26-1.11,2.23-1.59-.42.75-1.4,1.04-2.19.97-.96-.05-1.74-.5-2.27-1.21.2,1.03,1.01,1.74,2.23,1.83ZM32.2,55.57c-.05.52-.22,1.04-.49,1.46-.27.43-.65.77-1.11.91-.47.15-1.03.06-1.61-.14.38.47,1.01.83,1.73.76.71-.06,1.33-.54,1.68-1.1.35-.58.52-1.25.44-1.92-.07-.65-.44-1.31-1.01-1.58.33.52.42,1.07.38,1.6Z"/>
</svg>