<?xml version="1.0" encoding="UTF-8"?>
<svg id="Layer_1" data-name="Layer 1" xmlns="http://www.w3.org/2000/svg" viewBox="0 0 110.6 86.96">
  <defs>
    <style>
      .cls-1 {
        fill: #d13100;
        stroke-width: 0px;
      }
    </style>
  </defs>
  <path class="cls-1" d="M63.5,40.11l1.98-3.35-2.6,2.86,1.96-3.33-2.24,2.47,1.7-2.87-2.6,2.86,1.96-3.33-2.77,3.05-1.13-4,.28,3.85-1.05-3.72.24,3.33-.91-3.21.28,3.85-1.05-3.72.31,4.26s-.08.05-.12.08l-3.93-1.93,3.05,2.37-3.47-1.7,2.63,2.05-2.99-1.47,3.05,2.37-3.47-1.7,3.4,2.64-3.69,2.18,3.65-1.25-3.33,1.96,3.16-1.08-2.87,1.69,3.65-1.25-3.33,1.96,3.97-1.36-1.13,1.69,1.53-1.41-1.16,1.73,1.51-1.4-.54,3.75,1.18-3.35-.51,3.51,1.02-2.89-.44,3.03,1.18-3.35-.51,3.51,1.37-3.91,2.12,2.69-1.41-3.04h0l2.08,2.63-1.23-2.65,1.81,2.29-1.43-3.07,2.1,2.66-1.65-3.55s.01-.03.02-.04l3.79-.25-3.29-.64,3.34-.22-2.84-.55,2.89-.19-3.29-.64,3.34-.22-3.59-.7ZM61.86,44.1c-1.13,1.07-2.91,1.02-3.98-.11-1.07-1.13-1.02-2.91.11-3.98,1.13-1.07,2.91-1.02,3.98.11,1.07,1.13,1.02,2.91-.11,3.98ZM74.05,45.34c.37.58.2,1.35-.37,1.72-.58.37-1.35.2-1.72-.37s-.2-1.35.37-1.72c.58-.37,1.35-.2,1.72.37ZM43.82,39.32c-.34-.54.05-2.54,1.55-3.28,1.46-.69,2.86-.39,3.76.67-1.08-.48-2.27-.49-3.41.07-.96.44-1.9,1.41-1.9,2.54ZM43.48,48.27c.48-.05.96-.21,1.38-.59-.15.55-.68.99-1.26,1.15-.58.18-1.22.13-1.79-.09-.56-.23-1.09-.71-1.26-1.34-.17-.63.05-1.25.41-1.67-.08.56-.08,1.08.13,1.47.2.39.57.68,1,.86.43.18.92.25,1.39.22ZM74.81,39.2c-.39.34-.97.56-1.57.41-.6-.15-1.05-.64-1.28-1.16-.22-.54-.27-1.13-.11-1.68.15-.55.55-1.05,1.07-1.2-.35.4-.5.85-.53,1.3-.03.45.04.91.22,1.31.17.4.45.74.82.93.38.19.86.19,1.39.1ZM110.59,78c-1.03-5.6-8.34-7.68-12.28-9.71-4.35-2.24-7.14-10.68-14.15-13.74,0-5.17,4.9-9.79,4.76-14.42,4.15.27,5.71-2.38,5.03-5.58,4.15-3.74,4.76-10.27-2.86-12.92-7.62-2.65-14.35.54-14.42,7.62-6.12,3.5-5.2.37-15.61-.14-10.41-.51-19.38,5-24.59,12.96-7.14-1.12-6.73-15.1-6.02-24.59.71-9.49-6.53-22.75-19.38-15.3C-1.77,9.63-2.38,29.01,3.84,32.79c4.89,2.97,10.8,2.66,14.58-2.52.59-.81-.5-1.77-1.25-1.12-7.85,6.88-14.45,1.65-13.74-7.68.82-10.81,7.55-17.45,14.18-16.73,6.63.71,9.79,8.26,7.96,20.2-1.84,11.94.71,16.02,9.9,24.43,2.96,2.65,7.14,8.93,9.64,14.03,1.38,2.45.51,10.25-2.5,13.93-1.65,2.01-2.71,3.94-3.34,5.28-.39.84.22,1.83,1.15,1.8,1.29-.03,2.6-.53,4.03-.92,1.94-.52,4.84.94,6.24,1.76.5.29,1.12.19,1.51-.24.45-.5.4-1.27-.1-1.72-1.17-1.03-3.31-2.41-7.4-2.7-.29-.02-.5-.32-.39-.59,2.99-7.48,13.56-10.68,9.93-18.34,7.42,5.59,1.24,14.54-.69,17-.5.63-.52,1.53,0,2.15.01.02.03.03.04.05.59.68,1.61.77,2.41.35,3-1.61,5.8-.87,7.13-.38.39.14.84,0,1.07-.34l.02-.02c.46-.69-.01-1.61-.84-1.65-1.36-.08-2.93-.43-4.38-.68-.69-.12-1.03-.9-.66-1.49,5.76-9.24,6.12-13.44,1.53-19.88,2.14-.1,11.43-1.43,13.93-5.82,0,0-1.43,4.18-.87,8.57.56,4.39,5.66,10.61,6.68,16.27.8,4.42-1.64,7.47-4,8.89-.2.12-.29.36-.21.58.08.22.3.35.53.32,1.15-.16,2.51-.69,3.43-2.13,0,.44-.06,1.5-1.05,3.03-.08.13-.06.3.05.4.11.1.28.11.4.01,1.12-.89,1.82-2.03,2.08-3.09.1.5.12,1.15-.1,1.95-.03.11.02.23.13.29.11.05.23.02.31-.07,6.56-8.54-.7-20.58-.94-26.04,2.19,4.23,8.62,3.57,11.99,6.17,3.37,2.6,7.45,7.91,10.51,8.31,2.38.32,3.07,2.77,2.67,4.93-.04.23.09.46.31.55.22.08.47,0,.59-.21.69-1.17.71-2.51.71-2.51,0,0,.85.74,1.46,1.77.09.15.26.21.42.16.16-.05.26-.21.25-.38-.15-1.61-1.14-2.81-1.14-2.81,0,0,.94.52,1.95,2.33.09.15.27.22.44.17.17-.06.27-.23.23-.41ZM88.37,39.11c-1.34-.7-1.43-2.09-1.43-2.09,3.06-.9,5.48-.36,6.07-.05-1.43,2.19-3.3,2.84-4.64,2.14ZM95.41,29.88c.21.84-.39,2.52-1.87,2.58-.28.01-.54.16-.7.4l-.05.08c-.16.25-.18.57-.04.84.27.54.6,1.46.52,2.25-1.4-.78-3.39-.97-6.5-.03.26-1.07,1.39-1.89,2.08-2.29.14-.08.23-.21.27-.37.04-.15.01-.31-.07-.45-.13-.22-.39-.33-.64-.28-2.35.48-4.47-1.93-3.2-4.24,1.35-2.45,4.9-1.68,6.43,1.05,1.56-2.27,3.55-.46,3.77.46ZM89.63,22.22c.67.21,1.26.59,1.8,1.03.52.46.98.99,1.32,1.6.32.6.61,1.3.46,1.99-.2-.64-.6-1.14-.99-1.63-.41-.48-.84-.93-1.32-1.33-.47-.41-.98-.77-1.53-1.08-.55-.3-1.13-.55-1.77-.79.67-.1,1.37-.01,2.03.21ZM85,22.71c.76-.03,1.52.11,2.25.35.72.26,1.41.62,1.98,1.15.57.51,1.03,1.24,1.02,2.01-.33-.67-.85-1.13-1.41-1.51-.57-.37-1.2-.66-1.85-.88-.65-.23-1.33-.39-2.02-.49-.69-.09-1.39-.13-2.13-.01.62-.43,1.4-.6,2.16-.62ZM78.95,27.38c.53-.52,1.55-1.09,3.36-.89.45.05.77.45.72.9-.05.45-.46.77-.9.72-.65-.07-1.54-.06-2.04.44-.37.36-.52.96-.45,1.79.06.69.35.81.45.85.48.2,1.32-.06,1.76-.43.35-.29.86-.25,1.15.1.29.35.25.86-.1,1.15-.59.49-1.52.88-2.42.88-.35,0-.69-.06-1.01-.19-.49-.2-1.32-.76-1.45-2.21-.15-1.67.42-2.61.93-3.1ZM40.95,45.22c-2.55-1.48-.11-6.31,2.55-5.1-2.18-4.31,4.28-6.72,6.62-3.26-4.71,2.17-8.53,8.32-4.29,10.82-3.38,4.52-7.88-.49-4.88-2.47ZM46.5,44.1c-1.23-.43-.86-1.91.41-1.28-.62-.91.49-1.99,1.13-.76.1-.95,1.69-.54,1.11.62,1.22-.32,1.56,1.25.34,1.32,0,0,.81.29.37,1.1-.44.8-1.12.02-1.21-.38.15.82.09,1.44-.64,1.36-.73-.07-.66-.96-.53-1.23-.66,1.28-2.44-.05-.98-.75ZM52.2,68c-.65,1.45-1.77,2.59-2.99,3.48,1.02-1.13,1.91-2.36,2.41-3.73.5-1.36.59-2.83.3-4.26-.28-1.43-.84-2.81-1.5-4.16-.67-1.34-1.41-2.65-2.16-3.98,1,1.14,1.94,2.36,2.72,3.68.79,1.32,1.42,2.76,1.74,4.3.3,1.54.17,3.22-.51,4.66ZM61.29,54.4c-1.64.07-3.29-.08-4.9-.38-1.62-.29-3.2-.74-4.73-1.31-.35-.13-.69-.26-1.03-.4.4.58.78,1.16,1.12,1.77.95,1.72,1.76,3.56,2.04,5.49-.77-1.78-1.82-3.38-2.94-4.91-.56-.76-1.15-1.51-1.78-2.2-.61-.69-1.28-1.38-1.96-1.85-.35-.24-.43-.72-.19-1.07.22-.32.65-.42.98-.24h.02c1.39.73,2.84,1.34,4.3,1.91,1.46.56,2.96,1.04,4.47,1.43,1.52.38,3.06.68,4.62.84,1.56.15,3.14.15,4.71-.22-1.42.78-3.1,1.09-4.74,1.16ZM65.04,44.41c3.18,3.19-.44,8.36-3.95,3.9.32,3.91-6.36,3.46-4.93-1.63-4.67,2.22-7.22-3.83-2.36-5.04,0,0-3.46-.57-2.31-4.12,1.15-3.55,4.5-.93,5.14.61-1.23-3.19-1.45-5.7,1.53-5.96,2.98-.26,3.38,3.36,3.06,4.53,1.68-5.64,9.81-1.66,4.49,2.25,5.25.77,4.89,7.01-.67,5.46ZM72.9,49.84c-1.12-.11-1.02-1.48-.81-1.89-1.02,1.97-3.74-.08-1.5-1.15-1.88-.65-1.32-2.93.63-1.97-.95-1.4.75-3.06,1.73-1.16.16-1.47,2.59-.83,1.71.95,1.88-.49,2.4,1.92.52,2.03,0,0,1.24.45.57,1.68-.67,1.23-1.73.03-1.86-.59.23,1.27.14,2.21-.98,2.1ZM75.83,63.84c-.62-1.18-1.07-2.48-1.27-3.82-.39-2.7.16-5.38,1.04-7.85-.25,2.62-.62,5.22-.23,7.73.18,1.26.56,2.48,1.04,3.67.5,1.19,1.07,2.37,1.64,3.56-.83-1.03-1.6-2.11-2.21-3.29ZM75.14,39.79c-1.92,1.79-5.37-1.64-3.62-3.62-3.12-.83-.71-6.38,3.46-3.49-2.9,3.34,2.1,7.49,6.73,8-1.01,3.62-7.2,3.39-6.57-.89ZM79.54,57.32c-1.89-5.31,2.09-7.4,3.16-10,1.07-2.6.56-5.15-.51-6.43,3.32,2.35,2.6,5.82.71,8.62-1.89,2.81-3.62,3.47-3.37,7.8ZM80.92,41.09c-.46,1.16-1.57,1.81-3.01,1.64-1.49-.2-2.39-1.8-2.25-2.35.32.96,1.4,1.52,2.34,1.62,1.13.15,2.14-.19,2.93-.91ZM72.82,32.85c-.42.1-.81.3-1.13.58-.32.27-.55.62-.61,1.01-.06.4.08.84.31,1.29-.42-.25-.8-.72-.83-1.31-.04-.59.28-1.14.69-1.5.42-.36.95-.58,1.5-.59.54-.02,1.11.19,1.4.62-.47-.2-.92-.21-1.34-.11ZM41.09,44.47c-.36-.52-.52-1.17-.47-1.82.05-.64.36-1.31.94-1.68.57-.37,1.27-.34,1.8-.12-.58.09-1.1.26-1.43.6-.33.33-.5.78-.54,1.27-.05.48.04.99.23,1.46.2.46.51.89,1.02,1.19-.6.02-1.2-.37-1.55-.89ZM89.26,30.12c0,.7-.57,1.26-1.26,1.26s-1.26-.57-1.26-1.26.57-1.26,1.26-1.26,1.26.57,1.26,1.26ZM92.24,30.59c0-.61.49-1.1,1.1-1.1s1.1.49,1.1,1.1-.49,1.1-1.1,1.1-1.1-.49-1.1-1.1Z"/>
</svg>