<?xml version="1.0" encoding="UTF-8"?>
<svg id="Layer_1" data-name="Layer 1" xmlns="http://www.w3.org/2000/svg" viewBox="0 0 22.14 21.79">
  <defs>
    <style>
      .cls-1 {
        fill: #d13100;
        stroke-width: 0px;
      }
    </style>
  </defs>
  <path class="cls-1" d="M3.46,6c-.61.61-1.27,1.18-1.93,1.69-.17.12-.35.19-.54.19-.24,0-.47-.14-.66-.4-.12-.16-.16-.35-.16-.52,0-.26.12-.49.33-.64.78-.59,1.55-1.25,2.28-1.98-.45-.89-.99-1.74-1.67-2.56-.12-.14-.19-.33-.19-.52,0-.21.09-.45.31-.59.19-.14.4-.21.59-.21.21,0,.42.09.56.28.61.75,1.13,1.53,1.55,2.33.61-.75,1.15-1.55,1.6-2.42.19-.31.42-.45.68-.45.14,0,.31.05.45.12.31.16.47.42.47.7,0,.12-.02.26-.12.38-.68,1.15-1.46,2.26-2.33,3.27,1.03,2.52,1.46,5.51,1.46,9.55,0,2.8-.21,4.61-.66,5.86-.38,1.06-1.13,1.58-2.42,1.58-.73,0-1.46-.14-2.05-.4-.28-.14-.47-.42-.47-.78,0-.09.02-.21.05-.31.14-.38.4-.56.68-.56.09,0,.21.02.31.07.38.17.87.31,1.25.31.73,0,.99-.31,1.2-.99.28-.89.45-2.71.45-4.75,0-1.01-.02-1.93-.07-2.8-.85,1.34-1.93,2.66-2.99,3.65-.17.17-.38.24-.56.24-.24,0-.47-.12-.64-.35-.14-.17-.21-.38-.21-.56,0-.24.12-.47.33-.66,1.32-1.11,2.82-2.8,3.83-4.68-.14-1.04-.38-2.07-.71-3.08ZM8.16,10.42c0-.7.05-1.51.12-2.28-.28.52-.59,1.01-.82,1.32-.19.24-.42.38-.66.38-.19,0-.38-.09-.52-.26-.19-.19-.26-.42-.26-.63s.07-.4.19-.59c1.69-2.24,2.92-5.22,3.51-7.74.12-.42.4-.61.78-.61.09,0,.16,0,.26.02.47.09.71.35.71.7,0,.09-.02.19-.05.28-.33,1.32-.94,2.87-1.6,4.23v15.91c0,.42-.28.64-.82.64-.49,0-.82-.21-.82-.64v-10.73ZM11.22,14.92c-.42,0-.64-.28-.64-.78,0-.45.21-.78.64-.78h4.05c.12-.94.17-1.91.19-2.87h-2.07c-.4.66-.8,1.29-1.25,1.81-.19.21-.4.33-.61.33-.19,0-.38-.09-.56-.24-.19-.17-.31-.38-.31-.61,0-.19.07-.35.21-.52.99-1.08,1.72-2.56,2.16-3.86.12-.35.33-.54.66-.54.12,0,.26.02.4.07.38.14.56.35.56.64,0,.12-.02.24-.07.35-.14.33-.28.68-.42,1.01h6.47c.38,0,.61.31.61.75,0,.47-.24.8-.61.8h-3.55c-.02.96-.09,1.91-.21,2.87h4.56c.4,0,.64.31.64.78s-.24.78-.64.78h-4.09c.89,2.33,2.31,3.88,4.35,5.03.31.17.45.45.45.75,0,.19-.05.38-.14.54-.17.31-.45.47-.75.47-.16,0-.33-.05-.49-.16-2-1.29-3.55-3.03-4.47-5.53-.75,2.19-2.09,3.95-4.38,5.32-.16.09-.33.14-.49.14-.31,0-.59-.17-.75-.47-.07-.14-.12-.28-.12-.42,0-.31.14-.59.42-.73,2.24-1.25,3.41-2.82,3.98-4.94h-3.72ZM21.48,5.11c.4,0,.64.31.64.73,0,.49-.23.8-.64.8h-10.16c-.4,0-.61-.31-.61-.78,0-.45.21-.75.61-.75h6.31c.17-.71.33-1.55.4-2.12.02-.07.02-.14.02-.21,0-.24-.12-.35-.42-.35h-4.64c-.38,0-.56-.38-.56-.8s.19-.73.56-.73h5.15c1.22,0,1.69.47,1.69,1.37,0,.12,0,.24-.02.38-.12.71-.28,1.67-.47,2.47h2.14Z"/>
</svg>