<?xml version="1.0" encoding="UTF-8"?>
<svg id="Layer_1" data-name="Layer 1" xmlns="http://www.w3.org/2000/svg" viewBox="0 0 91.01 70.65">
  <defs>
    <style>
      .cls-1 {
        fill: #d13100;
        stroke-width: 0px;
      }
    </style>
  </defs>
  <path class="cls-1" d="M64.04,8.36c-.47-.12-.97-.14-1.44-.03-.46.1-.88.33-1.15.68-.28.36-.37.88-.39,1.46-.29-.48-.41-1.15-.12-1.75.27-.61.89-.99,1.5-1.13.62-.13,1.26-.06,1.82.22.55.27,1.01.79,1.06,1.38-.35-.45-.81-.7-1.28-.83ZM59.17,13.03c.34-.35.78-.62,1.35-.71-.54-.23-1.22-.09-1.72.26-.51.35-.89.88-1.07,1.48-.18.6-.14,1.32.26,1.85.39.54,1.03.76,1.59.75-.5-.29-.9-.63-1.08-1.05-.18-.41-.18-.89-.04-1.34.13-.46.39-.89.72-1.24ZM71.81,9.49c.34-.52.31-1.26.03-1.84-.27-.6-.76-1.08-1.35-1.38-.59-.29-1.35-.38-1.98-.06-.63.31-.98.94-1.06,1.52.39-.47.81-.83,1.28-.94.46-.12.96-.03,1.4.2.45.21.85.56,1.16.97.3.42.51.92.5,1.53ZM42.48,40.68l-1.84-3.11,2.41,2.65-1.82-3.08,2.08,2.29-1.57-2.66,2.41,2.65-1.82-3.08,2.56,2.82,1.05-3.7-.26,3.57.98-3.44-.22,3.08.84-2.97-.26,3.57.98-3.44-.29,3.95s.07.05.11.08l3.65-1.79-2.83,2.2,3.21-1.58-2.44,1.9,2.77-1.36-2.83,2.2,3.21-1.58-3.15,2.45,3.42,2.02-3.39-1.16,3.08,1.82-2.93-1,2.66,1.57-3.39-1.16,3.08,1.82-3.68-1.26,1.05,1.57-1.42-1.31,1.07,1.6-1.4-1.29.5,3.48-1.09-3.1.47,3.26-.94-2.68.41,2.81-1.09-3.1.47,3.26-1.27-3.62-1.97,2.49,1.31-2.82h0l-1.93,2.44,1.14-2.46-1.68,2.13,1.32-2.85-1.95,2.46,1.53-3.29s-.01-.02-.02-.04l-3.52-.23,3.05-.59-3.1-.21,2.63-.51-2.68-.18,3.05-.59-3.1-.21,3.33-.65ZM44,44.38c1.05.99,2.7.95,3.69-.1.99-1.05.95-2.7-.1-3.69-1.05-.99-2.7-.95-3.69.1-.99,1.05-.95,2.7.1,3.69ZM60.78,19.09c-.53.25-.87.86-.93,1.47-.08.62.08,1.25.41,1.78.33.52.9.97,1.57,1.03.66.06,1.25-.27,1.61-.71-.55.18-1.06.27-1.5.13-.43-.14-.79-.45-1.03-.85-.26-.4-.41-.87-.46-1.36-.04-.49.04-1,.35-1.49ZM63.63,31.19c.44-.68.24-1.6-.44-2.04-.68-.44-1.6-.24-2.04.44-.44.68-.24,1.6.44,2.04.68.44,1.6.24,2.04-.44ZM73.09,21.7c.46.36,1.16.39,1.73.17.58-.21,1.08-.63,1.41-1.17.32-.53.46-1.24.21-1.86-.24-.62-.81-.99-1.35-1.12.41.41.72.83.79,1.28.07.45-.05.9-.29,1.31-.24.41-.59.76-1.01,1.02-.42.25-.91.41-1.48.36ZM70.32,13.41l3.95-.8-3.2,1.36,3.41-.69-3.71,1.58,3.95-.8-3.95,1.68,3.55,2.49-3.7-1.6,3.3,2.31-3.2-1.38,2.85,2-3.7-1.6,3.3,2.31-4.09-1.77s-.08.06-.12.09l.56,4.54-1.29-3.82.49,4-1.12-3.3.43,3.45-1.29-3.82.49,4-1.44-4.26-3.41,2.89,2.48-3.17-3.07,2.61,2.14-2.74-2.65,2.25,2.48-3.17-3.07,2.61,2.7-3.45-2.05.54,1.91-1.02-2.1.55,1.89-1.01-3.88-.76h3.7l-3.64-.71h3.2l-3.14-.62h3.7l-3.64-.72h4.32l-1.92-3.02,2.52,2.43h0l-1.88-2.95,2.19,2.12-1.64-2.57,2.54,2.46-1.9-2.98,2.93,2.84s.03,0,.05,0l1.55-3.65-.5,3.46,1.36-3.22-.43,2.99,1.18-2.78-.5,3.46,1.36-3.22-.54,3.78,3.98-.8-3.71,1.58ZM69.72,14.06c-.8-1.55-2.72-2.16-4.27-1.35-1.55.8-2.16,2.72-1.35,4.27s2.72,2.16,4.27,1.35c1.55-.8,2.16-2.72,1.35-4.27ZM66.24,23.38c-.02.59.36,1.17.87,1.51.51.35,1.14.51,1.77.46.62-.05,1.28-.35,1.63-.91.36-.56.34-1.23.12-1.75-.09.57-.26,1.07-.58,1.39-.32.32-.76.49-1.23.52-.47.05-.97-.04-1.42-.22-.45-.19-.87-.5-1.15-1ZM76.76,13.25c.22-.58.21-1.23.01-1.83-.2-.59-.65-1.16-1.29-1.36-.63-.22-1.28-.02-1.73.31.57-.05,1.1-.01,1.49.22.39.23.66.62.81,1.07.16.45.2.95.13,1.43-.08.48-.27.96-.68,1.36.57-.12,1.05-.63,1.25-1.21ZM80.59,28.26c1.05,1.39,1.64,3.55.75,5.2.92-.51,1.95-3.73.34-5.99-1.58-2.16-3.85-2.83-6-2,1.95.15,3.68,1.09,4.9,2.8ZM81.23,43.11c.94-.48,1.68-1.29,2.13-2.26.42-.97.52-2.19-.03-3.18-.54-1-1.57-1.5-2.52-1.6.77.6,1.38,1.25,1.6,2,.22.74.11,1.53-.22,2.27-.31.74-.84,1.41-1.48,1.94-.65.52-1.45.89-2.43.91.85.51,2.04.42,2.96-.07ZM70.34,30.18c.96-.15,1.91.1,2.7.79.67.55,1.21,1.53.96,2.43.39-.35.51-2.03-.53-2.94-1.01-.86-2.19-.93-3.13-.28ZM73.21,44.78c-.22.93.21,1.98.92,2.67.71.72,1.67,1.16,2.68,1.28,1,.11,2.15-.16,2.89-.95.75-.78.92-1.86.73-2.76-.32.88-.74,1.62-1.36,2.04-.61.41-1.37.54-2.13.45-.77-.07-1.53-.36-2.19-.79-.66-.45-1.23-1.06-1.54-1.95ZM12.74,9.69c1.69-2.9,7.13-10.39,14.01-6.16,2.34-1.01,4.99-1.01,7.81.93,8.62-1.05,10.63,8.22,10.63,8.22,0,0,3.95-2.26,7.17.81-.16-7.97,4.43-8.46,7.25-11.11,2.82-2.66,9.83-3.46,13.13-.32,3.3,3.14,4.75,3.62,8.86,5.88,4.11,2.26,8.62,10.47,9.34,18.44.72,7.97-4.75,7.89-5.4,21.02-.26,5.31-5.15,7.09-5.15,7.09,0,0-.16,2.66-3.14,4.11.24,5.72-2.26,7.41-7.41,8.62-5.15,1.21-6.68-2.42-4.27-4.51s.24-3.22-7.09-4.19c-7.33-.97-5.96,4.75-7.89,7.25-1.93,2.5-10.63-1.93-13.85,3.54-1.99,3.39-10.83-.16-8.78-3.91-3.02,1.21-9.3-1.57-7.25-4.59-11.11-.12-3.5-4.83-7.97-10.03-4.47-5.19-.6-8.82-3.26-12.93-2.66-4.11,1.45-12.32,1.45-12.32,0,0-6.4,10.03-10.27,2.42-3.87-7.61,10.39-15.34,12.08-18.24ZM27.04,13.07c-.93,0-1.69.76-1.69,1.69s.76,1.69,1.69,1.69,1.69-.76,1.69-1.69-.76-1.69-1.69-1.69ZM28.07,23.93c-.62.05-1.26-.03-1.84-.32-.6-.28-1.1-.81-1.52-1.48-.02.79.3,1.63.92,2.27.63.63,1.51,1.01,2.4,1.1,1.32.14,2.65-.28,3.71-1.05.63.95,1.57,1.67,2.63,1.97.75.24,1.57.24,2.3.03.73-.22,1.36-.65,1.78-1.21-.66.24-1.29.37-1.9.33-.6-.03-1.15-.22-1.64-.48-.97-.55-1.69-1.47-1.94-2.47-.12-.51-.64-.82-1.15-.7-.19.05-.36.15-.48.29l-.03.03c-.83.93-1.98,1.6-3.23,1.7ZM30.83,17.52c-.64.17-.92.99-.49,1.5,1.17,1.39,2.79,1.28,3.81.59.5-.34.58-1.11.11-1.49-.84-.68-2.36-.88-3.44-.6ZM35.16,10.19c-.17-2.08-1.07-4.11-2.69-5.42.1,1.05.33,1.96.44,2.88.14.91.26,1.79.32,2.68.06.89.09,1.78.09,2.7.02.93-.06,1.88.03,2.93,1.35-1.56,1.96-3.69,1.8-5.77ZM37.55,15.65c-.93,0-1.69.76-1.69,1.69s.76,1.69,1.69,1.69,1.69-.76,1.69-1.69-.76-1.69-1.69-1.69ZM50.6,20.21c-.06-.55-.18-1.01-.35-1.48-.34-.93-.79-1.8-1.42-2.55-.61-.76-1.39-1.43-2.37-1.77-.48-.17-1.04-.21-1.53-.05-.51.12-.86.5-1.14.85.82-.46,1.66-.41,2.27.06.64.42,1.13,1.08,1.54,1.78.39.71.72,1.45.91,2.23.2.79.28,1.5.12,2.13-.15.64-.54,1.23-1.05,1.61-.25.2-.54.34-.8.38-.26.03-.42.01-.56-.09-.42-.39-.71-1.16-.51-1.81.14-.69.9-1.16,1.83-1.2-.42-.16-.91-.26-1.41-.14-.51.11-.98.47-1.28.94-.57.97-.48,2.24.23,3.2.43.59,1.22.85,1.84.8.64-.03,1.19-.25,1.68-.54.97-.59,1.65-1.59,1.92-2.68.12-.54.17-1.11.09-1.64ZM56.45,34.19c-.16-.25-.3-.48-.45-.72-.07-.27-.21-.51-.25-.8-.25-1.12.01-2.47.24-3.88.21-1.42.42-2.94.22-4.47-.17-1.52-.69-3.01-1.52-4.25-.36-.65-.9-1.18-1.35-1.75-.5-.53-1.07-.99-1.61-1.46,1.69,2.32,2.99,4.89,2.98,7.56,0,1.33-.21,2.65-.52,4.04-.27,1.38-.64,2.9-.33,4.61.97,3.63,4.33,4.82,6.58,6.12,1.16.66,2.04,1.59,2.64,2.82.62,1.21.95,2.61,1.29,4.01.08-1.44.01-2.91-.41-4.36-.42-1.44-1.41-2.85-2.68-3.71-1.23-.92-2.49-1.52-3.47-2.38-.5-.41-.95-.88-1.36-1.37ZM64.51,29c1.13-1.66-.88-3.62-2.05-1.38-.19-1.74-3.07-.99-2.02,1.12-2.23-.58-2.84,2.27-.62,2.4,0,0-1.47.54-.67,1.99.8,1.46,2.05.03,2.2-.7-.27,1.5-.16,2.62,1.16,2.48,1.33-.13,1.2-1.75.96-2.24,1.2,2.33,4.43-.09,1.78-1.36,2.23-.77,1.56-3.47-.75-2.33ZM72.55,10.41c1.11-5.85-5.63-7.78-6.04-1.3-2.22-4.55-9.04-2.62-5.59,2.76-4.03-1.78-6.02,5.48-.08,5.84-4.07,4.14,1.4,9.07,4.48,4.37,0,0-.67,3.88,3.52,3.97,4.19.09,2.65-4.44,1.25-5.69,2.94,2.48,5.52,3.64,6.89.57,1.38-3.07-2.32-4.83-3.68-4.92,6.61.3,5.38-9.81-.74-5.6ZM70.61,39.61c1.72,4.33,6.37,1.31,4.41-.91,2.34-.63,1.45-4.99-.93-4.6,2.66-2.95-1.95-6.26-4.56-4.02,3.28,2.74,4.99,8.45,1.08,9.53ZM83.11,17.61c.73-1.08-.58-2.36-1.33-.9-.12-1.13-2-.64-1.32.73-1.45-.38-1.85,1.48-.4,1.56,0,0-.95.35-.44,1.3.52.95,1.33.02,1.43-.45-.18.98-.11,1.7.76,1.61.86-.09.78-1.14.63-1.46.78,1.52,2.88-.06,1.16-.88,1.45-.5,1.01-2.26-.49-1.52ZM74.22,48.63c2.87,2.53,8.69-.46,6.62-4.33,4.87-.13,5.16-9.08.34-9.42,6.57-4.53-.48-14.32-6.82-9.34,2.73,1,4.79,2.88,4.79,2.88l-2.91-.88,2.57,2.56-1.36-.46,1.97,2.37-1.74-.87,2.09,2.42-1.72-1.19s2.14,3,1.9,2.89c-.24-.11-1.77-1.63-1.72-1.53.06.09,2.25,3.66,2.16,3.59s-1.87-1.78-1.87-1.78c0,0,1.82,3.88,1.57,3.47-.25-.41-1.57-1.92-1.57-1.92l1.27,3.4-1.4-1.72.81,3.21-1.27-1.85.18,1.83-.73-.84.19,2.42-.74-1.49s.02,3.26-.04,3.09c-.06-.18-.72-2.36-.72-2.36l-.3,2.25-.62-1.43-.61,1.67c-.82-.2-1.44-1.14-1.66-1.62-.77,2.12.33,4.09,1.35,4.99ZM57.26,51.93c1.4-.89,2.99-1.42,4.63-1.71,1.65-.28,3.35-.34,5.06-.16,1.7.19,3.4.56,5.06,1.34-1.19-1.43-2.97-2.33-4.78-2.82-1.83-.49-3.77-.6-5.67-.27-1.89.32-3.76,1.12-5.22,2.42-1.47,1.28-2.43,3.1-2.61,4.94.95-1.59,2.12-2.85,3.53-3.74ZM41.05,44.67c-2.95,2.96.41,7.75,3.66,3.61-.29,3.62,5.9,3.21,4.57-1.52,4.33,2.06,6.69-3.55,2.19-4.67,0,0,3.21-.53,2.14-3.82-1.07-3.29-4.17-.86-4.77.57,1.14-2.96,1.35-5.29-1.42-5.53-2.77-.24-3.14,3.11-2.84,4.2-1.56-5.23-9.1-1.54-4.17,2.09-4.86.72-4.54,6.5.63,5.06ZM18.06,30.06s-4.43,2.98-3.95,8.94c2.34-3.06,5.24-3.62,5.24-3.62,0,0-4.11,6.77-3.62,12.89,1.93-2.9,4.27-3.14,4.27-3.14,0,0-6.44,8.05,1.45,13.53-2.82-7.17,3.79-9.93,7.01-7.09-.56-3.06-.89-8.78,4.27-6.68-2.98-6.28.48-7.41,2.09-7.01-.4-3.22,1.29-4.27,3.46-2.9.4-4.03,2.26-4.99,4.35-3.06.89-2.17,4.27-2.09,4.27-2.09,0,0-2.06-.77-3.33-1.98-.71-.68-1.77-.85-2.62-.36-6.12,3.58-15.26,3.81-20.3-1.22-1.76-1.75-4.72-1.3-5.91.88-.97,1.76-1.58,3.89-1.58,5.34,2.42-3.14,4.91-2.42,4.91-2.42ZM5.41,21.52c.13.45.32.86.56,1.22.24.36.51.73.93.96.41.25,1.01.24,1.36-.06.35-.28.56-.68.61-1.08-.28.77-1.2,1.2-1.67.69-.48-.45-.79-1.26-.86-1.91-.07-.68.25-1.11.81-1.32.58-.2,1.31-.23,2.04-.13.36.05.73.12,1.09.21.16.04.41.08.64.12.23.05.47.07.72.06.98.04,2.12-.43,2.79-1.22.67-.78,1-1.67,1.24-2.51.23-.85.35-1.69.44-2.52.04-.4.05-.87.09-1.19.03-.34.09-.68.19-1.02.18-.67.49-1.31.87-1.88.76-1.16,1.98-1.86,3.26-1.69.61.1,1,.35,1.15.92.16.56.01,1.33-.32,1.91-.16.29-.4.55-.58.6-.28.06-.68,0-.95-.14-.29-.14-.42-.42-.25-.75.17-.32.48-.59.81-.82-.37.15-.75.32-1.05.66-.14.18-.25.42-.21.7.04.27.21.5.39.65.39.3.82.45,1.33.45.63-.07.99-.46,1.28-.81.55-.74.89-1.64.78-2.66-.04-.51-.3-1.06-.71-1.44-.4-.42-.92-.59-1.4-.73-.93-.23-1.98-.11-2.86.31-.88.41-1.61,1.05-2.16,1.78-.56.73-.95,1.57-1.21,2.43-.13.43-.23.88-.27,1.34l-.12,1.21c-.13,1.51-.41,3.08-1.14,4.03-.36.45-.83.68-1.45.72-.15.02-.31.02-.48-.01-.17-.02-.31-.03-.55-.06-.42-.06-.85-.1-1.29-.12-.87-.02-1.79.04-2.69.5-.44.24-.86.62-1.09,1.12-.22.5-.23,1.05-.11,1.51ZM75.07,38.08c.4-.34.67-.82.77-1.34.09-.52,0-1.12-.38-1.54-.38-.42-.93-.55-1.4-.48.44.2.81.45,1.01.78.19.33.23.73.15,1.12-.07.4-.24.78-.49,1.11-.26.33-.6.6-1.07.72.47.15,1.03-.03,1.42-.38ZM72.34,40.59c-.37-.14-.72-.37-.97-.77,0,.47.33.93.75,1.19.43.27.94.37,1.45.31.5-.06,1.02-.33,1.29-.8.27-.46.23-1.01.03-1.42-.05.46-.17.87-.42,1.14-.25.27-.6.42-.98.47-.38.05-.78,0-1.15-.13Z"/>
</svg>