<?xml version="1.0" encoding="UTF-8"?>
<svg id="Layer_1" data-name="Layer 1" xmlns="http://www.w3.org/2000/svg" viewBox="0 0 21.43 21.53">
  <defs>
    <style>
      .cls-1 {
        fill: #d13100;
        stroke-width: 0px;
      }
    </style>
  </defs>
  <path class="cls-1" d="M4.07,5.86c-.85.73-1.72,1.39-2.59,1.98-.17.09-.31.14-.45.14-.28,0-.52-.16-.71-.45-.12-.17-.16-.33-.16-.49,0-.28.16-.54.4-.68.92-.59,1.86-1.27,2.71-2.02-.52-.87-1.13-1.69-1.88-2.54-.17-.17-.24-.35-.24-.52,0-.24.12-.45.35-.61.19-.12.4-.19.61-.19.24,0,.45.09.61.26.68.82,1.29,1.6,1.81,2.4.8-.82,1.51-1.72,2.02-2.57.16-.26.4-.38.63-.38.19,0,.38.05.54.17.26.14.4.38.4.63,0,.16-.05.31-.14.47-.7,1.06-1.6,2.14-2.61,3.15,1.29,2.56,1.81,5.43,1.81,9.72,0,2.54-.21,4.14-.71,5.48-.4,1.11-1.29,1.69-2.68,1.69-.96,0-1.79-.12-2.31-.31-.35-.14-.54-.42-.54-.75,0-.12.02-.26.07-.38.16-.4.45-.63.78-.63.09,0,.19.02.28.05.38.14.96.28,1.48.28.73,0,1.15-.26,1.39-.89.35-.94.49-2.52.49-4.59,0-1.22-.05-2.33-.14-3.34-1.03,1.58-2.45,3.18-3.95,4.23-.17.12-.35.17-.52.17-.26,0-.52-.12-.66-.33-.12-.19-.19-.38-.19-.56,0-.31.14-.59.47-.8,1.48-1.01,3.15-2.82,4.52-4.9-.19-1.01-.52-1.98-.92-2.89ZM11.22,4.33c-.73,1.39-1.62,2.68-2.57,3.62-.19.21-.42.31-.63.31s-.42-.09-.59-.26c-.16-.17-.28-.38-.28-.64,0-.21.09-.45.31-.68,1.58-1.58,2.82-3.79,3.53-6.16.12-.35.38-.52.75-.52.12,0,.24.02.38.05.35.09.54.33.54.63,0,.09-.02.19-.05.28-.17.56-.38,1.13-.61,1.69h7.25c1.53,0,2.19.68,2.19,2.12-.02,6.38-.28,11.48-.94,14.33-.38,1.69-1.32,2.42-3.11,2.42-.92,0-1.95-.12-2.64-.28-.4-.09-.63-.47-.63-.89,0-.09.02-.19.05-.28.12-.45.47-.71.82-.71.07,0,.14,0,.21.02.54.14,1.18.26,1.93.26.99,0,1.44-.28,1.67-1.25.59-2.42.78-7.93.78-13.27,0-.59-.24-.8-.85-.8h-7.51ZM9.53,8.89c0-1.37.61-1.86,1.95-1.86h3.67c1.29,0,1.86.49,1.86,1.79v5.81c0,1.32-.56,1.79-1.86,1.79h-3.76c-1.29,0-1.86-.47-1.86-1.79v-5.74ZM11.22,14.31c0,.45.24.57.63.57h2.82c.4,0,.64-.12.64-.57v-5.15c0-.45-.24-.56-.64-.56h-2.82c-.4,0-.63.12-.63.56v5.15Z"/>
</svg>