<?xml version="1.0" encoding="UTF-8"?>
<svg id="Layer_1" data-name="Layer 1" xmlns="http://www.w3.org/2000/svg" viewBox="0 0 22.54 21.67">
  <defs>
    <style>
      .cls-1 {
        fill: #d13100;
        stroke-width: 0px;
      }
    </style>
  </defs>
  <path class="cls-1" d="M4.14,19.15c1.32-.28,2.63-.64,3.72-.96.12-.02.24-.05.33-.05.33,0,.54.21.61.56.02.09.02.16.02.26,0,.35-.19.56-.61.71-2.09.71-4.89,1.43-7.2,1.76-.07.02-.14.02-.21.02-.4,0-.71-.24-.78-.73-.02-.07-.02-.17-.02-.24,0-.38.21-.64.66-.71.56-.07,1.15-.16,1.74-.28v-8.82c0-.42.35-.64.87-.64s.87.21.87.64v8.47ZM18.28,2.78c0-.45-.23-.59-.68-.59h-5.34c-.38,0-.61-.26-.61-.75s.24-.73.61-.73h5.72c1.39,0,2.05.54,2.05,1.91v4.92c0,1.34-.66,1.91-2.05,1.91H3.93c-1.36,0-2.02-.56-2.02-1.91V3.13c0-1.34.56-1.88,1.95-2.05,1.72-.19,3.69-.56,5.22-1.03.12-.02.24-.05.33-.05.33,0,.59.17.71.49.05.12.07.24.07.33,0,.35-.24.59-.61.71-1.53.47-3.62.82-5.2.99-.52.05-.73.26-.73.75v1.06h5.62c.38,0,.61.26.61.71s-.24.75-.61.75H3.65v1.58c0,.47.23.61.68.61h13.27c.45,0,.68-.14.68-.61v-1.58h-5.91c-.38,0-.59-.31-.59-.75s.21-.71.59-.71h5.91v-1.55ZM8.61,12.19c.21.19.31.4.31.61,0,.17-.05.31-.14.45-.17.24-.35.35-.56.35-.16,0-.33-.07-.49-.21-.64-.49-1.46-1.03-2.19-1.41-.28-.14-.42-.38-.42-.61,0-.14.05-.26.14-.4.16-.21.35-.35.61-.35.12,0,.26.02.4.09.8.38,1.79.99,2.35,1.48ZM8.54,15.77c.21.19.33.45.33.66,0,.16-.05.31-.17.45-.14.19-.35.31-.56.31-.17,0-.35-.07-.49-.19-.56-.45-1.36-.99-2.14-1.43-.28-.17-.4-.38-.4-.61,0-.16.05-.31.14-.45.14-.21.35-.33.59-.33.14,0,.28.05.45.12.68.35,1.67.99,2.26,1.48ZM11.58,19.39c1.62-.38,3.27-.87,4.56-1.34.14-.05.28-.07.4-.07.31,0,.52.17.61.49.02.12.05.21.05.31,0,.35-.21.61-.61.75-2.14.8-4.85,1.58-7.13,2.05-.09.02-.19.05-.28.05-.42,0-.68-.26-.78-.71-.02-.09-.02-.19-.02-.26,0-.38.21-.64.61-.71.28-.05.59-.12.89-.17v-9.11c0-.42.33-.64.85-.64s.85.21.85.64v8.71ZM16.05,15.91c.21.19.33.42.33.66,0,.16-.05.33-.16.49-.17.16-.35.28-.56.28-.17,0-.33-.05-.47-.16-.66-.49-1.6-1.06-2.35-1.44-.28-.14-.4-.38-.4-.61,0-.14.05-.28.12-.4.14-.26.38-.4.64-.4.12,0,.24.02.35.09.82.38,1.86.96,2.52,1.48ZM16.16,12.28c.26.19.4.47.4.73,0,.14-.05.31-.16.42-.17.21-.35.33-.56.33-.16,0-.33-.07-.49-.19-.71-.54-1.6-1.08-2.35-1.48-.31-.17-.47-.4-.47-.64,0-.12.05-.26.14-.38.14-.26.35-.4.61-.4.12,0,.24.02.38.09.8.35,1.88,1.01,2.52,1.51ZM18.94,10.66c0,4.45.75,7.6,1.41,8.75.07.12.12.19.19.19s.12-.07.19-.24c.14-.4.26-1.15.33-1.86.07-.45.33-.66.68-.66h.12c.4.05.68.28.68.71v.05c-.09,1.29-.45,2.75-.92,3.46-.23.4-.61.61-1.01.61s-.82-.21-1.18-.64c-1.48-1.76-2.14-5.81-2.21-10.38,0-.45.33-.66.85-.66s.87.21.87.66Z"/>
</svg>