<?xml version="1.0" encoding="UTF-8"?>
<svg id="Layer_1" data-name="Layer 1" xmlns="http://www.w3.org/2000/svg" viewBox="0 0 104.36 64.18">
  <defs>
    <style>
      .cls-1 {
        fill: #d13100;
        stroke-width: 0px;
      }
    </style>
  </defs>
  <path class="cls-1" d="M63.34,18.63c.63-.95,1.05-1.9,1.01-2.8-.04-.89-.46-1.73-1.1-2.41-.62-.7-1.46-1.23-2.36-1.57-.91-.32-1.93-.43-3.01-.09.75-.88,2.08-1.23,3.28-1.04,1.21.17,2.34.79,3.19,1.69.83.9,1.4,2.21,1.16,3.51-.21,1.3-1.16,2.24-2.16,2.7ZM90.71,10.72c.59.16,1.11.49,1.43.98.33.49.41,1.17.38,1.91.41-.6.62-1.45.3-2.25-.3-.81-1.07-1.35-1.84-1.58-.78-.22-1.63-.19-2.36.13-.73.3-1.37.94-1.49,1.69.5-.56,1.1-.84,1.72-.97.62-.12,1.27-.1,1.86.08ZM59.54,8.92c-.13-1.05-.72-2.18-1.84-2.76-1.11-.59-2.47-.45-3.54.04-1.07.52-1.96,1.36-2.46,2.42-.52,1.03-.59,2.35,0,3.29,0-1.09.4-1.98.95-2.72.57-.73,1.3-1.33,2.11-1.7.81-.39,1.69-.53,2.51-.3.83.22,1.57.88,2.26,1.73ZM68.6,5.07c-.62.48-.73,1.37-.25,1.99.48.62,1.37.73,1.99.25.62-.48.73-1.37.25-1.99-.48-.62-1.37-.73-1.99-.25ZM55.85,17.59c.06-.58-.12-1.26-.65-1.71-.52-.45-1.27-.55-1.9-.41-.64.15-1.22.49-1.62,1-.41.49-.61,1.19-.41,1.76.14-.58.46-1.02.85-1.34.4-.32.86-.55,1.35-.65.48-.11.97-.07,1.39.15.42.22.74.67,1,1.21ZM57.2,24.9c.68.99.44,2.4-.13,3.36-.66,1.17-1.71,1.88-2.94,2.11,1.42.39,2.82-.19,3.69-1.68.87-1.55,0-3.53-.62-3.8ZM43.26,16.35c-.8.51-1.03,1.57-.52,2.37.51.8,1.57,1.03,2.37.52.8-.51,1.03-1.57.52-2.37-.51-.8-1.57-1.03-2.37-.52ZM57.28,20.47c.26.44.38.95.29,1.43-.09.49-.43.95-.89,1.38.6-.12,1.22-.51,1.5-1.19.29-.67.14-1.44-.19-2.03-.35-.59-.87-1.06-1.51-1.3-.62-.25-1.38-.23-1.89.15.63-.05,1.16.13,1.61.42.44.29.83.68,1.07,1.13ZM64.9,21.3c1.6,1.47,1.76,4.07,1.13,5.99-.7,2.35-2.25,4.02-4.33,4.93,2.67.1,4.91-1.49,5.84-4.46.91-3.09-1.43-6.24-2.64-6.46ZM95.27,16.52c-.62-.5-1.49-.74-2.2-.48.73.16,1.27.55,1.68,1.03.4.49.7,1.06.83,1.66.14.6.11,1.21-.16,1.73-.27.53-.82.93-1.49,1.26.72.07,1.57-.16,2.11-.83.56-.66.66-1.59.49-2.38-.19-.79-.63-1.51-1.26-2ZM92.5,26.72c-.1.62-.34,1.23-.71,1.72-.36.5-.84.87-1.41,1.01-.57.14-1.24,0-1.93-.29.43.59,1.15,1.07,2.02,1.05.86-.01,1.64-.55,2.11-1.19.47-.66.73-1.47.68-2.27-.03-.79-.42-1.61-1.09-1.97.36.66.42,1.32.33,1.95ZM83.19,31.05c-.6.2-1.25.27-1.85.17-.61-.08-1.16-.34-1.55-.78-.39-.44-.56-1.1-.64-1.84-.32.65-.42,1.52,0,2.27.41.76,1.24,1.2,2.04,1.32.81.11,1.64-.04,2.32-.45.69-.39,1.23-1.12,1.25-1.88-.42.62-.98.98-1.58,1.19ZM94.57,20.33l-5.08.64,2.36,1.47-2.67-.89,2.39,1.48-2.61-.87,3.19,4.68-3.75-3.63,2.94,4.31-3.24-3.13,2.54,3.72-3.75-3.62,2.94,4.31-4.17-4.02-2.22,5.38.97-5.13-1.99,4.82.84-4.43-1.72,4.17.97-5.13-1.99,4.82,1.1-5.82c-.05-.04-.1-.08-.15-.13l-5.44,1.94,4.46-2.71-4.92,1.75,3.85-2.34-4.24,1.51,4.46-2.71-4.92,1.75,4.8-2.91-4.96-2.5,5.04,1.36-4.66-2.35,4.35,1.17-4.02-2.03,5.04,1.36-4.66-2.35,5.08,1.37-.38-4.93,1.49,4.28-.35-4.52,1.29,3.69-.3-3.9,1.49,4.28-.35-4.52,1.69,4.85s.04,0,.06.01l4.03-3.43-2.7,3.69,3.48-2.97-2.33,3.19,3.01-2.56-2.67,3.66h0l3.45-2.93-2.74,3.74,5.58.38-4.76.6,4.78.33-4.11.52,4.13.28-4.76.6,4.78.33ZM86.67,16.14c-1.94-1.17-4.46-.55-5.63,1.39-1.17,1.94-.55,4.46,1.39,5.63,1.94,1.17,4.46.55,5.63-1.39,1.17-1.94.55-4.46-1.39-5.63ZM79,60.34c-24.75,3.28-45.47-7.69-54-10.22-8.53-2.53-20.44-1.97-20.44,5.25s6.37,8.81,6.37,8.81c0,0-8.81-.38-8.81-8.16s5.44-11.34,14.81-11.34,19.41,9.37,41.25,9.37,41.9-4.5,36.19-19.78c0,0-.73,3.36-3.8,6.34-.78.76-1.79,1.24-2.87,1.37-2.61.32-5.14.37-7.27.3-.41-.01-.75-.33-.8-.74-.05-.41.22-.79.62-.9,2.22-.58,4.51-1.46,5.69-2.72-6.19,1.87-14.62-.47-14.62-.47l.46,1.55c.22.73-.16,1.5-.87,1.78-1.84.71-5.54,2.01-9.98,2.84-.4.08-.8-.16-.94-.55-.13-.39.04-.82.4-1.01,3.74-1.96,5.36-4.45,5.11-5.83-2.72-.56-6.28-1.87-6.28-1.87,0,0-1.49,7.59-12.07,9.13-.36.05-.7-.17-.79-.53-.09-.35.1-.72.43-.85,4.63-1.77,6.9-3.84,6.61-7.48l-2.06-.56s-3.75,5.25-9,7.22c-3.89,1.46-6.95,2.91-9.31,4.3-.19.11-.44.06-.58-.11-.14-.18-.12-.43.04-.59,1.38-1.34,3-2.47,3-2.47,0,0-2.89-.17-6.7,1.17-.22.08-.46-.03-.55-.24-.09-.21,0-.46.19-.57,1.63-.88,3.12-1.39,3.12-1.39,0,0-1.96-.04-4.32.59-.22.06-.45-.06-.53-.27-.08-.21.01-.45.21-.55,2.32-1.18,4.52-1.39,6.98-1.26,3.66.19,7.97-.94,8.62-5.25-9.19,4.22-24.56-.94-24.56-.94,0,0-4.86-1.12-7.64-5.44-.1-.15-.07-.36.06-.48.13-.13.34-.14.49-.03,2.97,2.15,4.96,1.91,5.12,1.18.18-.83.55-4.29-7.19-5.21-.11-.01-.22.02-.31.09-.09.07-.14.17-.15.29-.02.28-.01.66.09,1.05.02.09,0,.19-.08.26-.07.07-.17.09-.26.05C3.35,23.79,1.28,21.41.12,19.66c-.11-.17-.15-.38-.09-.58.05-.2.19-.36.37-.45,7.98-3.96,16.84-2.52,20.4-1.8,3.56-4.69,6.37-3.47,7.31-3.28,1.69-3.19,7.03-1.78,6.84,1.03C38.69,9.99,54.07-1.44,77.32.15c23.25,1.59,26.9,18.56,23.72,27.28,7.69,14.25,2.72,29.62-22.03,32.9ZM29.28,14.21c1.04.04,2.04.83,2.41,2.03.11.36.15.72.14,1.06,1.08-.2,1.89-1.04,1.89-2.04,0-1.15-1.07-2.09-2.39-2.09-.88,0-1.63.42-2.05,1.03ZM22.38,20.92c0-.88-.42-1.66-1.06-2.16-1.01.85-2.66,1.61-4.43,1.79-.02.12-.04.25-.04.38,0,1.53,1.24,2.77,2.77,2.77s2.77-1.24,2.77-2.77ZM25.55,25.18c4.57.48,9.79-.66,12.09-3.66l-12.09,3.66ZM26.06,26.7c4.45,1.12,9.79.73,12.49-1.91l-12.49,1.91ZM38.7,28.42h-12.63c4.23,1.78,9.56,2.2,12.63,0ZM47.2,26.55c.79-1.6-1.39-2.17-1.53-.85-.88-1.7-2.41-.21-1.55,1.04-1.75-.86-2.26,1.18-.57,1.77-2.01.96.44,2.79,1.35,1.03-.18.37-.27,1.59.73,1.69,1,.1,1.09-.74.88-1.88.12.55,1.06,1.63,1.67.53.6-1.1-.51-1.51-.51-1.51,1.68-.1,1.22-2.26-.47-1.82ZM46.46,15.87c1.22-2.46-2.14-3.33-2.35-1.31-1.36-2.61-3.7-.33-2.39,1.6-2.69-1.33-3.47,1.81-.87,2.72-3.09,1.48.67,4.29,2.07,1.58-.28.57-.42,2.45,1.12,2.6,1.54.15,1.67-1.14,1.36-2.89.18.85,1.63,2.51,2.56.81.93-1.7-.78-2.32-.78-2.32,2.59-.15,1.87-3.47-.72-2.8ZM52.69,23.53c0-.87-.71-1.58-1.58-1.58s-1.58.71-1.58,1.58.71,1.58,1.58,1.58,1.58-.71,1.58-1.58ZM57.01,24.01c3.05-.54,2.27-6.22-.84-5.98,1.43-3.53-5.51-5.2-5.74.78,5.2-.36,5.57,7.29,2.77,12.02,4.13,1.61,8.31-4.38,3.82-6.82ZM64.2,19.8c5.17-2.2,1.48-11.93-3.92-10.23.81-5.03-6.71-6.12-8.91-2.26-.79,1.38-1.25,3.95.4,5.99.07-.61.39-1.88,1.22-2.41l1.3,1.6.14-1.81,1.18,2.36s-.11-2.65-.1-2.87c0-.22,1.21,3.38,1.21,3.38l.25-1.91.7,2.74.49-1.2.5,2.08.69-2.51.32,3.83.89-2.42-.11,4.22s.88-2.17,1-2.71c.12-.54-.42,4.41-.42,4.41,0,0,1.31-2.55,1.38-2.66.07-.12-.99,4.63-1.02,4.76-.03.12,1.09-2.12,1.31-2.33.22-.21-1,3.89-1,3.89l1.44-1.95-1.39,3.45,1.59-1.61-1.27,3.35,1.32-1.02-1.85,3.78,2.87-2.07s-1.56,2.84-4.18,4.97c8.85,3.08,12.91-10.34,3.98-12.84ZM71.23,7.92c2.12.82,2.59-2.01.9-2.04,2.06-1.32,0-3.08-1.5-1.85.89-2.32-1.76-2.73-2.31-.52-1.45-2.44-3.49.87-1.15,1.83-.49-.19-2.05-.17-2.07,1.12-.01,1.29,1.07,1.3,2.48.9-.69.21-1.95,1.53-.48,2.17,1.47.64,1.86-.82,1.86-.82.32,2.12,3.01,1.29,2.25-.8ZM92.59,15.43c4.9-6.66-3.75-9.72-6.99-4.03,0-8.41-8.87-6.48-7.92,1.17-7.55-5.94-9.98,7.01-1.42,7.18-1.77,0-6.69,1.97-5.17,6.05,1.52,4.08,4.95,2.8,8.95-.17-1.92,1.5-4.29,7.22,1.13,7.45,5.42.24,4.88-4.84,4.88-4.84,3.58,6.33,11.07.42,6.15-5.27,7.7.03,5.73-9.51.38-7.55ZM79.5,9.52c.44-.51.98-.92,1.59-1.16.6-.25,1.24-.33,1.83-.14.6.19,1.11.69,1.58,1.32-.06-.77-.45-1.61-1.24-2.06-.79-.46-1.78-.41-2.56-.08-.79.34-1.46.92-1.86,1.67-.41.73-.5,1.68-.11,2.38.04-.79.35-1.42.78-1.94ZM74.18,12.59c.53-.27,1.21-.28,1.94-.17-.55-.47-1.37-.78-2.2-.55-.84.21-1.46.91-1.77,1.65-.3.76-.37,1.59-.13,2.36.21.76.78,1.46,1.51,1.67-.5-.56-.71-1.19-.77-1.82-.05-.63.05-1.27.29-1.84.23-.57.61-1.05,1.13-1.31ZM72.94,25.12c-.29-.54-.4-1.14-.27-1.71.13-.58.56-1.1,1.13-1.59-.72.11-1.48.55-1.84,1.33-.38.78-.25,1.71.12,2.42.38.72.98,1.31,1.72,1.63.72.33,1.62.35,2.25-.08-.75.02-1.37-.22-1.89-.59-.51-.37-.94-.86-1.22-1.41Z"/>
</svg>