<?xml version="1.0" encoding="UTF-8"?>
<svg id="Layer_1" data-name="Layer 1" xmlns="http://www.w3.org/2000/svg" viewBox="0 0 21.79 21.37">
  <defs>
    <style>
      .cls-1 {
        fill: #d13100;
        stroke-width: 0px;
      }
    </style>
  </defs>
  <path class="cls-1" d="M7.27,3.93c1.2,0,1.76.52,1.76,1.88v5.53c0,1.36-.56,1.88-1.76,1.88h-1.6v4.54c.87-.21,1.72-.42,2.57-.68-.26-.66-.54-1.27-.78-1.74-.07-.17-.12-.31-.12-.42,0-.28.17-.49.45-.61.16-.07.31-.09.45-.09.28,0,.52.14.68.47.71,1.32,1.55,3.32,1.98,4.73.05.14.07.26.07.38,0,.38-.21.64-.52.73-.12.05-.24.07-.35.07-.33,0-.64-.19-.75-.52-.14-.49-.33-1.01-.54-1.55-2.42.82-5.55,1.6-7.79,1.98-.05.02-.12.02-.17.02-.4,0-.75-.23-.82-.75-.02-.07-.02-.14-.02-.19,0-.45.26-.78.66-.85,1.01-.14,2.16-.35,3.36-.59v-4.92h-1.53c-1.22,0-1.79-.52-1.79-1.88v-5.53c0-1.36.56-1.88,1.79-1.88h1.53V.66c0-.45.33-.66.85-.66s.8.21.8.66v3.27h1.6ZM4.02,5.48h-1.06c-.42,0-.61.12-.61.59v5.04c0,.45.19.56.61.56h1.06v-6.19ZM6.75,11.67c.42,0,.64-.12.64-.56v-5.04c0-.47-.21-.59-.64-.59h-1.08v6.19h1.08ZM19.93,3.01c1.25,0,1.86.54,1.86,1.76v2.92c0,.52-.35.73-.87.73s-.87-.24-.87-.66v-2.56c0-.47-.24-.59-.71-.59h-7.15c-.47,0-.68.12-.68.59v2.52c0,.47-.42.71-.82.71-.49,0-.87-.26-.87-.75v-2.89c0-1.22.61-1.76,1.83-1.76h3.08V.71c0-.42.33-.66.87-.66s.89.24.89.66v2.31h3.44ZM13.98,18.66c0,.85.17,1.01,2.57,1.01s2.68-.21,2.96-.82c.24-.49.35-1.51.38-2.68,0-.47.35-.71.82-.71h.07c.54.02.82.35.82.82-.02,1.58-.24,2.82-.68,3.67-.47.92-1.25,1.41-4.4,1.41-3.41,0-4.28-.35-4.28-2.14V7.11c0-.42.33-.68.87-.68.47,0,.87.24.87.66v5.22c1.62-.87,3.58-2.26,4.8-3.48.17-.19.42-.28.66-.28s.47.09.66.31c.16.21.26.42.26.64s-.09.42-.28.61c-1.58,1.48-3.98,3.06-6.09,4.14v4.42Z"/>
</svg>