<?xml version="1.0" encoding="UTF-8"?>
<svg id="Layer_1" data-name="Layer 1" xmlns="http://www.w3.org/2000/svg" viewBox="0 0 76.51 89.8">
  <defs>
    <style>
      .cls-1 {
        fill: #d13100;
        stroke-width: 0px;
      }
    </style>
  </defs>
  <path class="cls-1" d="M36.42,43.84c-.62,0-1.13-.5-1.13-1.13s.5-1.13,1.13-1.13,1.13.5,1.13,1.13-.5,1.13-1.13,1.13ZM25.23,39.95c.62,0,1.13-.5,1.13-1.13s-.5-1.13-1.13-1.13-1.13.5-1.13,1.13.5,1.13,1.13,1.13ZM67.13,26.39c-.62,0-1.13.5-1.13,1.13s.5,1.13,1.13,1.13,1.13-.5,1.13-1.13-.5-1.13-1.13-1.13ZM63.17,42.57c-.62,0-1.13.5-1.13,1.13s.5,1.13,1.13,1.13,1.13-.5,1.13-1.13-.5-1.13-1.13-1.13ZM19.88,51.59c.85,0,1.54-.69,1.54-1.54s-.69-1.54-1.54-1.54-1.54.69-1.54,1.54.69,1.54,1.54,1.54ZM30.79,42.99c0-.62-.5-1.13-1.13-1.13s-1.13.5-1.13,1.13.5,1.13,1.13,1.13,1.13-.5,1.13-1.13ZM48.04,49.16c0,.62.5,1.13,1.13,1.13s1.13-.5,1.13-1.13-.5-1.13-1.13-1.13-1.13.5-1.13,1.13ZM11.3,55.73c.62,0,1.13-.5,1.13-1.13s-.5-1.13-1.13-1.13-1.13.5-1.13,1.13.5,1.13,1.13,1.13ZM6.24,63.72c.78,0,1.4-.63,1.4-1.4s-.63-1.4-1.4-1.4-1.4.63-1.4,1.4.63,1.4,1.4,1.4ZM76.51,79.52c-1.37,2.46-4.3,2.36-5.39.72-.38,1.23-.51,2.59,1.57,3.93,0,0-3.23-.12-2.66-4.51.3-2.3-1.41-4.45-3.67-5.29-.05.03-.1.07-.15.1-2.71,1.48-6.97-2.32-8.4-4.78-1.43-2.46-4.1-4.37-5.46.41-1.37,4.78-8.88,8.13-13.52,8.67,3.21.14,7.65-.68,10.52-3.07-6.35,12.22-16.87,15.3-28.61,13.73C8.97,87.85-.59,74.88.03,64.77c.61-10.11,10.11-19.73,21.44-20.9-2.73-5.6,1.43-23.76,8.88-29.23,7.44-5.46,11.4.34,11.4.34-2.76-4.23-5.53-4.54-8.33-4.17-5.39.72-10.33,6.96-11.54,13.52-1.16,6.25-3.82,14.13-10.52,11.81s-4.17-13.93,1.16-20.42c3.88-4.73,3.52-10.59,1.58-14.66-.37-.77.64-1.47,1.24-.85,5.4,5.65,2.04,13.87.19,16.87-2.19,3.55-6.42,10.99-2.73,12.77s4.98-5.19,5.33-7.92c.34-2.73,2.19-16.46,15.3-17.34,13.11-.89,16.05,9.76,16.05,9.76,0,0-1.37-5.53-3.76-7.24,7.31-2.66,16.32.96,20.83,4.71,4.51,3.76,11.24,13.42,6.62,30.52-4.44,16.46-24.92,15.84-31.07,15.36-6.15-.48-27.59-3.76-27.59,12.09s17.21,12.02,21.3,8.6c-5.33-.89-8.06-5.74-7.24-10.38.82-4.64,3.71-9.12,12.22-8.33,7.78.72,7.24,7.07,3.76,9.83,3.69-1.98,2.53-3.69,6.62-7.99,4.1-4.3,10.58-.55,13.73,2.12,2.69,2.28,4.26,7.16,2.48,9.71,4.5,1.3,2.85,10.29,9.12,6.13ZM38.77,7.66c0-.75-.61-1.37-1.37-1.37s-1.37.61-1.37,1.37.61,1.37,1.37,1.37,1.37-.61,1.37-1.37ZM37.49,62.7c0,.83.67,1.5,1.5,1.5s1.5-.67,1.5-1.5-.67-1.5-1.5-1.5-1.5.67-1.5,1.5ZM42.3,70.3c.2-3.62-2.59-5.6-5.19-3.21-2.59,2.39,3,5.39,5.19,3.21ZM36.13,71.12c-.45,0-.82.37-.82.82s.37.82.82.82.82-.37.82-.82-.37-.82-.82-.82ZM33.21,64.61c0,.88.71,1.59,1.59,1.59s1.59-.71,1.59-1.59-.71-1.59-1.59-1.59-1.59.71-1.59,1.59ZM32.85,69.07c0,.63.51,1.14,1.14,1.14s1.14-.51,1.14-1.14-.51-1.14-1.14-1.14-1.14.51-1.14,1.14ZM53.98,13.24c-.48-.15-1.72.1-1.14,1.05.58.95,1.38.28,1.38.28-.67,1.34,1.2,1.93,1.6.44.88,1.31,2.28-.11,1.33-.8,1.7.07,1.23-1.75-.12-1.65,1.43-.96.09-2.25-1.11-1.21.15-1.97-2.34-.9-1.38.58-.2-.3-1.1-.91-1.62-.19-.52.73.09,1.16,1.06,1.51ZM51.24,17.72c1.5,6.01,2.66,19.46-4.85,25.95-7.22,6.23-11.4,6.08-16.18,5.94,0,0,9.63,2.46,16.73-5.05,14.61,1.43,17.07-12.15,15.3-17.55-1.78-5.39-7.51-9.01-10.99-9.29ZM61.36,18.88c-.48-.15-1.72.1-1.14,1.05.58.95,1.38.28,1.38.28-.67,1.34,1.2,1.93,1.6.44.88,1.31,2.28-.11,1.33-.8,1.7.07,1.23-1.75-.12-1.65,1.43-.96.09-2.25-1.11-1.21.15-1.97-2.34-.9-1.38.58-.2-.3-1.1-.91-1.62-.19-.52.73.09,1.16,1.06,1.51ZM68.54,36.17c1.46-.61.32-2.26-.53-1.46.39-1.65-1.49-1.54-1.64-.2-.67-1.59-2.2-.52-1.4.86-1.9-.52-1.32,2.12.31,1.47-.33.14-1.11.91-.49,1.56.61.65,1.16.13,1.68-.75-.24.44-.23,1.71.81,1.32,1.04-.39.53-1.31.53-1.31,1.18.91,2.13-.81.74-1.49ZM63.26,41.17c-1.31,0-2.37,1.06-2.37,2.37s1.06,2.37,2.37,2.37,2.37-1.06,2.37-2.37-1.06-2.37-2.37-2.37ZM69.54,27.47c0-1.43-1.16-2.59-2.59-2.59s-2.59,1.16-2.59,2.59,1.16,2.59,2.59,2.59,2.59-1.16,2.59-2.59ZM58.8,47.92c1.46-.61.32-2.26-.53-1.46.39-1.65-1.49-1.54-1.64-.2-.67-1.59-2.2-.52-1.4.86-1.9-.52-1.32,2.12.31,1.47-.33.14-1.11.91-.49,1.56.62.65,1.16.13,1.68-.75-.24.44-.23,1.71.81,1.32,1.04-.39.53-1.31.53-1.31,1.18.91,2.13-.81.74-1.49ZM49.06,46.72c-1.31,0-2.37,1.06-2.37,2.37s1.06,2.37,2.37,2.37,2.37-1.06,2.37-2.37-1.06-2.37-2.37-2.37ZM46.6,25.59c-.86,0-1.56.7-1.56,1.56s.7,1.56,1.56,1.56,1.56-.7,1.56-1.56-.7-1.56-1.56-1.56ZM44.55,15.81c0,.75.61,1.37,1.37,1.37s1.37-.61,1.37-1.37-.61-1.37-1.37-1.37-1.37.61-1.37,1.37ZM42.37,43.12c-1.33,1.12-2.84,2.02-4.42,2.76-3.19,1.43-6.77,2.09-10.4,1.97,3.55.76,7.39.55,10.89-.78,3.49-1.32,6.64-3.67,8.79-6.81,2.11-3.16,3.18-6.89,3.37-10.58.11-1.85.02-3.69-.2-5.51-.28-1.81-.62-3.6-1.14-5.34.38,3.61.5,7.22.07,10.73-.44,3.5-1.51,6.92-3.46,9.77-.94,1.45-2.16,2.69-3.5,3.79ZM29.58,45.22c1.29,0,2.34-1.05,2.34-2.34s-1.05-2.34-2.34-2.34-2.34,1.05-2.34,2.34,1.05,2.34,2.34,2.34ZM36.31,45.04c1.29,0,2.34-1.05,2.34-2.34s-1.05-2.34-2.34-2.34-2.34,1.05-2.34,2.34,1.05,2.34,2.34,2.34ZM41.86,40.9c1.01,0,1.82-.82,1.82-1.82s-.82-1.82-1.82-1.82-1.82.82-1.82,1.82.82,1.82,1.82,1.82ZM31.51,28.45c-1.71,3.48-3.35,13.73,4.85,10.17,8.19-3.55,8.33-13.79,6.69-19.94-7.72,1.23-9.83,6.28-11.54,9.76ZM30.67,17.41c0,.75.61,1.37,1.37,1.37s1.37-.61,1.37-1.37-.61-1.37-1.37-1.37-1.37.61-1.37,1.37ZM28.64,36.98c-.07-2.17.11-4.27.57-6.29.48-2.01,1.21-3.95,2.26-5.7,1.02-1.77,2.35-3.35,3.92-4.67,1.58-1.32,3.42-2.34,5.47-3.07-2.17.06-4.36.8-6.22,2.04-1.88,1.23-3.43,2.94-4.58,4.87-1.12,1.94-1.86,4.11-2.11,6.32-.26,2.2-.05,4.46.68,6.5ZM24.46,26.42c0,.86.7,1.56,1.56,1.56s1.56-.7,1.56-1.56-.7-1.56-1.56-1.56-1.56.7-1.56,1.56ZM22.83,38.54c0,1.2.97,2.17,2.17,2.17s2.17-.97,2.17-2.17-.97-2.17-2.17-2.17-2.17.97-2.17,2.17ZM17.1,50.05c0,1.53,1.24,2.78,2.78,2.78s2.78-1.24,2.78-2.78-1.24-2.78-2.78-2.78-2.78,1.24-2.78,2.78ZM11.8,65.19c-1.17,5.19.89,10.71,4.69,14.13-1.75-1.87-3.09-4.1-3.8-6.53-.72-2.42-.76-5.01-.11-7.41.64-2.39,1.95-4.62,3.87-6.14,1.89-1.51,4.38-2.24,6.8-2.82,4.91-1.05,10.02-1.25,15.11-1.24,2.55,0,5.1.08,7.65.18l3.83.17c1.32.05,2.64.02,3.95-.11,2.63-.3,5.22-1.03,7.6-2.21,2.38-1.18,4.53-2.8,6.32-4.76,1.79-1.95,3.22-4.24,4.14-6.74.44-1.25.77-2.58.87-3.91.1-1.28.18-2.58.2-3.87.09-5.16-.68-10.49-3.17-15.11-2.49-4.61-6.72-8.08-11.46-9.98,2.28,1.15,4.45,2.54,6.29,4.29,1.85,1.73,3.36,3.8,4.46,6.06,2.26,4.52,2.86,9.68,2.62,14.7-.06,1.26-.17,2.52-.31,3.78-.11,1.22-.41,2.4-.83,3.55-.87,2.29-2.22,4.42-3.9,6.22-1.68,1.8-3.7,3.29-5.92,4.36-2.22,1.07-4.63,1.73-7.09,1.99-1.23.13-2.47.18-3.71.14l-3.84-.13c-2.56-.08-5.13-.13-7.7-.11-5.13.07-10.33.22-15.4,1.51-1.27.31-2.51.74-3.73,1.22-1.19.52-2.43,1.12-3.44,2.02-2.06,1.74-3.4,4.18-3.99,6.74ZM15.37,80.32c-.6,0-1.09.49-1.09,1.09s.49,1.09,1.09,1.09,1.09-.49,1.09-1.09-.49-1.09-1.09-1.09ZM9.41,55.3c-.42.18-1.38,1.13-.61,1.94s1.45.16,2.09-.93c-.3.55-.29,2.13,1.01,1.64,1.3-.49.67-1.63.67-1.63,1.48,1.14,2.65-1.01.92-1.86,1.82-.76.4-2.81-.67-1.82.49-2.06-1.86-1.92-2.05-.25-.84-1.98-2.74-.64-1.75,1.07-2.37-.65-1.65,2.65.38,1.83ZM5.32,64.6c-.23.47-.35,2.03.93,2.16,1.28.13,1.39-.95,1.12-2.39.15.7,1.35,2.08,2.12.67.77-1.41-.65-1.92-.65-1.92,2.14-.12,1.55-2.88-.59-2.32,1.01-2.04-1.77-2.76-1.95-1.08-1.12-2.16-3.06-.27-1.98,1.33-2.22-1.1-2.87,1.5-.72,2.25-2.56,1.22.56,3.56,1.72,1.31ZM9.54,72.4c0-1.61-1.3-2.91-2.91-2.91s-2.91,1.3-2.91,2.91,1.3,2.91,2.91,2.91,2.91-1.3,2.91-2.91ZM11.23,79.77c.93,0,1.68-.75,1.68-1.68s-.75-1.68-1.68-1.68-1.68.75-1.68,1.68.75,1.68,1.68,1.68ZM36.42,84.32c-2.84,1.14-5.82,1.92-8.85,2.15-3.02.27-6.08-.01-9.01-.83-2.94-.82-5.72-2.21-8.36-3.94,2.2,2.26,4.93,4.06,7.96,5.16,3.03,1.12,6.32,1.5,9.54,1.24,3.22-.29,6.37-1.19,9.24-2.63,2.86-1.43,5.48-3.36,7.54-5.75-2.52,1.89-5.22,3.44-8.06,4.59ZM51.31,68.46c-.46,1.27-1.3,2.3-2.27,3.15-.97.86-2.08,1.54-3.22,2.13-2.3,1.12-4.86,1.92-7.3,1.82-1.14-.07-2.48-.42-3.58-.89-1.13-.47-2.12-1.18-2.76-2.17-.65-.98-.93-2.24-.97-3.52-.05-1.29.14-2.61.35-3.94-.58,1.22-1,2.52-1.18,3.9-.16,1.37-.05,2.88.66,4.22.69,1.35,1.95,2.33,3.25,2.94.66.31,1.33.53,2.01.72.65.18,1.39.35,2.14.37,2.93.06,5.62-.93,7.98-2.36,1.18-.73,2.26-1.62,3.16-2.67.88-1.06,1.6-2.33,1.71-3.69ZM62.01,69.25c-.66-.78-1.62-1.04-2.15-.59s-.43,1.44.23,2.22c.66.78,1.62,1.04,2.15.59.53-.45.43-1.44-.23-2.22ZM6.63,70.84c-.85,0-1.54.69-1.54,1.54s.69,1.54,1.54,1.54,1.54-.69,1.54-1.54-.69-1.54-1.54-1.54Z"/>
</svg>