<?xml version="1.0" encoding="UTF-8"?>
<svg id="Layer_1" data-name="Layer 1" xmlns="http://www.w3.org/2000/svg" viewBox="0 0 21.88 21.98">
  <defs>
    <style>
      .cls-1 {
        fill: #d13100;
        stroke-width: 0px;
      }
    </style>
  </defs>
  <path class="cls-1" d="M9.76.71c0-.45.38-.71.92-.71s.89.26.89.71v1.08h7.53c.38,0,.61.33.61.75s-.24.78-.61.78h-7.53v1.53h8.54c1.03,0,1.6.66,1.6,1.44,0,.26-.05.49-.16.75-.33.75-.82,1.58-1.39,2.21-.19.21-.42.31-.66.31-.19,0-.4-.07-.59-.19-.19-.14-.31-.38-.31-.61,0-.19.07-.35.21-.52.33-.35.71-.87.96-1.41.05-.09.07-.17.07-.24,0-.14-.12-.21-.33-.21H5.18c-.85,0-1.08.28-1.08.96,0,7.55-.59,10.59-2.31,13.74-.19.33-.49.47-.8.47-.19,0-.4-.05-.56-.14-.24-.14-.42-.4-.42-.73,0-.21.07-.45.24-.68,1.65-2.78,2.07-5.76,2.07-12.99,0-1.44.85-2.16,2.35-2.16h5.11V.71ZM10.26,15.13v.07c-.12,3.76-1.79,5.72-5.44,6.71-.14.05-.28.07-.4.07-.35,0-.61-.19-.75-.56-.07-.14-.09-.28-.09-.42,0-.33.21-.64.64-.75,3.01-.87,4.14-2.07,4.21-5.08.02-.54.35-.8.92-.8h.07c.59.02.85.33.85.78ZM17.13,8.31h.05c.42,0,.64.28.66.68v.07c0,.38-.21.71-.59.73l-6.47.35v.87c0,.45.07.73.31.85.28.14,1.06.28,3.27.28,2.59,0,3.41-.16,3.76-.45.33-.26.52-.61.59-1.06.05-.38.33-.61.8-.61.05,0,.12,0,.19.02.52.05.73.35.73.68v.12c-.09.78-.38,1.48-.78,1.88-.59.59-1.43.89-5.29.89-2.21,0-3.53-.12-4.31-.45-.78-.31-.99-.8-.99-1.67v-1.27l-3.32.19h-.05c-.38,0-.59-.31-.61-.71v-.05c0-.4.24-.73.59-.75l3.39-.19v-1.22c0-.42.35-.68.87-.68s.85.26.85.68v1.13l6.35-.33ZM13.04,15.08c0-.4.4-.64.92-.64.56,0,.92.24.92.64v4c0,.35.05.56.33.68.33.14.92.19,2.05.19,1.86-.02,2.16-.21,2.42-.66.24-.42.4-1.13.42-2.05.02-.49.31-.73.8-.73h.14c.54.05.85.33.85.82v.05c-.05,1.27-.31,2.49-.75,3.08-.54.73-1.27,1.11-3.95,1.11-1.65,0-2.63-.09-3.22-.35-.71-.28-.92-.75-.92-1.6v-4.54Z"/>
</svg>