<?xml version="1.0" encoding="UTF-8"?>
<svg id="Layer_1" data-name="Layer 1" xmlns="http://www.w3.org/2000/svg" viewBox="0 0 139.58 83.54">
  <defs>
    <style>
      .cls-1 {
        fill: #d13100;
        stroke-width: 0px;
      }
    </style>
  </defs>
  <path class="cls-1" d="M27.46,34.43c-.02.65-.33,1.38-.99,1.79-.65.42-1.5.41-2.18.16-.68-.26-1.28-.74-1.64-1.36-.37-.61-.49-1.42-.17-2.02.06.67.35,1.2.73,1.62.39.42.87.75,1.39.93.52.2,1.07.23,1.56.05.5-.18.92-.63,1.3-1.18ZM46.66,24.06c-2.04-1.52-4.29-1.5-6.02-.14,1.81-.41,3.65-.04,5.24,1.17,1.34.97,2.49,2.77,2.14,4.52.69-.72.72-3.94-1.37-5.55ZM70.91,29.33c.61-.46,1.01-2.89-.38-4.35-1.36-1.39-3.06-1.64-4.52-.81,1.41-.09,2.76.4,3.82,1.5.9.89,1.55,2.38,1.08,3.66ZM50.65,38.42c.72-.7,1.17-1.65,1.3-2.66.12-1-.14-2.14-.92-2.88-.77-.76-1.85-.93-2.74-.75.87.33,1.61.75,2.02,1.37.4.61.53,1.36.43,2.12-.08.76-.37,1.52-.81,2.18-.45.65-1.07,1.21-1.95,1.51.92.22,1.97-.19,2.67-.89ZM45.4,44.36c.84.46,1.84.59,2.8.42.94-.18,1.91-.75,2.36-1.68.47-.92.31-1.95-.11-2.71-.05.89-.22,1.68-.66,2.23-.44.54-1.09.88-1.81,1.01-.72.15-1.49.1-2.22-.1-.72-.22-1.41-.62-1.94-1.34.06.9.74,1.74,1.59,2.17ZM60.51,43.2c-.49.44-1.15.66-1.84.68-.69.04-1.41-.12-2.06-.42-.65-.31-1.23-.79-1.62-1.54-.07.86.44,1.74,1.17,2.27.72.55,1.64.82,2.56.8.91-.03,1.9-.42,2.46-1.22.57-.79.58-1.78.29-2.55-.17.83-.45,1.54-.95,1.99ZM62.32,34.73c.29.63.3,1.35.1,2.05-.18.7-.57,1.37-1.07,1.92-.52.55-1.18.98-2.05,1.13.83.34,1.87.11,2.63-.45.78-.55,1.34-1.37,1.61-2.3.25-.92.18-2.03-.44-2.84-.61-.82-1.59-1.14-2.45-1.1.77.43,1.4.94,1.69,1.58ZM70.7,39.35c-.39.36-.92.53-1.48.55-.56.03-1.14-.1-1.66-.34-.52-.25-.99-.64-1.31-1.24-.06.69.36,1.4.94,1.83.58.44,1.32.66,2.06.64.73-.03,1.53-.34,1.98-.99.46-.64.46-1.44.23-2.06-.14.67-.36,1.24-.76,1.61ZM60.76,30.76c.76-.58,1.25-3.59-.47-5.4-1.69-1.72-3.8-2.03-5.61-1.01,1.76-.11,3.43.49,4.74,1.87,1.11,1.11,1.93,2.95,1.34,4.54ZM28.36,33.23c.74-.17,1.4-.61,1.88-1.21.46-.6.75-1.44.53-2.22-.2-.79-.83-1.32-1.47-1.55.43.55.75,1.11.77,1.67.02.55-.19,1.09-.55,1.54-.35.46-.83.84-1.37,1.09-.54.25-1.16.36-1.85.21.51.5,1.35.65,2.07.47ZM30.11,26.53c.73-.2,2.01-2.26,1.28-4.12-.72-1.78-2.19-2.64-3.83-2.44,1.33.45,2.37,1.4,2.93,2.81.49,1.15.53,2.76-.38,3.75ZM24.24,26.08c.4-.31.47-.88.16-1.28s-.88-.47-1.28-.16c-.4.31-.47.88-.16,1.28.31.4.88.47,1.28.16ZM86.42,40.16c-.49.44-1.15.66-1.84.68-.69.04-1.41-.12-2.06-.42-.65-.31-1.23-.79-1.62-1.54-.07.86.44,1.74,1.17,2.27.72.55,1.64.82,2.56.8.91-.03,1.9-.42,2.46-1.22.57-.79.58-1.78.29-2.55-.17.83-.45,1.54-.95,1.99ZM93.88,21.43c-1.47-.86-2.96-.67-4,.36,1.17-.4,2.42-.3,3.56.38.96.54,1.86,1.65,1.76,2.83.41-.53.18-2.67-1.32-3.58ZM86.68,27.72c.76-.58,1.25-3.59-.47-5.4-1.69-1.72-3.8-2.03-5.61-1.01,1.76-.11,3.43.49,4.74,1.87,1.11,1.11,1.93,2.95,1.34,4.54ZM72.78,32.14c-.49-.66-1.28-.92-1.98-.89.62.35,1.12.76,1.36,1.27.23.51.24,1.09.08,1.65-.15.57-.46,1.1-.86,1.55-.42.44-.95.79-1.65.91.67.28,1.51.09,2.12-.36.63-.44,1.08-1.11,1.29-1.85.2-.74.15-1.63-.36-2.28ZM97.6,30.65c.43-.52.65-1.18.66-1.86,0-.67-.25-1.41-.83-1.84-.57-.44-1.29-.48-1.87-.29.6.15,1.12.38,1.44.76.31.37.45.86.45,1.37,0,.51-.13,1.03-.37,1.5-.25.47-.62.88-1.18,1.15.63.08,1.29-.27,1.7-.79ZM89,31.21c-.61-.82-1.59-1.14-2.45-1.1.77.44,1.4.94,1.69,1.58.29.63.3,1.35.1,2.05-.18.7-.57,1.37-1.07,1.92-.52.55-1.18.98-2.05,1.13.83.34,1.87.11,2.63-.45.78-.55,1.34-1.37,1.61-2.3.25-.92.18-2.03-.44-2.84ZM125.06,47.33c-12.8,3.72-17.57-5.51-17.57-5.51,0,0,3.51,16.1,10.76,18.98,1.23.49,2.14,1.55,2.37,2.85,1.35,7.67,1.08,13.31.67,16.53-.23,1.79-1.7,3.17-3.51,3.25-2.16.1-5.12.18-7.54.05-1.78-.09-2.47-2.46-.96-3.43.81-.52,1.85-.73,2.72-.81,1.08-.09,1.91-.98,2.02-2.06.42-4.32-.56-7.35-3.16-9.59-2.71-2.33-14.09-9.04-17.65-16.64-.64-1.36-.49-2.94.29-4.23,2.49-4.09,3.45-8.69,3.45-9.89-1.36,5.51-5.14,10.81-8.87,14.64-3.21,3.3-1.98,13.31.2,17.28.59,1.08.47,2.41-.31,3.36-2.53,3.08-6.18,5.82-8.46,8.15-.96.97-2.22,1.59-3.58,1.69-1.99.14-3.97.1-5.62,0-2.49-.15-3.25-3.63-.95-4.61.22-.09.44-.15.67-.17,2.31-.21,6.09-.16,6.09-.16,0,0,1.19-3.3,2.2-5.54.41-.92.42-1.96.01-2.88-2.16-4.91-4.49-11.37-3.73-16.97-8.6,5.61-21.4,1.89-23.03,1.63-1.63-.26-3.99-.94-5.98,1,0,0,.87,12.79-3.88,22.17-.64,1.27-1.9,2.13-3.31,2.29-3.09.35-6.06-.22-7.84-.69-1.31-.35-2.03-1.86-1.35-3.03.22-.37.56-.66,1.07-.75,1.84-.31,5.72.52,5.35-3.2s-.58-12.07.63-14.16c-4.34,4.86-9.35,3.99-11.62,7.15-1.34,1.86-.64,4.09,1.49,4.93,3.8,1.5,1.26,6.31-1.73,4.82-.04-.02-.07-.04-.11-.06-3.36-1.78-3.25-1.63-4.56-1.57-1.31.05-2.78-1.68-3.83-5.51-1.05-3.83-1.63-6.4,1.63-9.34,3.25-2.94,7.82-5.04,6.82-9.28s-4.88-9.02-4.35-12.59c-3.62-1.05-6.82-1.21-8.81,1.26-1.81,2.24-5.44,2.44-7.27.38-.28-.32-.26-.83.05-1.12.68-.65.53-1.14-.33-.88-1.05.31-3.51-.52-3.62-2.47-.1-1.94,1.57-3.83,1.68-5.04.1-1.21-1.84-3.83-.42-6.35,1.42-2.52,2.36-3.25,2.36-3.25,0,0-3.04-.63-3.04-3.88s5.4-2.36,5.72,1.36c.37.47,1.25.16,1.63,0,3.14-1.31,5.98-.58,6.45.05-.42-3.99,4.12-3.84,5.14-2.15.94,1.57.68,3.09.05,4.14,3.41.84,7.82-1.84,14.85-1.26,7.03.58,12.28,7.87,30.79,2.47,18.52-5.4,32.21-.94,39.82,7.03,7.61,7.97,5.04,16.89,15.68,16.89s17.36-16.4,8.95-21.39c-10.49-6.22-27.47-3.11-27.47-13.29s5.98-8.13,7.5-6.87c1.52,1.26-.1,3.48-.47,5.77-.29,1.76-.02,3.43,6.03,4.09,6.25.69,17.7,3.33,22.45,10.7,4.85,7.53.16,21.98-12.64,25.7ZM53.51,24.59c2.56.54,4.65,1.95,4.65,1.95l-2.72-.41,2.62,1.96-1.27-.23,2.07,1.86-1.67-.55,2.18,1.89-1.69-.84s2.3,2.4,2.07,2.33c-.23-.07-1.79-1.22-1.73-1.15.06.08,2.48,2.98,2.39,2.92-.09-.06-1.9-1.35-1.9-1.35,0,0,2.13,3.23,1.85,2.9-.28-.33-1.65-1.51-1.65-1.51l1.57,2.87-1.48-1.36,1.14,2.76-1.37-1.49.39,1.61-.76-.66.49,2.14-.85-1.23s.44,2.91.36,2.76c-.08-.15-.95-2.02-.95-2.02l.03,2.05-.74-1.2-.33,1.57c-.76-.07-1.43-.84-1.69-1.23-.41,1.99.82,3.61,1.85,4.28,2.89,1.88,7.69-1.54,5.35-4.72,4.33-.75,3.43-8.77-.92-8.46,5.28-4.9-2.28-12.72-7.3-7.45ZM32.73,18.59c.81,1.13,1.56,2.24,2.1,3.4.53,1.16.84,2.36.83,3.56.03,1.2-.26,2.43-.69,3.64-.46,1.2-1.03,2.42-1.63,3.64-.61,1.22-1.34,2.38-2.17,3.46-.83,1.09-1.84,2.05-2.67,3.17-.82,1.12-1.47,2.39-1.93,3.73-.46,1.34-.73,2.77-.57,4.18l.17.02c.47-1.31.99-2.52,1.6-3.69.6-1.18,1.29-2.3,1.92-3.49.62-1.19,1.18-2.46,1.93-3.6.74-1.15,1.61-2.2,2.5-3.27.89-1.06,1.72-2.21,2.32-3.52.62-1.29,1.09-2.76,1.02-4.3-.07-1.53-.62-3.02-1.48-4.19-.85-1.19-1.94-2.12-3.13-2.86l-.11.12ZM15.58,15.77c.91-.42,2.31.07,2.94,1.89.7-3.15-2.24-3.71-2.94-1.89ZM9.82,16.69c-.72.31-1.35.81-1.85,1.42-.49.61-.85,1.33-1.02,2.09-.17.75-.16,1.57.15,2.27.04-.75.22-1.43.48-2.08.27-.64.61-1.23,1.05-1.76.86-1.07,2.02-1.82,3.46-2.25-.74-.12-1.54,0-2.25.31ZM8.94,24.58c1.89,0,3.08-.63,3.64-2.45-1.05-.56-3.5-.14-3.64,2.45ZM4.88,16.75c-.42-1.33-1.96-2.1-2.94-1.96.7,1.47,2.17,2.03,2.94,1.96ZM1.74,21.99c.14,1.26.91,3.08,2.17,1.89-.07-2.17-1.26-3.08-2.17-1.89ZM4.05,30.78c-.69-.01-1.5-.05-2.22-.11-.37-.03-.63.34-.48.69.14.32.32.61.49.84.25.34.71.41,1.06.18.33-.22.79-.53,1.34-.86.33-.2.2-.72-.19-.72ZM6.17,18.86c.61-1.04,1.51-1.87,2.65-2.58-1.36.07-2.65.95-3.37,2.16-.35.61-.58,1.31-.59,2.02-.02.7.17,1.41.55,1.96-.12-1.34.14-2.52.76-3.55ZM11.46,29.43c.73-.42,1.43-.92,2-1.55.57-.62,1.04-1.39,1.19-2.21-.48.68-1.04,1.24-1.64,1.73-.61.49-1.27.92-1.96,1.29-1.38.77-2.86,1.34-4.41,1.93,1.67.07,3.34-.39,4.82-1.19ZM7.3,31.62c1.64.3,3.36.08,4.94-.5.79-.31,1.55-.71,2.2-1.25.66-.54,1.22-1.23,1.49-2.02-.57.61-1.2,1.08-1.87,1.48-.68.4-1.39.73-2.12,1-1.47.57-3.02.92-4.64,1.28ZM16.75,30.43c-.66.51-1.35.89-2.08,1.18-.73.29-1.48.51-2.25.67-1.54.34-3.12.45-4.78.56,1.58.55,3.31.59,4.96.26.82-.18,1.64-.46,2.37-.9.73-.43,1.39-1.03,1.78-1.77ZM20.58,20.68c.23-.23.38-.6.35-.93-.07-.65-.54-1.03-1-1.13-.03,0-.05,0-.08.02-.04.03-.04.09-.01.12.26.32.34.73.23.93-.12.16-.28.18-.59.21-.32.02-.61-.04-1.07-.08-.49-.06-1.01,0-1.52.14-.51.16-1.03.42-1.43.9-.41.45-.66,1.17-.55,1.82.2,1.31,1.27,1.88,1.92,2.25.7.42,1.34.98,1.7,1.7.37.73.28,1.55.05,2.14-.37,1.23-1.46,2.37-2.56,3.75-.02.02-.02.05-.02.07.01.05.06.08.11.07.87-.19,1.69-.57,2.4-1.16.69-.58,1.37-1.42,1.45-2.48.08-1.07-.48-1.96-.96-2.67-.49-.73-1.01-1.41-1.55-2.11-.29-.35-.54-.66-.7-.95-.17-.29-.27-.57-.25-.77.01-.36.37-.64.96-.87.29-.1.61-.19.95-.22.14-.03.45-.04.67-.07.25-.04.5-.11.75-.2.26-.1.52-.25.75-.5ZM22.18,27.5c.94.41,1.19-.52,1.19-.52.2,1.36,1.92.82,1.44-.51,1.36.53,1.66-1.29.58-1.31,1.32-.84,0-1.97-.96-1.18.57-1.48-1.12-1.74-1.48-.33-.93-1.56-2.23.56-.74,1.17-.31-.12-1.31-.11-1.32.72,0,.82.68.83,1.59.58-.44.13-1.25.98-.3,1.39ZM27.88,33.99c3.41.76,5.18-5.42,1.88-6.51,5.37-2.01,2.16-10.05-3.12-7.7,1.72,1.17,2.83,2.84,2.83,2.84l-1.88-1.12,1.34,2.23-.87-.56.96,1.99-1.06-.91,1.03,2.05-.99-1.13s.97,2.46.82,2.34c-.15-.12-.95-1.44-.93-1.37.02.08.93,2.94.88,2.88-.05-.07-.99-1.57-.99-1.57,0,0,.59,3.02.49,2.69-.1-.33-.76-1.61-.76-1.61l.29,2.59-.68-1.45v2.38l-.56-1.51-.2,1.31-.36-.71-.29,1.72-.26-1.16s-.55,2.28-.57,2.14c-.01-.13-.09-1.77-.09-1.77l-.6,1.52-.18-1.1-.72,1.06c-.54-.28-.8-1.05-.88-1.42-.9,1.34-.48,2.91.07,3.71,1.56,2.26,6.13,1.19,5.37-1.86ZM36.54,48.94c.03-.41-.03-.82-.09-1.21-.07-.4-.22-.81-.41-1.16-.39-.71-.96-1.26-1.6-1.71-.64-.44-1.37-.81-2.22-.94-.84-.14-1.84.05-2.6.64-.75.59-1.2,1.37-1.43,2.29-.1.47-.13,1.03.08,1.57.17.56.63.99,1.07,1.26.47.23.96.36,1.42.33.23.01.46-.05.69-.09.22-.07.44-.15.64-.26.4-.23.76-.55.94-.96.13-.18.13-.43.18-.62.02-.21-.03-.42-.04-.61,0-.06-.06-.1-.12-.1-.04,0-.08.03-.09.07v.02c-.24.71-.77,1.04-1.29,1.14-.54.09-1.12-.07-1.44-.33-.12-.15-.23-.25-.23-.42-.04-.14,0-.34.05-.56.16-.47.44-1,.76-1.39.32-.39.79-.69,1.39-.8.6-.1,1.29.01,1.87.34.58.32,1.07.84,1.31,1.44.12.3.17.6.16.92,0,.33-.07.65-.16.96-.39,1.23-1.3,2.1-2.31,2.37-.51.13-1.07.12-1.63,0-.2-.05-.74-.16-1.19-.21-.23,0-.46,0-.69,0-.23.02-.45.06-.68.1-.89.2-1.72.62-2.38,1.25-.67.61-1.19,1.45-1.32,2.39-.14.95.16,1.88.66,2.54.47.7,1.15,1.13,1.81,1.48.05.03.12,0,.15-.05.02-.04.02-.08,0-.11h0c-.4-.63-.81-1.21-.97-1.83-.18-.61-.18-1.18.01-1.66.4-.96,1.46-1.6,2.51-1.78.13,0,.26-.04.4-.05.13,0,.26,0,.39,0,.27.03.45.05.96.12.86.11,1.8.05,2.66-.3.86-.34,1.61-.94,2.08-1.68.48-.75.69-1.6.72-2.42ZM40.19,49.32c-.03-1.06-.53-2-.94-2.81-.42-.84-.82-1.67-1.04-2.53-.23-.87-.34-1.69-.36-2.49,0-.8.17-1.59.37-2.4.38-1.63,1.04-3.27,1.57-5.09l-.14-.09c-1.44,1.24-2.54,2.83-3.16,4.71-.59,1.88-.28,4.21.89,5.74.54.78,1.08,1.52,1.38,2.36.31.84.21,1.74.05,2.5-.17.77-.36,1.56-.66,2.37-.28.82-.65,1.63-.91,2.56l.14.1c.78-.56,1.43-1.27,1.94-2.09.49-.82.9-1.79.88-2.84ZM43.29,37.69c.45.04.49-.33.39-.84.05.25.47.73.74.24.27-.49-.23-.67-.23-.67.75-.04.54-1.01-.21-.81.35-.71-.62-.97-.68-.38-.39-.76-1.08-.1-.69.47-.78-.39-1.01.53-.25.79-.9.43.2,1.25.6.46-.08.17-.12.71.33.76ZM43.19,41.25c-.1,2.14,1.45,3.63,2.63,4.16,3.32,1.49,7.77-2.85,4.81-5.8,4.39-1.48,2.15-9.71-2.34-8.67,4.71-5.96-4.45-12.89-8.83-6.58,2.76.14,5.16,1.28,5.16,1.28h-2.9l3.05,1.62-1.37-.04,2.46,1.6-1.83-.3,2.58,1.62-1.9-.6s2.79,2.12,2.54,2.09c-.25-.03-2.07-.98-1.99-.91.08.07,3.07,2.7,2.97,2.66-.1-.04-2.2-1.1-2.2-1.1,0,0,2.75,3.02,2.41,2.72-.34-.3-1.97-1.31-1.97-1.31l2.11,2.74-1.76-1.17,1.64,2.69-1.67-1.33.67,1.62-.9-.56.86,2.15-1.09-1.14s.93,2.96.83,2.82c-.11-.14-1.31-1.95-1.31-1.95l.36,2.13-.96-1.13-.09,1.69c-.8.05-1.63-.64-1.97-1.01ZM67.86,45.52c-1.93.83-3.87,1.43-5.84,1.88-1.97.43-3.97.73-5.99.85-2.01.16-4.04.15-6.07.05-2.03-.11-4.07-.34-6.15-.61,1.88.94,3.92,1.54,6,1.9,2.08.37,4.22.46,6.34.33,2.12-.16,4.23-.55,6.23-1.27,2-.71,3.92-1.72,5.48-3.14ZM71.69,37.17c3.49-.6,2.76-7.07-.74-6.81,4.25-3.94-1.84-10.24-5.88-6,2.06.43,3.74,1.57,3.74,1.57l-2.19-.33,2.11,1.57-1.03-.19,1.66,1.5-1.34-.44,1.76,1.52-1.36-.67s1.85,1.93,1.67,1.88c-.18-.05-1.45-.98-1.39-.92.05.06,2,2.4,1.93,2.35-.07-.04-1.53-1.09-1.53-1.09,0,0,1.72,2.6,1.49,2.33-.22-.27-1.33-1.22-1.33-1.22l1.27,2.31-1.19-1.09.92,2.22-1.1-1.2.32,1.3-.62-.53.39,1.72-.69-.99s.36,2.34.29,2.22c-.06-.12-.76-1.62-.76-1.62l.02,1.65-.59-.96-.27,1.26c-.61-.06-1.15-.67-1.36-.99-.33,1.6.66,2.91,1.49,3.45,2.33,1.52,6.2-1.24,4.31-3.8ZM75.91,37.7c.4-1.13.95-2.2,1.47-3.32,1.15-2.18,1.27-5.16.14-7.51-1.16-2.32-2.96-4.11-5.01-5.45l-.12.12c1.28,2.09,2.64,4.01,3.49,6.06.43,1.02.76,2.05.84,3.13.08,1.08,0,2.21-.22,3.37-.21,1.16-.6,2.3-1.1,3.4-.49,1.09-1.18,2.14-1.6,3.32-.79,2.37-.69,5.07.34,7.32l.16-.03c.1-1.23.14-2.39.28-3.54.12-1.15.37-2.25.56-3.39.19-1.14.35-2.35.75-3.47ZM86.01,49.91c.01-.89-.27-1.72-.68-2.43-.2-.36-.46-.68-.72-.97-.27-.3-.62-.57-.96-.77-.71-.39-1.49-.55-2.26-.59-.78-.03-1.59.04-2.38.39-.79.33-1.53,1.03-1.86,1.92-.31.9-.29,1.8,0,2.7.17.45.44.94.9,1.29.44.38,1.06.5,1.58.49.52-.05,1-.21,1.38-.48.2-.11.37-.29.53-.44.15-.17.29-.36.4-.56.21-.4.35-.87.28-1.32,0-.22-.12-.43-.18-.62-.1-.19-.25-.34-.36-.49-.04-.05-.1-.06-.15-.02-.04.03-.05.07-.04.11v.02c.18.72-.08,1.29-.48,1.65-.41.37-.99.54-1.39.48-.18-.07-.33-.09-.42-.23-.11-.1-.18-.28-.26-.5-.11-.48-.16-1.08-.1-1.58.06-.51.3-1.01.75-1.42.45-.4,1.1-.68,1.77-.71.67-.04,1.36.14,1.88.52.26.19.46.41.62.7.17.28.29.59.37.9.33,1.25.02,2.47-.7,3.24-.36.39-.84.67-1.38.87-.2.06-.71.26-1.12.46-.2.12-.39.25-.58.37-.18.14-.35.29-.52.45-.64.64-1.12,1.44-1.35,2.32-.24.87-.23,1.86.16,2.73.38.88,1.14,1.51,1.91,1.8.77.34,1.57.35,2.32.29.06,0,.11-.06.1-.12,0-.04-.03-.07-.06-.09h-.01c-.67-.31-1.32-.59-1.79-1.03-.48-.42-.78-.9-.87-1.41-.17-1.02.38-2.13,1.17-2.84.11-.08.2-.18.31-.26.11-.07.23-.13.33-.21.24-.12.4-.2.87-.41.79-.36,1.55-.92,2.09-1.67.55-.74.86-1.65.87-2.54ZM87.65,37.46c4.33-.75,3.43-8.77-.92-8.46,5.28-4.9-2.28-12.72-7.3-7.45,2.56.54,4.65,1.95,4.65,1.95l-2.72-.41,2.62,1.96-1.27-.23,2.07,1.86-1.67-.55,2.18,1.89-1.69-.84s2.3,2.4,2.07,2.33c-.23-.07-1.79-1.22-1.73-1.15.06.08,2.48,2.98,2.39,2.92-.09-.06-1.9-1.35-1.9-1.35,0,0,2.13,3.23,1.85,2.9-.28-.33-1.65-1.51-1.65-1.51l1.57,2.87-1.48-1.36,1.14,2.76-1.37-1.49.39,1.61-.76-.66.49,2.14-.85-1.23s.44,2.91.36,2.76c-.08-.15-.95-2.02-.95-2.02l.03,2.05-.74-1.2-.33,1.57c-.76-.07-1.43-.84-1.69-1.23-.41,1.99.82,3.61,1.85,4.28,2.89,1.88,7.69-1.54,5.35-4.72ZM92.53,38.82c.35-.71-.62-.97-.68-.38-.39-.76-1.08-.1-.69.47-.78-.39-1.01.53-.25.79-.9.43.2,1.25.6.46-.08.17-.12.71.33.76s.49-.33.39-.84c.05.25.47.73.74.24.27-.49-.23-.67-.23-.67.75-.04.54-1.01-.21-.81ZM97.67,31.44c2.8-1.31.7-6.6-2.2-5.57,2.67-4.31-3.92-8.21-6.34-3.7,1.84-.11,3.52.46,3.52.46l-1.92.23,2.14.84-.91.08,1.75.88-1.23-.06,1.83.88-1.3-.25s2.01,1.2,1.84,1.2c-.17,0-1.45-.5-1.39-.46.06.04,2.24,1.56,2.17,1.54-.07-.02-1.54-.56-1.54-.56,0,0,2.05,1.8,1.8,1.62-.25-.17-1.4-.72-1.4-.72l1.6,1.66-1.26-.65,1.29,1.66-1.21-.76.57,1.02-.64-.3.73,1.36-.81-.68s.84,1.89.76,1.81c-.08-.09-1.02-1.19-1.02-1.19l.4,1.39-.72-.67.07,1.13c-.53.09-1.13-.3-1.38-.52.09,1.43,1.23,2.3,2.05,2.56,2.31.74,4.94-2.48,2.75-4.2ZM105.89,58.35c-.78-.92-.88-2.35-.51-3.53.06-.14.1-.3.15-.44.07-.14.15-.27.21-.41.17-.26.28-.44.63-.93.57-.83,1-1.83,1.1-2.9.11-1.06-.12-2.16-.64-3.05-.52-.89-1.29-1.56-2.12-2.03-.41-.24-.86-.4-1.3-.55-.45-.14-.95-.2-1.42-.19-.94.03-1.81.33-2.61.75-.79.43-1.56.99-2.15,1.8-.59.79-.92,1.93-.71,3.02.22,1.08.78,1.97,1.6,2.69.44.36.99.68,1.67.75.67.12,1.35-.12,1.87-.44.49-.36.88-.8,1.09-1.3.14-.24.2-.5.27-.76.05-.26.07-.53.07-.79-.03-.53-.17-1.07-.5-1.49-.12-.23-.37-.36-.55-.52-.21-.13-.45-.19-.65-.28-.06-.03-.14,0-.16.07-.02.05,0,.1.03.13l.02.02c.61.62.67,1.34.5,1.93-.19.61-.67,1.13-1.1,1.31-.22.04-.39.11-.55.02-.17-.03-.35-.17-.56-.35-.4-.41-.8-.98-1.03-1.52-.24-.54-.3-1.18-.09-1.86.21-.67.7-1.33,1.35-1.76.64-.43,1.44-.66,2.18-.59.38.04.71.14,1.03.33.34.18.64.41.9.68,1.07,1.06,1.48,2.46,1.22,3.64-.13.6-.44,1.17-.86,1.68-.16.18-.56.68-.84,1.12-.13.23-.24.48-.36.72-.1.25-.18.5-.25.76-.26,1.02-.26,2.1.03,3.12.28,1.01.87,1.99,1.78,2.63.9.65,2.03.83,2.98.67.97-.12,1.78-.59,2.49-1.08.06-.04.07-.12.03-.18-.03-.04-.07-.06-.12-.05h-.01c-.85.09-1.67.2-2.39.04-.72-.13-1.31-.44-1.7-.89ZM133.3,21.99c-.76-1.5-2.02-2.69-3.41-3.64-1.41-.92-2.96-1.63-4.53-2.21-3.16-1.16-6.45-1.81-9.69-2.55-1.62-.35-3.25-.68-4.82-1.15-1.57-.46-3.09-1.08-4.22-2.2-1.13-1.1-1.68-2.75-1.44-4.34.11-.79.38-1.58.84-2.25.45-.65,1.14-1.24,1.99-1.27-.85-.07-1.65.48-2.17,1.14-.54.67-.89,1.47-1.07,2.32-.34,1.69.18,3.56,1.38,4.86,1.19,1.33,2.88,1.99,4.46,2.49,1.61.5,3.24.87,4.87,1.24,3.26.67,6.51,1.33,9.66,2.34,1.57.5,3.1,1.12,4.52,1.95.71.42,1.39.87,2.01,1.42.61.55,1.16,1.17,1.62,1.87ZM134.98,36.05c-1.17,2.3-2.95,4.21-5.06,5.6-2.11,1.38-4.5,2.32-6.98,2.74-2.47.44-5.05.38-7.47-.3-2.41-.68-4.65-2.09-6.2-4.16.63,1.13,1.52,2.12,2.54,2.93,1.04.8,2.23,1.41,3.47,1.84,2.5.86,5.22.96,7.8.51,2.59-.46,5.09-1.47,7.2-3.04,1.05-.78,2.01-1.7,2.82-2.72.79-1.04,1.45-2.18,1.86-3.4ZM137.03,27.45c.08-2.42-.69-4.88-2.14-6.79-.32-.51-.75-.93-1.17-1.36l-.62-.64-.7-.55c-.91-.76-1.96-1.32-2.98-1.89.92.73,1.91,1.35,2.72,2.2l.64.58.56.66c.37.44.76.86,1.03,1.37,1.25,1.9,1.92,4.15,1.83,6.4-.05,2.26-.8,4.48-1.9,6.49-.28.5-.6.98-.9,1.47-.33.47-.7.92-1.04,1.38l-1.15,1.31c-.42.4-.84.81-1.26,1.22,1.95-1.31,3.63-3.05,4.91-5.06,1.28-2.01,2.11-4.36,2.19-6.79ZM97.62,31.97c.04.59-.02,1.13-.27,1.53-.25.39-.66.66-1.12.81-.46.15-.98.18-1.48.1-.5-.09-.98-.31-1.39-.74.11.59.62,1.1,1.21,1.32.59.24,1.26.25,1.89.06.61-.19,1.21-.64,1.44-1.29.24-.64.06-1.32-.28-1.79Z"/>
</svg>